<?xml version="1.0" encoding="UTF-8"?><svg id="Layer_1" xmlns="http://www.w3.org/2000/svg" viewBox="0 0 518.14 42.49"><path d="m10.24.91v32.31h18.09v8.36H0V.91h10.24Z" fill="#fff"/><path d="m60.12,16.5v8.36h-17.75v8.36h20.93v8.36h-31.17V.91h30.83v8.36h-20.59v7.22h17.75Z" fill="#fff"/><path d="m92.8,19.08c2.14.93,3.92,2.25,5.35,3.95,1.42,1.71,2.13,3.91,2.13,6.6s-.64,4.83-1.91,6.77c-1.27,1.93-3.12,3.43-5.55,4.49-2.43,1.06-5.31,1.59-8.65,1.59-3.56,0-6.75-.57-9.56-1.71-2.81-1.14-5.01-2.78-6.6-4.92-1.59-2.14-2.39-4.69-2.39-7.65h10.24c0,2.05.77,3.55,2.3,4.49,1.54.95,3.54,1.42,6,1.42,1.86,0,3.3-.32,4.32-.97,1.02-.64,1.54-1.5,1.54-2.56,0-.87-.32-1.6-.97-2.19-.65-.59-1.48-1.08-2.5-1.48-1.02-.4-2.5-.86-4.44-1.39l-2.22-.63c-4.13-1.21-7.36-2.76-9.67-4.64-2.31-1.88-3.47-4.52-3.47-7.94,0-4.21,1.44-7.32,4.32-9.33,2.88-2.01,6.67-3.01,11.38-3.01,3.19,0,6.07.54,8.65,1.62,2.58,1.08,4.64,2.62,6.17,4.61,1.54,1.99,2.34,4.33,2.42,7.02h-10.24c-.23-1.52-.96-2.71-2.19-3.58-1.23-.87-2.83-1.31-4.81-1.31-1.63,0-2.95.27-3.95.8-1.01.53-1.51,1.35-1.51,2.45s.55,2.01,1.65,2.62c1.1.61,3.11,1.31,6.03,2.1,3.26.91,5.96,1.83,8.11,2.76Z" fill="#fff"/><path d="m136.77,38.59c-2.07,2.6-5.68,3.9-10.84,3.9s-8.77-1.3-10.84-3.9c-2.07-2.6-3.1-6.11-3.1-10.55v-3.41h9.1v3.41c0,2.05.31,3.57.94,4.58.63,1.01,1.73,1.51,3.33,1.51s2.7-.5,3.33-1.51c.63-1,.94-2.53.94-4.58V.91h10.24v27.13c0,4.44-1.03,7.95-3.1,10.55Z" fill="#fff"/><path d="m152.67,39.76c-3.03-1.82-5.34-4.33-6.91-7.54-1.57-3.2-2.36-6.87-2.36-11.01s.79-7.74,2.36-10.95c1.57-3.2,3.88-5.72,6.91-7.54,3.03-1.82,6.66-2.73,10.86-2.73s7.77.91,10.81,2.73c3.03,1.82,5.35,4.33,6.94,7.54,1.59,3.21,2.39,6.85,2.39,10.95s-.8,7.8-2.39,11.01c-1.59,3.21-3.91,5.72-6.94,7.54-3.03,1.82-6.64,2.73-10.81,2.73s-7.83-.91-10.86-2.73Zm18.43-9.16c1.55-2.35,2.33-5.48,2.33-9.39s-.78-6.98-2.33-9.33c-1.56-2.35-4.08-3.53-7.57-3.53s-6.01,1.18-7.57,3.53c-1.56,2.35-2.33,5.46-2.33,9.33s.78,7.04,2.33,9.39c1.55,2.35,4.08,3.53,7.57,3.53s6.01-1.17,7.57-3.53Z" fill="#fff"/><path d="m217.32,38.59c-2.67,2.6-7.01,3.9-13,3.9s-10.32-1.3-13-3.9c-2.67-2.6-4.01-6.49-4.01-11.69V.91h10.24v26c0,2.58.55,4.43,1.65,5.55,1.1,1.12,2.81,1.68,5.12,1.68s4.02-.56,5.12-1.68c1.1-1.12,1.65-2.97,1.65-5.55V.91h10.24v26c0,5.2-1.34,9.09-4.01,11.69Z" fill="#fff"/><path d="m226.62.91h19.17c4.55,0,8.11,1.02,10.67,3.07s3.84,4.97,3.84,8.76c0,2.65-.73,4.83-2.19,6.54s-3.48,2.84-6.06,3.41v.11c2.12.38,3.73,1.3,4.83,2.76,1.1,1.46,1.83,3.07,2.19,4.84.36,1.76.62,3.84.77,6.23.11,1.52.23,2.6.34,3.24.11.65.34,1.02.68,1.14v.57h-10.64c-.27-.26-.45-.72-.54-1.37-.1-.64-.16-1.59-.2-2.84-.08-2.01-.24-3.68-.48-5.01-.25-1.33-.82-2.48-1.71-3.47-.89-.99-2.25-1.48-4.07-1.48h-6.37v14.16h-10.24V.91Zm10.24,18.15h6.94c2.08,0,3.65-.4,4.69-1.19s1.56-2.03,1.56-3.7-.52-2.9-1.56-3.7-2.61-1.19-4.69-1.19h-6.94v9.78Z" fill="#fff"/><path d="m290.01,19.08c2.14.93,3.92,2.25,5.35,3.95,1.42,1.71,2.13,3.91,2.13,6.6s-.64,4.83-1.91,6.77-3.12,3.43-5.55,4.49-5.31,1.59-8.65,1.59c-3.57,0-6.75-.57-9.56-1.71-2.81-1.14-5.01-2.78-6.6-4.92-1.59-2.14-2.39-4.69-2.39-7.65h10.24c0,2.05.77,3.55,2.3,4.49,1.54.95,3.54,1.42,6,1.42,1.86,0,3.3-.32,4.32-.97,1.02-.64,1.54-1.5,1.54-2.56,0-.87-.32-1.6-.97-2.19-.65-.59-1.48-1.08-2.5-1.48-1.02-.4-2.5-.86-4.44-1.39l-2.22-.63c-4.13-1.21-7.36-2.76-9.67-4.64-2.31-1.88-3.47-4.52-3.47-7.94,0-4.21,1.44-7.32,4.32-9.33,2.88-2.01,6.67-3.01,11.38-3.01,3.19,0,6.07.54,8.65,1.62,2.58,1.08,4.64,2.62,6.17,4.61,1.54,1.99,2.34,4.33,2.42,7.02h-10.24c-.23-1.52-.96-2.71-2.19-3.58-1.23-.87-2.83-1.31-4.81-1.31-1.63,0-2.95.27-3.95.8-1,.53-1.51,1.35-1.51,2.45s.55,2.01,1.65,2.62c1.1.61,3.11,1.31,6.03,2.1,3.26.91,5.96,1.83,8.11,2.76Z" fill="#fff"/><path d="m321.5.91v32.31h18.09v8.36h-28.33V.91h10.24Z" fill="#fff"/><path d="m353.98,33.11l-2.62,8.48h-10.24L355.85.91h10.24l14.68,40.67h-10.24l-2.62-8.48h-13.94Zm11.66-7.79l-4.61-15.02h-.11l-4.61,15.02h9.33Z" fill="#fff"/><path d="m424.2,16.72c-1.16,1.4-2.68,2.43-4.58,3.07v.11c2.35.42,4.26,1.42,5.72,3.01,1.46,1.59,2.19,3.81,2.19,6.66,0,4.17-1.21,7.22-3.64,9.13-2.43,1.92-5.86,2.87-10.3,2.87h-20.31V.91h19.74c8.61,0,12.91,3.41,12.91,10.24,0,2.31-.58,4.17-1.73,5.57Zm-13.62.63c1.63,0,2.89-.28,3.78-.85.89-.57,1.34-1.63,1.34-3.19s-.45-2.62-1.34-3.19c-.89-.57-2.15-.85-3.78-.85h-7.05v8.08h7.05Zm-7.05,15.87h7.34c2.24,0,3.87-.35,4.89-1.05,1.02-.7,1.54-1.96,1.54-3.78s-.51-3.07-1.54-3.75c-1.02-.68-2.65-1.02-4.89-1.02h-7.34v9.61Z" fill="#fff"/><path d="m441.46,33.11l-2.62,8.48h-10.24L443.34.91h10.24l14.68,40.67h-10.24l-2.62-8.48h-13.94Zm11.66-7.79l-4.61-15.02h-.11l-4.61,15.02h9.33Z" fill="#fff"/><path d="m481.39.91v40.67h-10.24V.91h10.24Z" fill="#fff"/><path d="m514.95,16.5v8.36h-17.75v8.36h20.93v8.36h-31.17V.91h30.83v8.36h-20.59v7.22h17.75Z" fill="#fff"/></svg>