<svg xmlns="http://www.w3.org/2000/svg" xmlns:xlink="http://www.w3.org/1999/xlink" width="64.26" height="63" viewBox="0 0 64.26 63"><defs><clipPath id="a"><rect width="64.26" height="63" fill="none" stroke="#306e4d" stroke-width="3"/></clipPath></defs><g clip-path="url(#a)"><path d="M6-1.5A7.5,7.5,0,1,1-1.5,6,7.508,7.508,0,0,1,6-1.5Zm0,12A4.5,4.5,0,1,0,1.5,6,4.505,4.505,0,0,0,6,10.5Z" transform="translate(14 50)" fill="#306e4d"/><path d="M6-1.5A7.5,7.5,0,1,1-1.5,6,7.508,7.508,0,0,1,6-1.5Zm0,12A4.5,4.5,0,1,0,1.5,6,4.505,4.505,0,0,0,6,10.5Z" transform="translate(38 50)" fill="#306e4d"/><path d="M12,1.5H0v-3H12Z" transform="translate(26 56)" fill="#306e4d"/><path d="M12.5,56.109,8.605,2.5H0v-3H11.395l4.1,56.391Z" fill="#306e4d"/><path d="M13.1,43.5,12.9,40.5l41.9-2.923L61.11,10.5H11v-3H64.89L57.209,40.419Z" fill="#306e4d"/></g></svg>