<svg xmlns="http://www.w3.org/2000/svg" xmlns:xlink="http://www.w3.org/1999/xlink" width="127.31" height="87.059" viewBox="0 0 127.31 87.059"><defs><clipPath id="a"><rect width="127.31" height="87.059" fill="none"/></clipPath></defs><g transform="translate(0)"><path d="M719.166,279.322l-.387,8.762-6.875-4.7.928,8.518-9.017-4.577,2.911,8.487-7.572.014,1.986,4.366-7.246.8,4.366,5.059-7.243,2.184,4.287,5.615-6.193,2.064,4.584,3.137-6.094,2.646,6.592,1.522-7.034,5.387,8.225,2.516-8.832,6.536,9.1,2.008-7.895,5.484,9.113-1.091-4.367,4.663,7.013-2.03-5.824,7.341,9.826-2.234-1.34,8.037,8.125-1.949,1.637,5.826,7.5-4.921,5.509,7.594,6.1-7,4.416,6.4,3.192-6.806,4.91,7.247,1.176-7.735,4.912,7.172V357.3l8.038,6.9,1.488-9.136,7.7,5.894-2-6.886L772.685,358l-1.786-7.2,8.733.506-4.862-6.5,7.459-.7-6.121-6,4.813-.115-3.521-4.451,7.441-.863-8.385-4.992,6.7-2.531-8.486-1.489,7.086-3.734-7.39-2.88,6.555-1.275-9.228-5.358,7-4.167-10.179-.753,3.288-4.409-7.548-1.449,5.061-3.212-8.037-.3,4.167-7.176-6.549,3.01,2.976-9.079-9.824,6.073,1.19-6.516L744.3,286.6l-1.34-6.549-4.018,5.358-3.426-4.683-2.229,5.873-5.141-5.851-2.2,5.969Z" transform="translate(-668.024 -279.322)" fill="#f1d1c0"/><g transform="translate(0 0)"><g clip-path="url(#a)"><g transform="translate(-0.018 22.733)"><path d="M748.889,362.92s-1.335,0-1.314,1.082.092,1.427.67,1.5,1.495-.346,1.542-1.038.3-1.448-.9-1.541" transform="translate(-697.001 -341.776)" fill="#1a1717"/><path d="M814.458,364.848s-1.044.832-.351,1.663.962,1.059,1.455.753.954-1.2.56-1.77-.671-1.321-1.663-.646" transform="translate(-728.5 -342.565)" fill="#1a1717"/><path d="M775.017,377.917a2.42,2.42,0,0,1-.815-.156.749.749,0,0,0-.521.014,2.205,2.205,0,0,1-.575.091,2.508,2.508,0,0,1-2.211-1.212c-.894-1.347-.366-1.674.372-.564a2.056,2.056,0,0,0,1.791.977h.044a1.848,1.848,0,0,0,.49-.079,1.06,1.06,0,0,1,.739,0,1.534,1.534,0,0,0,1.359-.067,1.713,1.713,0,0,1,1.364-.121c.133.025.265.04.336.046,2.281-2.213,3.3-2.049,0,.8h0a2.6,2.6,0,0,1-.4-.054,1.49,1.49,0,0,0-1.066.046,1.487,1.487,0,0,1-.9.28" transform="translate(-707.858 -347.671)" fill="#fff"/><path d="M775.017,377.917a2.42,2.42,0,0,1-.815-.156.749.749,0,0,0-.521.014,2.205,2.205,0,0,1-.575.091,2.508,2.508,0,0,1-2.211-1.212c-.894-1.347-.366-1.674.372-.564a2.056,2.056,0,0,0,1.791.977h.044a1.848,1.848,0,0,0,.49-.079,1.06,1.06,0,0,1,.739,0,1.534,1.534,0,0,0,1.359-.067,1.713,1.713,0,0,1,1.364-.121c.133.025.265.04.336.046,2.281-2.213,3.3-2.049,0,.8h0a2.6,2.6,0,0,1-.4-.054,1.49,1.49,0,0,0-1.066.046,1.487,1.487,0,0,1-.9.28" transform="translate(-707.858 -347.671)" fill="#1a1717"/><path d="M775.049,378.524H775a3.013,3.013,0,0,1-1-.19.143.143,0,0,0-.093,0l-.026.011-.027.008a2.813,2.813,0,0,1-.734.116h-.079a3.131,3.131,0,0,1-2.66-1.495c-.53-.8-.684-1.387-.469-1.787a.709.709,0,0,1,.634-.378c.4,0,.81.316,1.224.94l.011.017a1.462,1.462,0,0,0,1.263.689h.048a1.241,1.241,0,0,0,.307-.049,1.674,1.674,0,0,1,1.14,0l.033.013a.927.927,0,0,0,.822-.04l0,0a2.32,2.32,0,0,1,1.783-.184,12.274,12.274,0,0,1,1.169-.983c.607-.438.884-.5,1.074-.5a.669.669,0,0,1,.637.432c.15.4-.1.8-.552,1.307a19.444,19.444,0,0,1-1.722,1.642l-.171.148h-.263a3.212,3.212,0,0,1-.5-.066l-.033-.007-.032-.011a.887.887,0,0,0-.583.008A2.075,2.075,0,0,1,775.049,378.524Z" transform="translate(-707.858 -347.671)" fill="#1a1717"/><path d="M872.433,327.8l-1.47-.278,1.089-3.086a1.334,1.334,0,1,0-2.5-.93c-.005.014-.01.027-.014.04l-.884,2.5-.949-1.562a1.333,1.333,0,1,0-2.279,1.382l1.662,2.741-15.3,8.125a1.334,1.334,0,0,0,1.251,2.356l16.57-8.8a1.306,1.306,0,0,0,.311-.248l2.018.379a1.213,1.213,0,0,0,.247.024,1.333,1.333,0,0,0,.244-2.643" transform="translate(-746.193 -322.634)" fill="#060707"/><path d="M677.8,350.645l-14.555-4.562,1.521-1.285a1.333,1.333,0,0,0-1.719-2.038l0,0-1.178,1V341.09a1.333,1.333,0,0,0-2.666-.05c0,.017,0,.033,0,.05v4.388l-6.824.993a1.334,1.334,0,1,0,.348,2.644l.036-.005,7.662-1.116,16.581,5.2a1.3,1.3,0,0,0,.4.062,1.333,1.333,0,0,0,.4-2.606" transform="translate(-651.218 -330.758)" fill="#060707"/></g></g></g></g></svg>