<?xml version="1.0" encoding="UTF-8"?><svg id="C_0_M_0_Y_10_K_95" xmlns="http://www.w3.org/2000/svg" viewBox="0 0 221.53 58.27"><path d="m.04,24.67h13.27c6.63,0,10.35,4.55,10.35,9.95s-3.81,9.95-10.35,9.95H4.15v13.12H.04s0-33.02,0-33.02Zm12.77,3.66H4.15v12.57h8.66c3.91,0,6.58-2.57,6.58-6.29s-2.67-6.29-6.58-6.29h0Z" fill="#fff"/><path d="m51.68,44.57h-6.58v13.12h-4.11V24.67h13.27c6.04,0,10.35,3.86,10.35,9.95s-4.06,9.21-8.56,9.6l8.91,13.46h-4.85l-8.42-13.12h0Zm2.08-16.24h-8.66v12.62h8.66c3.91,0,6.58-2.62,6.58-6.34s-2.67-6.29-6.58-6.29h0Z" fill="#fff"/><path d="m83.54,24.67h4.11v33.02h-4.11V24.67Z" fill="#fff"/><path d="m136.05,30.21l-11.24,27.47h-1.68l-11.19-27.47v27.47h-4.11V24.66h5.89l10.25,25.15,10.3-25.15h5.89v33.02h-4.11s0-27.47,0-27.47Z" fill="#fff"/><path d="m158.61,24.67h21.63v3.66h-17.52v10.64h17.18v3.66h-17.18v11.39h17.52v3.66h-21.63V24.66h0Z" fill="#fff"/><path d="m199.1,49.91c2.18,2.43,5.74,4.7,10.4,4.7,5.89,0,7.77-3.17,7.77-5.69,0-3.96-4.01-5.05-8.37-6.24-5.3-1.39-11.19-2.87-11.19-9.36,0-5.45,4.85-9.16,11.34-9.16,5.05,0,8.96,1.68,11.73,4.6l-2.48,3.02c-2.48-2.72-5.94-3.96-9.55-3.96-3.96,0-6.78,2.13-6.78,5.25,0,3.32,3.81,4.31,8.02,5.45,5.4,1.44,11.53,3.12,11.53,10.05,0,4.8-3.27,9.7-12.18,9.7-5.74,0-9.95-2.18-12.67-5.25l2.43-3.12h0Z" fill="#fff"/><path d="m111.37.34h-7.97v.24l1.63.38v9.16l-1.63.38v.23h8.06c4.01,0,6.65-2.05,6.65-5.18,0-2.5-2.31-5.22-6.74-5.22h0Zm.07,10.01h-2.48l-.97-.09V.72h3.54c1.97,0,3.43,1.77,3.43,4.77,0,1.67-.94,4.85-3.52,4.85h0Z" fill="#fff"/><polygon points="120.7 .34 122.31 .34 120.55 3.12 119.88 3.12 120.7 .34" fill="#fff"/><path d="m52.86,7.98c0-1.9-2.3-2.83-4.86-2.83,2.14,0,3.87-.83,3.87-2.37,0-1.63-2.1-2.45-4.8-2.45h-8.4v.24l1.63.38v9.16l-1.63.38v.23h9.38c3.21,0,4.8-1.36,4.8-2.76v.02ZM43.26.73h2.83c1.99,0,3.14.47,3.14,2.12s-1.19,2.11-2.64,2.11h-3.33V.73Zm.99,9.63l-.99-.1v-4.83h3.24c2,0,3.46.26,3.46,2.5,0,1.84-1.73,2.42-3.37,2.42h-2.34Z" fill="#fff"/><polygon points="76.56 .96 78.19 .57 78.19 .34 72.06 .34 72.06 .57 73.69 .96 73.69 10.12 72.06 10.5 72.06 10.73 78.19 10.73 78.19 10.5 76.56 10.12 76.56 .96" fill="#fff"/><path d="m93.78,6.88c-.43,1.45-1.38,3.47-4.27,3.47h-2.5l-.99-.1v-4.83h1.69c1.6.01,2.12,1.11,2.36,1.91h.17V3.02h-.17c-.24.81-.77,1.92-2.39,1.92h-1.66V.71h3.11c2.57,0,3.41,1.75,3.79,3.03h.18V.32h-11.67v.24l1.63.38v9.16l-1.63.38v.23h12.54v-3.85h-.2v.02Z" fill="#fff"/><path d="m68.41,10.04L62.93.34h-4.62v.23l1.79.44.29.51-5.14,8.59-1.36.38v.24h3.25l.07-.24-1.14-.38,1.28-2.13h6.7l1.2,2.12-1.52.38.07.23h6.34v-.23l-1.71-.44h-.02Zm-10.74-2.6l3.12-5.21,2.95,5.21h-6.07Z" fill="#fff"/><polygon points="139.72 .57 139.72 .33 133.64 .33 133.64 .57 135.27 .95 135.27 4.99 128.93 4.99 128.93 .95 130.56 .57 130.56 .33 124.48 .33 124.48 .57 126.11 .95 126.11 10.12 124.48 10.5 124.48 10.74 130.56 10.74 130.56 10.5 128.93 10.12 128.93 5.54 135.27 5.54 135.27 10.12 133.64 10.5 133.64 10.74 139.72 10.74 139.72 10.5 138.09 10.12 138.09 .95 139.72 .57" fill="#fff"/><path d="m166.35.33h-7.97v.24l1.63.38v9.17l-1.63.38v.23h8.06c4.01,0,6.65-2.05,6.65-5.18,0-2.5-2.31-5.22-6.74-5.22h0Zm.07,10.02h-2.48l-.97-.09V.71h3.55c1.97,0,3.43,1.77,3.43,4.78,0,1.67-.95,4.86-3.52,4.86h0Z" fill="#fff"/><path d="m153.47.33v.24l1.25.38v6.03c0,2.01-1.47,3.36-4.07,3.36-2.1,0-3.97-1.18-3.97-3.17V.96l1.63-.38v-.24h-6.23v.24l1.63.38v5.84c0,2.8,2.17,4.28,6.28,4.28,3.63,0,5.39-1.49,5.39-4.26V.96l1.25-.38v-.24h-3.17,0Z" fill="#fff"/><polygon points="218.32 .33 218.32 .57 219.58 .95 219.58 7.27 211.31 .33 206.28 .33 206.28 .57 207.91 .98 207.91 10.12 206.65 10.5 206.65 10.74 209.9 10.74 209.9 10.5 208.65 10.12 208.65 1.53 219.58 11.07 220.28 11.07 220.28 .95 221.53 .57 221.53 .33 218.32 .33" fill="#fff"/><path d="m186.05,4.76c-1.23-.4-3.17-.64-5.61-.8-1.87-.13-2.67-.82-2.67-1.74,0-1.11,1.39-1.83,3.5-1.83,3.29,0,4.82,2.05,5.25,3.5h.2V1.16S184,0,181.27,0C177.98,0,176.05,1.38,176.05,3.73c0,1.49,1.19,2.69,5.35,2.97,3.5.25,4.63.92,4.63,2.3,0,1.06-1.41,1.67-3.56,1.67-2.98,0-5.51-1.5-6.1-3.64h-.19v2.87s3.2,1.16,6.15,1.16c3.12,0,5.92-.85,5.92-3.88,0-.98-.9-2-2.21-2.43h.01Z" fill="#fff"/><path d="m204.85,5.56c0-1-.25-1.92-.7-2.67-1.09-1.76-3.56-2.89-6.36-2.89-4.11,0-6.88,2.22-6.88,5.55s2.78,5.53,6.97,5.53,6.97-2.17,6.97-5.52Zm-3.75,3.08c-.53,1.39-1.63,2.09-3.24,2.09-2.4,0-3.75-1.81-3.75-5.05,0-1.07.17-2.09.5-3.02.53-1.53,1.64-2.28,3.35-2.28.8,0,1.5.17,2,.5,1.07.71,1.7,2.44,1.7,4.61,0,1.13-.18,2.19-.57,3.15h.01Z" fill="#fff"/><path d="m28.82,10.04L23.34.34h-4.62v.23l1.79.44.29.51-5.14,8.59-1.36.38v.24h3.25l.07-.24-1.14-.38,1.28-2.13h6.7l1.2,2.12-1.52.38.07.23h6.34v-.23l-1.71-.44h-.02Zm-10.74-2.6l3.12-5.21,2.95,5.21h-6.07Z" fill="#fff"/><path d="m12.35,6.88c-.43,1.45-1.38,3.47-4.27,3.47h-2.5l-.99-.1V.95l1.62-.38v-.24H0v.24l1.63.38v9.16l-1.63.38v.23h12.54v-3.85h-.2.01Z" fill="#fff"/></svg>