<svg xmlns="http://www.w3.org/2000/svg" width="85.769" height="61.998" viewBox="0 0 85.769 61.998"><g transform="translate(1.5 1.5)"><g transform="translate(0)"><path d="M600.279,246.211H584.7v-1.5c0-.032,0-.061,0-.086-.02-4.257-3.14-7.713-6.971-7.713s-6.95,3.456-6.97,7.712c0,.025,0,.054,0,.086v1.5H543.1v-1.5c0-.032,0-.06,0-.084-.019-4.258-3.139-7.715-6.971-7.715s-6.951,3.457-6.97,7.715c0,.024,0,.052,0,.084v1.5H514.51V193.424h66.415l12.1,26.12,7.25,7.455Zm-12.662-3h9.662V228.218l-6.757-6.948-.107-.232-11.405-24.614h-61.5v46.787h8.739a11.023,11.023,0,0,1,2.784-6.1,9.473,9.473,0,0,1,14.193,0,11.023,11.023,0,0,1,2.784,6.1h21.844a11.024,11.024,0,0,1,2.784-6.1,9.473,9.473,0,0,1,14.193,0A11.023,11.023,0,0,1,587.616,243.211Z" transform="translate(-516.01 -194.924)" fill="#2f6e4d"/><path d="M549.588,227.346l-2.213-2.025,8.328-9.1-8.328-9.1,2.213-2.026,10.182,11.124Z" transform="translate(-510.918 -191.972)" fill="#2f6e4d"/><g transform="translate(23.682 24.251)"><path d="M23.137,1.5H0v-3H23.137Z" fill="#2f6e4d"/></g><path d="M8.471-1.5a9.554,9.554,0,0,1,7.1,3.2,11.139,11.139,0,0,1,2.875,7.557,11.139,11.139,0,0,1-2.875,7.557,9.472,9.472,0,0,1-14.193,0A11.139,11.139,0,0,1-1.5,9.255,11.139,11.139,0,0,1,1.375,1.7,9.554,9.554,0,0,1,8.471-1.5Zm0,18.51c3.844,0,6.971-3.479,6.971-7.755S12.315,1.5,8.471,1.5,1.5,4.979,1.5,9.255,4.627,17.01,8.471,17.01Z" transform="translate(53.254 40.488)" fill="#2f6e4d"/><path d="M8.471-1.5a9.554,9.554,0,0,1,7.1,3.2,11.139,11.139,0,0,1,2.875,7.557,11.139,11.139,0,0,1-2.875,7.557,9.472,9.472,0,0,1-14.193,0A11.139,11.139,0,0,1-1.5,9.255,11.139,11.139,0,0,1,1.375,1.7,9.554,9.554,0,0,1,8.471-1.5Zm0,18.51c3.844,0,6.971-3.479,6.971-7.755S12.315,1.5,8.471,1.5,1.5,4.979,1.5,9.255,4.627,17.01,8.471,17.01Z" transform="translate(11.649 40.488)" fill="#2f6e4d"/></g></g></svg>