<svg xmlns="http://www.w3.org/2000/svg" width="109.473" height="126.409" viewBox="0 0 109.473 126.409"><g transform="translate(0 0)"><path d="M344.883,297.272c-.307-3.419-48.319-2.3-48.866-5.718-.47-2.937,46.558-10.427,45.889-13.3-5.259-22.586-16.957-42-39.783-42-8.887,0-15.912,1.717-21.461,4.616l-26.938-10.483L266.7,249.261l-24.218.156,19.5,14.6-24.128-.469,21.713,12.391-23.486,12.894,23.855,4.558-18.321,11.437,20.546,4.668c-1.134,7.086-5.67,36.562,2.834,37.7h-.32s-6.055,7.6,0,8.172,14.368,1.85,14.656-1.033a27.346,27.346,0,0,0-.352-6.091c1.583.083,3.2.162,4.8.236-1.422,2.19-3.574,6.461.907,6.888,6.055.576,14.369,1.85,14.656-1.033a24.824,24.824,0,0,0-.232-5.252c1.876.062,3.018.1,3.018.1s.777-.022,2.1-.066a24.828,24.828,0,0,0-.229,5.223c.288,2.883,8.6,1.609,14.656,1.033,4.456-.426,2.356-4.646.934-6.848,2.718-.123,5.488-.261,8.112-.41l-1.8.252a31.143,31.143,0,0,0,.465,7.143c.685,2.815,8.741.4,14.658-1.006,5.222-1.244.346-6.594-.871-7.832,3.617-3.648,6.853-25.836,4.738-49.387" transform="translate(-236.082 -230.392)" fill="#879cae"/><path d="M333.99,287.127s-4.671-4.673-8.379-.806-4.673,5.318-2.9,7.574,6.445,4.029,9.022,1.773,6.124-4.029,2.256-8.541" transform="translate(-268.84 -251.168)" fill="#fff"/><path d="M328.972,282.533h0c3.513,0,6.306,2.692,6.612,3q.061.061.117.127c1.662,1.939,2.393,3.743,2.233,5.515-.227,2.526-2.192,4.123-3.771,5.406-.334.272-.65.529-.946.787a6.727,6.727,0,0,1-4.512,1.6,10.48,10.48,0,0,1-7.771-3.68,5.053,5.053,0,0,1-.9-5.465c.617-1.441,1.814-2.836,3.949-5.064A6.821,6.821,0,0,1,328.972,282.533Zm3.372,6.142a5.889,5.889,0,0,0-3.371-1.629h0a2.281,2.281,0,0,0-1.732.837,18.653,18.653,0,0,0-3.059,3.718.713.713,0,0,0-.071.268,1.77,1.77,0,0,0,.376.631,6.025,6.025,0,0,0,4.222,1.955,2.271,2.271,0,0,0,1.54-.486c.357-.312.72-.607,1.071-.893.968-.787,2.065-1.679,2.122-2.308C333.461,290.552,333.391,289.919,332.344,288.675Z" transform="translate(-268.84 -251.168)" fill="#fff"/><path d="M346.829,287.064c-3.062,4.027,1.289,9.184,3.706,9.184s5.64-2.1,6.285-4.19c0,0,1.934-1.611-1.289-4.995s-8.7,0-8.7,0" transform="translate(-277.978 -251.462)" fill="#fff"/><path d="M351.842,283.3h0a7.155,7.155,0,0,1,5.322,2.2c1.744,1.831,2.578,3.634,2.479,5.358a4.357,4.357,0,0,1-.852,2.364,8.644,8.644,0,0,1-3.205,3.592,9.553,9.553,0,0,1-5.052,1.684,5.887,5.887,0,0,1-3.593-1.487,9.919,9.919,0,0,1-2.514-3.186,7.506,7.506,0,0,1,.605-8.134,2.257,2.257,0,0,1,.61-.554A13.043,13.043,0,0,1,351.842,283.3Zm3.3,7.25a4.039,4.039,0,0,0-1.242-1.933,2.646,2.646,0,0,0-2.054-.8,8.357,8.357,0,0,0-3.444.956,2.977,2.977,0,0,0-.1,2.672,4.612,4.612,0,0,0,2.269,2.548,5.214,5.214,0,0,0,2.527-.935,3.9,3.9,0,0,0,1.565-1.662A2.257,2.257,0,0,1,355.138,290.553Z" transform="translate(-277.978 -251.462)" fill="#fff"/><path d="M337.23,293.449s-1.438,0-1.412,1.164.1,1.535.718,1.61,1.611-.372,1.66-1.115.323-1.56-.965-1.659" transform="translate(-274.174 -254.475)"/><path d="M337.23,292.056h.054l.054,0a2.5,2.5,0,0,1,1.813.826,2.635,2.635,0,0,1,.456,2.079c-.009.085-.017.166-.022.235a2.836,2.836,0,0,1-2.91,2.425,2.58,2.58,0,0,1-.306-.018,2,2,0,0,1-1.709-1.262,4.849,4.849,0,0,1-.235-1.7,2.366,2.366,0,0,1,.67-1.748A3.146,3.146,0,0,1,337.23,292.056Z" transform="translate(-274.174 -254.475)"/><path d="M356.657,293.445s-1.124.9-.378,1.791,1.035,1.138,1.566.811,1.028-1.294.6-1.906-.721-1.42-1.789-.7" transform="translate(-281.892 -254.365)"/><path d="M357.4,291.766h0a2.458,2.458,0,0,1,2.068,1.385c.046.072.089.139.129.2a2.407,2.407,0,0,1,.351,1.884,3.21,3.21,0,0,1-1.366,2,2.126,2.126,0,0,1-1.138.347,3.038,3.038,0,0,1-2.23-1.451,2.367,2.367,0,0,1-.566-1.785,3.146,3.146,0,0,1,1.146-1.986l.042-.034.045-.03A2.684,2.684,0,0,1,357.4,291.766Z" transform="translate(-281.892 -254.365)"/></g></svg>