<svg xmlns="http://www.w3.org/2000/svg" xmlns:xlink="http://www.w3.org/1999/xlink" width="100.61" height="126.409" viewBox="0 0 100.61 126.409"><defs><clipPath id="a"><rect width="100.61" height="126.409" fill="none"/></clipPath></defs><g transform="translate(0 0)"><g transform="translate(0 0)" clip-path="url(#a)"><g transform="translate(0 -0.001)"><path d="M110.9,337.175c.005.046.011.094.015.14.213,10.6-8.966,19.258-20.313,19.258-11.217,0-20.313-8.457-20.313-18.9v-.033c.381-1.722.752-3.395,1.132-5.117.67-1.563,1.339-3.222,2-4.922,3.259-8.353,6.3-17.764,7.767-22.434C44.2,298.713,39.8,293.1,41.548,274.344c2.2-23.642,19.209-45.956,50.465-44.067,31.181,1.89,49.827,27.962,49.827,51.707,0,21.835-6.718,18.856-37.252,23.215Z" transform="translate(-41.229 -230.164)" fill="#d4a69a"/><path d="M111.577,335.11a36.211,36.211,0,0,1-7.836-.815A26.288,26.288,0,0,1,90.657,327.3a1.246,1.246,0,1,1,1.756-1.768c5.805,5.765,14.074,8.032,24.575,6.738a56.143,56.143,0,0,0,14.238-3.748,1.246,1.246,0,1,1,1.012,2.277,57.793,57.793,0,0,1-14.945,3.944A46.8,46.8,0,0,1,111.577,335.11Z" transform="translate(-63.461 -272.703)" fill="#fff"/><path d="M131.992,284.045s-3.922-1.736-4.566,0a75.167,75.167,0,0,0-2.186,9.26c-.064,1.028-2.058,8.68,5.915,8.552s6.559-15.883.837-17.812" transform="translate(-78.238 -253.635)" fill="#fff"/><path d="M161.269,282.709a.532.532,0,0,0,.148-.018,7.418,7.418,0,0,0,3.473-2.143.6.6,0,0,0-.917-.789,6.291,6.291,0,0,1-2.852,1.76.6.6,0,0,0,.147,1.19" transform="translate(-94.012 -251.993)" fill="#fff"/><path d="M165.86,290.17a.6.6,0,0,0-.816-.242l-.006,0a21.7,21.7,0,0,1-4.994,1.152.6.6,0,0,0-.52.658,16.467,16.467,0,0,0-.446-2.484.59.59,0,0,0,.271.073.4.4,0,0,0,.068,0c.258-.028,2.545-.324,3.509-1.661a.6.6,0,0,0-.981-.707,4.5,4.5,0,0,1-2.665,1.167.594.594,0,0,0-.446.3,7.014,7.014,0,0,0-2.058-3.338s-4.047-3.762-5.929,2.459-1.736,14.9,4.2,14.324c3.656-.357,4.947-5.5,4.485-10.1a.6.6,0,0,0,.593.511.487.487,0,0,0,.08,0c.413-.056,4.074-.55,5.421-1.291a.6.6,0,0,0,.239-.818v0" transform="translate(-89.2 -253.94)" fill="#fff"/><path d="M100.954,281.036a.6.6,0,0,0-.177-.23,3.822,3.822,0,0,1-1.207-3.468.6.6,0,0,0-.528-.67.614.614,0,0,0-.67.53,5.057,5.057,0,0,0,1.535,4.452,7.742,7.742,0,0,0-1.8,2.2.6.6,0,0,0-.446-.06,1.552,1.552,0,0,1-1.751-.883.6.6,0,0,0-1.085.535l.012.023a2.766,2.766,0,0,0,2.52,1.569c.049,0,.093-.006.14-.008-.215.459-.425.97-.628,1.516a.6.6,0,0,0-.465.018c-.026.015-2.768,1.223-4.111.088a.6.6,0,1,0-.81.9l.028.024a3.58,3.58,0,0,0,2.367.77,7.771,7.771,0,0,0,2.551-.491c-1.873,6.345,1.251,10.181,2.674,11.608,1.479,1.479,8.681.965,9.324-7.009.465-5.77-3.5-12.914-7.468-11.406" transform="translate(-63.349 -250.715)" fill="#fff"/><path d="M109.541,294.678s-1.443.291-2.051,3.747.321,5.128,1.4,4.933,2.686-2.567,2.879-5.753-2.227-2.927-2.227-2.927" transform="translate(-70.427 -258.673)" fill="#191717"/><path d="M133.546,293.759a3.962,3.962,0,0,0-2.451,3.5c-.065,2.608.579,4.729,2.058,4.409s2.058-3.6,2.058-4.759-.176-2.829-1.664-3.152" transform="translate(-80.942 -258.269)" fill="#191717"/><path d="M157.261,293.759a2.834,2.834,0,0,0-2.444,2.895c-.063,2.636-.063,5.529,1.544,5.465s2.251-3.865,2.314-4.855.323-3.437-1.414-3.5" transform="translate(-91.419 -258.269)" fill="#191717"/></g></g></g></svg>