<svg xmlns="http://www.w3.org/2000/svg" width="65.796" height="131.871" viewBox="0 0 65.796 131.871"><path d="M1903.073,473.568c-.174-3.522-.349-7.045-.535-10.8-.951.074-1.739.128-2.524.2-1.793.157-3.582.349-5.378.471-1.486.1-1.908.459-1.951,1.924-.084,2.962-.147,5.925-.219,8.886l-2.307.842a9.91,9.91,0,0,1-.522-2.3c.026-1.989.27-3.974.3-5.963a28.88,28.88,0,0,0-.325-3.386c-2.189-.385-4.128-.8-6.087-1.054a21.966,21.966,0,0,1-7.622-2.875,8.273,8.273,0,0,1-2.725-2.5A24.2,24.2,0,0,1,1868.8,446.3a41.482,41.482,0,0,1,1.257-15.736,94.174,94.174,0,0,1,5.393-16.252c1.747-3.833,3.752-7.551,5.688-11.3.593-1.15,1.046-2.278.479-3.547-1.614-3.623-3.247-7.238-4.833-10.768-.8-.088-1.29-.139-1.777-.195-2.295-.262-3.672-1.281-3.868-2.858a5.166,5.166,0,0,1,3.21-5.111c1.287-.388,2.7-.633,3.779.408a3.545,3.545,0,0,1,1.021,4.109c-.914,1.837-.217,3.039.733,4.506,1.348,2.082,2.422,4.342,3.627,6.518.313.567.678,1.105,1.158,1.88,1.984-1.584,3.777-3.141,5.7-4.515a18.365,18.365,0,0,1,5.061-3c3.318-.983,6.82-1.96,10.272-1.246a32.324,32.324,0,0,1,7.325,2.96,29.985,29.985,0,0,1,3.874,2.664c1.463-1.2,8.679-12.9,9.772-15.876a17.345,17.345,0,0,1-1.788-2.858c-.924-2.379-.3-3.895,2.052-4.766a9.378,9.378,0,0,1,3.871-.509,4.043,4.043,0,0,1,3.489,3.676,3.941,3.941,0,0,1-2.8,3.953c-1.973.4-2.656,1.583-3.547,3.232-2.595,4.794-5.564,9.389-8.423,14.039-.632,1.028-1.192,1.922-.408,3.175,2.067,3.3,2.743,7.114,3.566,10.824q2.286,10.31,4.2,20.7c.726,3.905,1.253,7.858,1.642,11.812a14.7,14.7,0,0,1-3.579,10.981,15.78,15.78,0,0,1-8.747,5.6c-3.418.9-6.791,1.963-10.494,3.047v12.178l-2.263-.216a.322.322,0,0,0-.348-.205Zm-2.135-65.081-.013-.007c-1.611-2.007-3.832-1.567-5.963-1.485-2.844-.046-4.52,1-5.525,3.507a11.857,11.857,0,0,0-.708,2.381,7.392,7.392,0,0,0,3.188,7.564c3.094,1.937,5.985,1.771,9-.516,2.515-1.907,3.268-4.237,2.416-7.474l-.249-.713a.3.3,0,0,0-.121-.3l-.366-.72-.706-1.244Zm-17.313,14.133c-.106,2.7,1.7,4.27,3.811,5.353,1.856.953,3.848,1.779,6.036.218a3.867,3.867,0,0,1,3.769.027c4.983,2.165,8.127.978,11.381-2.892.779-.927,1.647-2.031.917-3.451-.265.055-.387.045-.41.089-.262.5-.5,1.013-.761,1.513-1.956,3.74-6.417,5.2-9.667,3.463a5.579,5.579,0,0,0-5.83-.146,4.319,4.319,0,0,1-5.108-.4C1886.319,425.237,1885.015,423.9,1883.626,422.621Z" transform="translate(-1868.509 -370.782)" fill="#eaa420"/><path d="M1885.487,473.827c-.21-3.759-.373-6.666-.536-9.571l6.288-.1c.1.128.3.253.3.383q.16,6.274.29,12.549a13.358,13.358,0,0,0-6.226.523Z" transform="translate(-1865.453 -353.425)" fill="#f4dcb8"/><path d="M1897.215,476.369q-.249-6.237-.5-12.472l5.89-.19c.186,2.456.4,4.912.546,7.37.072,1.231.013,2.47.013,4.205.031,2.2-.005.658-1.486,1.178l-.993.024-.491-.006-1.475.141Z" transform="translate(-1863.266 -353.507)" fill="#f4dcb8"/><path d="M1883.911,476.6a6.269,6.269,0,0,0,1.608-.4,11.159,11.159,0,0,1,7.481-1.115c.148,1.717.3,3.434.472,5.486-1.817.439-3.54.865-5.268,1.268-1.766.413-3.533.822-5.307,1.193a4.329,4.329,0,0,1-1.947.183,4.234,4.234,0,0,1-1.945-1.229,1.531,1.531,0,0,1,.289-2.22,28,28,0,0,1,2.663-2.108A18.421,18.421,0,0,1,1883.911,476.6Z" transform="translate(-1866.625 -351.428)" fill="#516256"/><path d="M1900.373,474.485l.993-.024c-.047.964.357,1.5,1.379,1.459.552-.02,1.1-.02,1.657-.029l.439.61.512.407c.164.034,1.346,1.016,2.053.97a20.385,20.385,0,0,1,2.547,2.532,2.136,2.136,0,0,1,.11,1.979,2.585,2.585,0,0,1-2,.981,38.219,38.219,0,0,1-4.725-1.182l-.655-.216-.166.031-.147-.083-1.519-1.239c-.458-1.409,1.657-2.085.688-3.481h-3.133V474.62l1.475-.141Z" transform="translate(-1862.951 -351.508)" fill="#516256"/><path d="M1898.739,474.634v2.579h3.133c.969,1.4-1.146,2.072-.688,3.481l1.519,1.239c-1.283-.263-2.558-.58-3.852-.777a2.316,2.316,0,0,1-2.227-2.483,34.956,34.956,0,0,1,.608-4.289Z" transform="translate(-1863.284 -351.522)" fill="#516256"/><path d="M1887.175,458.868l2.308-.842c1.455.521,2.264,1.454,1.977,3.088l-6.9.5C1884.893,459.294,1884.893,459.294,1887.175,458.868Z" transform="translate(-1865.526 -354.563)" fill="#f4dcb8"/><path d="M1898.279,457.7l2.263.216a1.984,1.984,0,0,1,1.71,2.3l-5.894.121c-.169-1.328-.038-2.494,1.547-2.878l.025.034Z" transform="translate(-1863.343 -354.669)" fill="#f4dcb8"/><path d="M1902.733,460.991q0,1.016,0,2.029l-5.941-.009q-.237-1.044-.473-2.091Q1899.527,460.957,1902.733,460.991Z" transform="translate(-1863.34 -354.025)" fill="#f4dcb8"/><path d="M1891.241,464.41l-6.287.1q-.007-.68-.014-1.359l6.393-.395Q1891.286,463.586,1891.241,464.41Z" transform="translate(-1865.456 -353.683)" fill="#e89187"/><path d="M1884.56,461.134l6.9-.5c-.026.42-.051.837-.076,1.257q-3.205.292-6.412.58Z" transform="translate(-1865.526 -354.079)" fill="#e89187"/><path d="M1902.733,461.2q-3.205-.034-6.412-.071.016-.617.033-1.231,2.947-.057,5.894-.119Q1902.491,460.494,1902.733,461.2Z" transform="translate(-1863.34 -354.237)" fill="#e89187"/><path d="M1896.721,462.683l5.941.009c-.018.4-.034.806-.053,1.207q-2.946.091-5.892.187C1896.719,463.619,1896.72,463.152,1896.721,462.683Z" transform="translate(-1863.266 -353.698)" fill="#e89187"/><path d="M1884.907,462.27q3.206-.29,6.412-.58c.491.414.534.836.019,1.268l-6.393.4Q1884.925,462.813,1884.907,462.27Z" transform="translate(-1865.461 -353.882)" fill="#f4dcb8"/><path d="M1902.014,480.794l.655.216Z" transform="translate(-1862.281 -350.331)" fill="#516256"/><path d="M1898.742,403.81c.235.414.471.829.7,1.245q.183.359.367.719a.3.3,0,0,1,.121.3l.249.713c.853,3.236.1,5.567-2.416,7.473-3.017,2.286-5.908,2.452-9,.516a7.391,7.391,0,0,1-3.188-7.564,11.848,11.848,0,0,1,.708-2.381c1.006-2.511,2.681-3.553,5.525-3.507.022.292.046.585.069.876l-.417.26-1.005.536.038,0c-1.529-.307-.473.779-.647,1.2-.1.314-.205.625-.286.943a3.65,3.65,0,0,0,6.689,2.809,4.388,4.388,0,0,0-.328-5.026l1.85-.111.013.007Z" transform="translate(-1865.358 -365.105)" fill="#fbf6ee"/><path d="M1881.257,414.612c1.39,1.281,2.693,2.616,4.138,3.777a4.319,4.319,0,0,0,5.108.4,5.579,5.579,0,0,1,5.83.146c3.251,1.742,7.712.278,9.667-3.463.262-.5.5-1.013.761-1.513.024-.044.146-.034.411-.089.73,1.42-.138,2.524-.917,3.451-3.254,3.871-6.4,5.058-11.381,2.892a3.866,3.866,0,0,0-3.769-.027c-2.188,1.561-4.181.735-6.036-.218C1882.961,418.882,1881.151,417.312,1881.257,414.612Z" transform="translate(-1866.141 -362.772)" fill="#f4dcb8"/><path d="M1896.779,402.819l-1.85.112c-1.231-.9-2.653-.722-4.044-.72-.023-.292-.046-.585-.069-.876C1892.948,401.253,1895.169,400.813,1896.779,402.819Z" transform="translate(-1864.363 -365.12)" fill="#f4dcb8"/><path d="M1896.81,403.576l-.955-1Z" transform="translate(-1863.426 -364.871)" fill="#f4dcb8"/><path d="M1897.622,405.188q-.185-.359-.367-.719Q1897.439,404.827,1897.622,405.188Z" transform="translate(-1863.166 -364.519)" fill="#f4dcb8"/><path d="M1898.024,457.69l-.348-.2A.321.321,0,0,1,1898.024,457.69Z" transform="translate(-1863.088 -354.664)" fill="#f4dcb8"/><path d="M1897.915,406.037l-.249-.713Q1897.791,405.68,1897.915,406.037Z" transform="translate(-1863.089 -364.36)" fill="#f4dcb8"/><path d="M1903.939,475.914c-.553.008-1.105.008-1.657.028-1.022.038-1.427-.494-1.379-1.459C1902.384,473.965,1903.175,474.909,1903.939,475.914Z" transform="translate(-1862.489 -351.531)" fill="#516256"/><path d="M1904.345,476.588l-.512-.407Z" transform="translate(-1861.943 -351.188)" fill="#516256"/><path d="M1900.142,474.482l-.491-.006Z" transform="translate(-1862.72 -351.505)" fill="#516256"/><path d="M1891.26,402.06c1.391,0,2.813-.178,4.044.72a4.388,4.388,0,0,1,.328,5.026,3.65,3.65,0,0,1-6.689-2.809c.081-.318.19-.629.285-.942q.324-.6.649-1.2l-.038,0q.5-.269,1.005-.536Z" transform="translate(-1864.738 -364.97)" fill="#516256"/><path d="M1889.839,402.733q-.324.6-.649,1.2C1889.366,403.513,1888.311,402.426,1889.839,402.733Z" transform="translate(-1864.701 -364.852)" fill="#f4dcb8"/><path d="M1890.681,402.277q-.5.267-1.005.536Z" transform="translate(-1864.575 -364.927)" fill="#f4dcb8"/></svg>