<svg xmlns="http://www.w3.org/2000/svg" width="102.496" height="131.87" viewBox="0 0 102.496 131.87"><path d="M1425.16,369.094l-.5.8-1.307-.35-2.012,2.208c-1.289-.5-1.154,1.217-2.162,1.13l.916,1.082a45.75,45.75,0,0,1-4.392,2.024,2.413,2.413,0,0,1-2.984-.66c-.734-1.072-.193-2.1.427-3.036a7.333,7.333,0,0,1,1.034-1.256c3.751-3.57,7.562-7.078,11.253-10.71a22.68,22.68,0,0,0,3.549-4.415c2.657-4.431,4.975-9.071,7.764-13.412,1.435-2.232,1.176-4.538,1.459-6.866.435-3.58.788-7.174,1.385-10.728.672-4.008,1.576-7.977,2.379-11.962l2.4.2,2.35.926.543.122,1.228.157a13.556,13.556,0,0,0,1.631.133,108.9,108.9,0,0,0,15.029-1.3c5.235-.92,10.49-1.691,15.538-3.432l3.11.871c.461,1.208-1.763.439-1.613,1.385,1.243,1.277,3.362,1.7,2.729,4.071-.032.119.255.3.32.475.15.409.247.836.38,1.251a10.646,10.646,0,0,0,.5,1.422,16.262,16.262,0,0,0,1,1.713,8.788,8.788,0,0,0,.724.865q.081.53.164,1.059l-.394,3.335.765-.6.191-.059.1,1.621c-.473.513-.358.924.219,1.254l.029.8c-.026.045-.082.1-.072.131a1.682,1.682,0,0,0,.126.261q.254,1.641.508,3.283c-1.159,1.011-1.071,1.907.328,3.329l.043.813c-.186.466-.571.957-.516,1.393a14.656,14.656,0,0,0,.689,2.414c-.721.84-1.734,1.457-1.53,2.8.675-.38,1.236-.932,1.814-.951.535-.017,1.088.537,1.677.864a11.993,11.993,0,0,1,.914-1.1c1.069-1.011,2.424-1.832,3.181-3.033a3.142,3.142,0,0,1,3.117-1.7c.368-1.238,1.033-1.8,2.309-1.38.3.1.729-.161,1.1-.257l0-.563c-.6-.095-1.283-.416-1.79-.239a1.779,1.779,0,0,1-2.357-.934l1.386-1.87,1.588,1.163c.652-.659.6-.653.465-1.66a2.239,2.239,0,0,1,.243-1.261c1.77-.071,1.9-1.645,2.277-2.707.513-1.435,1.408-2.879.887-4.545l.331-.834c1.524-.778,1.646-1.078,1.071-2.644a.292.292,0,0,1,.117-.251,2.306,2.306,0,0,0,2.53-1.145,23.779,23.779,0,0,1,2.409-3.081l-1.208-1.49.322-.329c2.532-.011,3.406.591,3.994,2.745-1.415,2.106-1.714,4.6-2.445,6.952a59.048,59.048,0,0,1-7.139,13.288c-1.636,2.335-3.561,4.466-5.211,6.791a25.971,25.971,0,0,1-6.883,6.27,1.967,1.967,0,0,0-.943,2.236c.576,3.218,1.193,6.431,1.686,9.663.638,4.184,1.208,8.379,1.741,12.578.48,3.786.89,7.582,1.291,11.379a20.067,20.067,0,0,1,.107,3.278,4.491,4.491,0,0,1-3.943,4.519,12.849,12.849,0,0,0-3.883,1.135,6.723,6.723,0,0,1-2.8.347c-.8.048-1.611.01-2.646.01l.512,3c-1.125.12-2.25.254-3.377.356-1.436.131-2.874.236-4.311.352l-.281-.765c-.021-.189-.041-.378-.062-.567l.563-1.034c1.635,1.164,2.859.984,5.247-.856-1.511-.144-2.767-.32-4.026-.352-.42-.011-.835.407-1.28.512a2.657,2.657,0,0,1-.937-.128l-1.873-.746c-1.2-.916-2.444-.65-3.7-.159l-.867-.044-.817.154-2.245.442-1.4.4.032-.017c-1.624-.105-3.248-.227-4.873-.291-.175-.007-.362.325-.544.5a.438.438,0,0,1-.3.191,23.4,23.4,0,0,0-3.023-.354c-1.6.012-3.354-.517-4.6,1.155-.163.218-.932-.015-1.42-.039a.284.284,0,0,1,.013-.371l.541-.682c-.438-.28-.853-.716-1.321-.783-.3-.043-.679.458-1.023.714l-1.212.213c-1.427.027-2.854.052-4.281.087-.049,0-.1.091-.144.14l-1.651-.036a1.848,1.848,0,0,0-2-1.845c.105-1.117.271-2.1.272-3.091,0-1.178.433-1.81,1.669-1.735l.415.832-1.558.585c1.234.6,1.234.6,1.546-.593l.412-.823.964,1.178c1.058-1.03,1.616-2.027,1.063-3.354-.035-.084-.141-.137-.24-.229l-.275,1.2-.853-1.213c-.266.99-.459,1.706-.652,2.422l-.832,0c.027-.928-.246-1.561-1.331-1.647a16.6,16.6,0,0,1-2.172-.456q-.008-.373-.014-.744a2.845,2.845,0,0,0,1.264-3.178l-1.284.225-.006-.781,1.6-.453c.026-1.393-1.232-2.326-.66-3.644.042-.095-.747-.55-1.149-.838l.052-.8q0-.217,0-.434-.042-1.158-.084-2.315,0-.548,0-1.094a.35.35,0,0,1,.029-.3l1.328,1.347c.283-.631.565-1.2.8-1.785.962-2.457,0-4.954.1-7.435a45.816,45.816,0,0,0-.509-4.842c-.1-1.5-.129-2.955-1.314-4.14-.3-.3-.194-1.017-.276-1.544.312-.188.625-.374.938-.561l-.277-.373-.789.8c-1.354.465-1.767,1.791-2.551,2.78a36.394,36.394,0,0,1-4.268,5.157,4.165,4.165,0,0,0-1.528,2.466,7.77,7.77,0,0,0-1.925.906c-.944.847-1.756,1.841-2.718,2.877Zm38.517,2.017-.08.137.076-.141.082-.136Zm10.267,3.692-.024.8a6.943,6.943,0,0,0-1.436.921,3.79,3.79,0,0,1-3.111,1.579,9.607,9.607,0,0,1,1.7-3.712l.408.012c.128.628.657.637.66.136a3.755,3.755,0,0,1,1.242-2.684,4.591,4.591,0,0,0,.588-1.654l1.2-.079,1.6,1.634c.143.869-.889,2.208.912,2.558l1.078-3.008-3-1.52,1.817-2.012-.294-.333c-1.294.519-2.108,1.755-3.256,2.491l-3.936,2.044c-.053.678-.061.663-.7,1.013a1.313,1.313,0,0,0-.435.474,10.326,10.326,0,0,1-.7,1.23c-.9,1.1-1.868,2.148-2.771,3.247a1.077,1.077,0,0,0-.145.779c.183,1.05-.6,1.389-1.269,1.824h-1l-.033.264,1.062.152c1.853.29,2.93-.974,4.1-2.046l1.085,1.358-.833,1.315c1.527.593,1.537.59,2.222-.662a1.91,1.91,0,0,1,2.615-1.1c.884.305,1.729.725,2.612,1.035.688.241,1.432.59,2.087-.335-.106-.885-.223-1.863-.34-2.841.2-.018.491.036.568-.069a3.784,3.784,0,0,0,.531-1.067c.019-.061-.363-.25-.559-.381a8.723,8.723,0,0,0-.521.936,1.653,1.653,0,0,0-.015.585c-.638.129-1.644.054-1.849.422-.875,1.581-1.995.951-3.417.579l1.568-2.649q.21-.615.421-1.228l.508-.605a1.873,1.873,0,0,0-.707.068C1474.041,374.341,1474.017,374.618,1473.943,374.8Zm4.527,6.993c-.995.236-1.217.883-1.055,1.91,1.257-.275,1.025-1.162,1.053-1.913l.081-.137Zm.8,6.708c.772,1.384,1.037,1.412,2.09.222l1.837-.458-1.05-.465-.893-.191-1.129.131-.192-1.706c-.825,0-1.426.05-2.015-.01-1.54-.157-3.075-.364-4.614-.551l-.608-2.011.819-.9c.538-.036.976-.128.435-.772-.072-.691-.488-.885-1.108-.748-.825.182-.924.836-.963,1.522l-.447,1.268h-2.137c-.17,1.667.739,2.629,1.188,3.775.517,1.319,1.1,1.754,2.379,1.468l.5-.027c1.2.169,2.4.345,3.6.5.818.109,1.531.038,1.521-1.057ZM1468.6,322.961l-1.133-.149-.128-1.027a1.966,1.966,0,0,0,2.147-1.289l-.936-.574.468-2.241,0,0c.248-.247.578-.461.7-.76.047-.114-.406-.633-.585-.609-.95.122-2.166-.486-2.611.946-1.408-1.02-2.563-.86-3.265.353a6.824,6.824,0,0,0-2.666,2.108c-1.413,2.368-.468,5.408,2.027,5.954a8.165,8.165,0,0,0,2.558-.274c.641.226,1.039,1.138,2.015.645.195-.74.495-1.517-.7-1.8q.508-.706,1.018-1.412l1.1,1.426c.419,1.051.806,2.117,1.284,3.141.106.229.528.313.877.5l-.908-3.642c.536-.6.1-.734-.4-.841Zm-2.623,43.782c-.229,1.265.445,1.733,1.385,2l1.241-1.7c-.9-1.077-1.783-.393-2.3,1.151-.3.064-.516.061-.538.125a1.626,1.626,0,0,0-.014.518C1465.91,368.658,1466.064,368.479,1465.978,366.742Zm8.583-6.325a8.158,8.158,0,0,0-1.246-3.7c-.649,1.875.221,3.389.225,4.94l-2.2.548a16.18,16.18,0,0,0-.987,1.517c-.185.382-.48.941-.335,1.21.363.676.944.255,1.386-.028a3.638,3.638,0,0,0,.695-.726c.532-.614,1.055-1.234,1.583-1.853,1.087-.025.741-.892.869-1.48Zm-8.418-25.047-.024-.023.754,1.069a4.808,4.808,0,0,0,1.048-.825,5.028,5.028,0,0,0,.5-1.249l2.809-.27c1.07.8,1.27,2.313,2.939,2.554a13.589,13.589,0,0,0,.7-2.28,2.3,2.3,0,0,1,2.071-2.3,3.053,3.053,0,0,1,.417.222c.565.436,1.061,1.4,1.858.8a2.815,2.815,0,0,0,.857-1.916c.1-1.812-.036-3.615,1.244-5.169.422-.512.553-1.31-.682-1.654a17.355,17.355,0,0,0-1.025,1.872c-1.936,4.786-5.973,6.366-10.617,6.617-1.981.107-4.008-.658-6.017-1.013-.408-.072-.828-.083-1.623-.157.474.633.644,1.118.934,1.207A8.8,8.8,0,0,1,1466.143,335.37Zm21.751,39.854c.145-.411.291-.822.433-1.234s.284-.832.425-1.248c1.672-.375,1.912-.742,1.8-2.259-.085-1.184-.017-2.379-.017-3.815l-1.779-.881c-1.581.874-2.9-.036-4.248-.754a22.28,22.28,0,0,0-1.635,2.227,3.158,3.158,0,0,0-.382,1.653c.09,1.579.157,1.644-1.442,2.162-1.053.342-1.233.746-.8,1.784.24.568-.075,1.368-.154,2.232.607.38.817.952.4,1.923-.923,2.174-.554,4.413-.118,6.734l2.672-1.151-.935-2.372,1.633.147c-.154,1.015-.27,1.77-.384,2.527.421-.43.523-1.22.829-1.31,2.09-.611,2.132-2.21,2.079-3.9Zm-16.833-55.793c-.145,2.706.871,4.337,2.752,4.837a4.163,4.163,0,0,0,4.786-2.183,6.077,6.077,0,0,0,.808-2.5,4.164,4.164,0,0,0-1.609-3.749,3.894,3.894,0,0,0-4.069-.409A4,4,0,0,0,1471.062,319.431ZM1456.5,385l-.578,1.883,3.433.57c-.215-.691-.363-1.166-.525-1.686a1.98,1.98,0,0,1,2.62.649c.268-1.606,2.266-2.58,1.031-4.447a5.469,5.469,0,0,0-.7-.154c-1.239-.127-2.639.335-3.543-.99-1,.359-2.183-.81-3.361.513l3.016,1.753-2.488.709Zm-9.205-41.6c.641,2.055-.665,4.373,1.8,6.225,0-.928.195-1.548-.033-1.862-1.179-1.622-.363-3.457-.65-5.162-.018-.109.366-.286.566-.433l.769,1.512.341-.12v-2.949l-2.135.719-.194-1.6-.364.037v2.99l-2.431-.467C1445.075,343.946,1446.276,343.477,1447.3,343.4Zm42.27,17.984c.778-2.945-.033-6.524-1.533-7.274C1487.761,356.271,1488.5,360.032,1489.569,361.388Zm-43.725-35.8-.485-.025c-.491.783-.739,2.944-.525,5.264a7.65,7.65,0,0,0,.495,1.579c.579-.363.9-.7.885-1.022C1446.133,329.454,1445.976,327.523,1445.844,325.591Zm-4.284,22.625a8.959,8.959,0,0,0,.584,6.406A8.011,8.011,0,0,0,1441.56,348.216ZM1458.8,374.8c-.3-2.155-.071-4.281-1.532-6.067-.6,1.7.166,3.314.247,4.96C1457.547,374.247,1457.647,374.785,1458.8,374.8Zm-11.193,6.581.506-.208c-.119-1.129-.161-2.273-.381-3.382-.2-1,.423-2.295-1.222-3.223a38.85,38.85,0,0,0,.471,6.446C1447.012,381.169,1447.394,381.26,1447.611,381.382Zm6.887-34.924-.612.253c.484,1.836.969,3.672,1.478,5.6a1.282,1.282,0,0,0,.854-1.816C1455.779,349.1,1455.933,347.39,1454.5,346.458Zm17.313-2.111-.584.372c1.107,1.828,2.191,3.67,3.355,5.461.12.184.717.057,1.093.075l.217-.445C1473.131,349.013,1473.794,345.712,1471.81,344.347Zm14.86-4.818.364-.161c-.194-1.506-.359-3.017-.611-4.513-.036-.215-.488-.359-.748-.536-.192.316-.584.66-.544.944a29.461,29.461,0,0,0,.75,3.6C1485.956,339.133,1486.4,339.309,1486.67,339.529Zm-7.2,7.332.148-.766c-1.9.474-1.454-2.247-3.3-1.975-.648,1.135.185,2.027.423,3.26Zm-23.1,6.192c-.458.307-1.068.494-1.138.8a5.071,5.071,0,0,0,.2,3.62A3.963,3.963,0,0,0,1456.37,353.053Zm25.048-8.933a4.036,4.036,0,0,0-.86-4.508C1480.723,341.306,1479.545,342.816,1481.418,344.12Zm10.182,3.328c1.145-.189,2.258-.226,2.15-1.371-.1-1.107-1.076-.924-2.022-.642C1491.69,346.04,1491.653,346.617,1491.6,347.448Zm-6.534,1.2c-.06-1.41.075-2.867-1.042-4.226A4.381,4.381,0,0,0,1485.066,348.652ZM1448.941,336.9l-.6-2.383c-1.627.581-.626,1.593-.721,2.494Zm6.745-10.507c.414.464.649.947.909.96.278.015.678-.358.846-.661a7.634,7.634,0,0,0,.421-1.623Zm8.862,50.094c-1.461-.466-1.461-.466-2.245,1.02A1.7,1.7,0,0,0,1464.548,376.491Zm-13.886-25.677c1.1-1.644,1.075-1.753-.639-3.617C1450.246,348.461,1450.43,349.5,1450.662,350.813Zm-6.18,43.554.24.484,2.543-.727-.113-.385C1446.237,393.858,1445.116,393.192,1444.482,394.368Zm24.612-24.28-1.242,1.438C1469.312,371.91,1469.314,371.909,1469.093,370.088Zm-6.683,18.2c-1.389-.963-1.509-.952-2.2,0Zm9.652,3.647c.86.1,1.509.352,2.187-.328C1473.111,391.28,1473.111,391.28,1472.062,391.936Zm-7.158-21.214.6.237.488-1.211-.458-.216ZM1440.5,391.946h-.563l.146,1.407.417-.025Zm5.932-53.691-.486-.314c-.5.237-.879.53-.4,1.511Zm39.024,54.7c.775.507,1.187.308,1.453-.275.051-.112-.113-.322-.232-.627ZM1439.844,386l-.314.409.832.475.185-.259Zm6.593,4.647-.432-.4c-.115.13-.318.259-.319.391s.2.262.315.393Zm19.129-15.014.339-.441c-.14-.094-.287-.27-.419-.26s-.24.211-.36.329Zm19.6-56.249c-.368-.323-.51-.544-.642-.537s-.379.274-.353.363a.677.677,0,0,0,.4.415C1484.716,319.66,1484.912,319.493,1485.162,319.382ZM1445.8,335.9l-.3.462c.118.052.284.179.345.141a1.784,1.784,0,0,0,.357-.4Zm39.047,52.362-.305-.133c-.044.1-.145.226-.115.3s.187.1.289.14Q1484.779,388.418,1484.844,388.265Zm-40.907,3.326.064-.294-.654-.076c0,.062-.021.17,0,.177C1443.539,391.471,1443.739,391.528,1443.937,391.591Zm19.972-6.755-.081-.289c-.056.017-.146.018-.161.052a1.451,1.451,0,0,0-.063.293Zm5.785-18.64a1.282,1.282,0,0,0-.257-.12c-.025-.006-.115.1-.1.123a1.169,1.169,0,0,0,.149.231C1469.552,366.353,1469.622,366.275,1469.693,366.2Zm-25.041,26.3-.074-.135c-.034.038-.09.073-.094.115s.043.089.068.133Z" transform="translate(-1412.364 -287.235)" fill="#f7d37b"/><path d="M1460.521,308.071l-2.4-.2c-.845-.813-1.656-1.628-.941-2.95a1.226,1.226,0,0,0,.013-.607c-.235-3.27.855-4.459,4.071-4.43l2.13.431-.032-.019,1.271.373a7.777,7.777,0,0,0,1.554.465,35.713,35.713,0,0,0,9.985-.234c3.076-.6,6.151-1.243,9.255-1.658a18.375,18.375,0,0,0,5.508-1.411l5.133-2.057a6.276,6.276,0,0,1,1.42.612c2.214,1.693,2.563,4.106,2.468,6.671l-.9.39-.045.044-2.176,1.19c-5.049,1.741-10.3,2.512-15.538,3.433a108.9,108.9,0,0,1-15.029,1.3,13.545,13.545,0,0,1-1.63-.133c-.31-.829-.711-.951-1.229-.157l-.543-.122c-.172-1.091-1.1-1.233-1.917-1.473C1460.871,307.5,1460.668,307.879,1460.521,308.071Z" transform="translate(-1428.519 -282.166)" fill="#b1c1b1"/><path d="M1495.324,291.3a18.375,18.375,0,0,1-5.508,1.411c-3.1.414-6.179,1.053-9.255,1.658a35.712,35.712,0,0,1-9.985.234,7.773,7.773,0,0,1-1.555-.465,1.417,1.417,0,0,0-.017-.312c3.4-1.544,3.736-3.331,1.109-5.928a3.492,3.492,0,0,1-.252-.314c.271-.606.384-1.53.843-1.76,1.425-.713,1.382-1.977,1.569-3.2l-.008.005c.67.044,1.28.017,1.1-.937l.061-.064c1.628.565,1.937.378,2.188-1.331l2.041-1.269c.11.245.321.493.315.735a2.319,2.319,0,0,0,2.049,2.547,6.034,6.034,0,0,1,1.269.684c.114-1.231.21-2.261.3-3.273-.141-.1-.256-.252-.355-.242-.789.084-1.575.2-2.362.3l-.009-.009.872-1.346c1.4-.868,2.968-.621,4.493-.641l1.621.052a17.214,17.214,0,0,1,9.573,4.1c-.307.6-.606,1.206-.92,1.8-.476.9-1.037,1.77-1.426,2.709a2.559,2.559,0,0,0,1.2,3.481c.349.213.733.366,1.1.547Q1495.35,290.9,1495.324,291.3Zm-10.725-6.72a4.972,4.972,0,0,0-1.378-4.77C1483.337,281.644,1483.192,283.247,1484.6,284.582Zm-6.741,1.227c-1.506,1.329-.985,2.826-1.132,4.117-.052.454.284,1.083,1.132.8Zm-1.247-2.5-.526.071.2,1.093.327-.045Z" transform="translate(-1432.907 -275.638)" fill="#f7d37b"/><path d="M1466.964,463.891a15.168,15.168,0,0,0,2.726,5.661,5.224,5.224,0,0,1,.848,2.277,1.542,1.542,0,0,1-2.022,1.789,7.324,7.324,0,0,1-1.31-.576,29.362,29.362,0,0,1-8.555-6.559,2.517,2.517,0,0,1-.677-2.972c.64-1.314,1.212-2.749,2.805-3.272Z" transform="translate(-1428.817 -341.815)" fill="#e89187"/><path d="M1523,462.582c.587.447,1.361.779,1.721,1.366a6.672,6.672,0,0,0,3.187,2.424,6.316,6.316,0,0,1,1.817,1.233c.983,1,.678,2.185-.689,2.392a24.165,24.165,0,0,1-4.631.184c-1.76-.076-3.508-.4-5.267-.516a3.529,3.529,0,0,1-3.448-2.661c-.374-1.228-.562-2.51-.832-3.77Z" transform="translate(-1449.536 -342.665)" fill="#e89187"/><path d="M1465.248,288.518a3.519,3.519,0,0,0,.252.314c2.627,2.6,2.292,4.384-1.109,5.928l-1.255-.061.033.019a2.03,2.03,0,0,0-2.059-1.159,15.4,15.4,0,0,1-3.894-5.432,12.851,12.851,0,0,1-.742-7,3.293,3.293,0,0,1,.41-.784c1.209.4,1.356,1.532,1.751,2.377a9.309,9.309,0,0,0,3.317,4.041,19.087,19.087,0,0,0,2.345,1.126Z" transform="translate(-1428.292 -276.569)" fill="#eaa420"/><path d="M1508.925,289.276c-.368-.181-.752-.335-1.1-.547a2.559,2.559,0,0,1-1.2-3.481c.389-.939.95-1.806,1.426-2.709.314-.6.613-1.2.92-1.8.964-1.607,1.9-3.23,2.9-4.814a13.548,13.548,0,0,1,1.268-1.5l.013.02.652.433-.018-.025a4.473,4.473,0,0,0,.093,1.188,11.507,11.507,0,0,1-.274,9.471,6.924,6.924,0,0,0-.351,1.166C1511.941,287.75,1510.879,289.256,1508.925,289.276Z" transform="translate(-1446.455 -274.422)" fill="#eaa420"/><path d="M1444.249,379.632c.081.526-.028,1.24.275,1.543,1.186,1.185,1.212,2.638,1.314,4.14a45.783,45.783,0,0,1,.509,4.842c-.1,2.481.86,4.978-.1,7.435-.23.588-.512,1.154-.8,1.785l-1.328-1.347c-.083-1.419-.235-2.839-.237-4.259-.006-3.395.06-6.791.086-10.186a2.777,2.777,0,0,0-.167-.639c-1.066.038-1.421.889-1.96,1.558a55.656,55.656,0,0,1-9.876,9.887l-.835-.707c.962-1.036,1.774-2.03,2.718-2.877a7.764,7.764,0,0,1,1.925-.906,4.165,4.165,0,0,1,1.527-2.466,36.406,36.406,0,0,0,4.268-5.156c.784-.989,1.2-2.315,2.551-2.78Z" transform="translate(-1419.171 -312.532)" fill="#f7d37b"/><path d="M1468.7,460.726l-6.185-3.652a20.41,20.41,0,0,1,3.951-5.562q2.765,1.95,5.533,3.9Z" transform="translate(-1430.553 -338.65)" fill="#b1c1b1"/><path d="M1522.664,459.463l-8.142.652q-.293-2.673-.586-5.348c2.488-.363,5.07.17,7.5-.785.313,1.1.662,2.19.925,3.3C1522.524,458,1522.566,458.736,1522.664,459.463Z" transform="translate(-1449.202 -339.546)" fill="#b1c1b1"/><path d="M1471.74,445.314c.488.024,1.258.257,1.42.039,1.246-1.672,3-1.143,4.6-1.155a23.391,23.391,0,0,1,3.023.354l-2.62,4.631a1.808,1.808,0,0,1-.6-.087q-2.911-1.579-5.794-3.209C1471.681,445.836,1471.747,445.511,1471.74,445.314Z" transform="translate(-1433.893 -335.972)" fill="#f7d37b"/><path d="M1451.9,431.109a16.6,16.6,0,0,0,2.172.456c1.085.087,1.358.72,1.331,1.647l.01-.011c-1.237-.075-1.67.558-1.67,1.735,0,.987-.167,1.974-.272,3.091a1.849,1.849,0,0,1,2,1.845c-2.264-.278-3.071-.857-3.34-2.96C1451.889,435,1451.965,433.045,1451.9,431.109Z" transform="translate(-1426.703 -331.25)" fill="#f7d37b"/><path d="M1473.941,454.148q-2.767-1.948-5.533-3.9c-.546-.781-.937-1.551.157-2.217l7.276,5.041C1475.619,454.162,1474.655,453.933,1473.941,454.148Z" transform="translate(-1432.494 -337.389)" fill="#eaa420"/><path d="M1476.237,451.895l-7.276-5.04,1.3-2.073.488.4a.284.284,0,0,0-.013.371c.007.2-.059.522.032.573q2.879,1.637,5.794,3.209a1.808,1.808,0,0,0,.6.087C1477.292,450.409,1477.258,451.336,1476.237,451.895Z" transform="translate(-1432.891 -336.209)" fill="#b1c1b1"/><path d="M1520.822,452.829c-2.426.955-5.007.423-7.5.785-.855-.145-.868-.888-1.069-1.5l8.991-1.312Z" transform="translate(-1448.594 -338.393)" fill="#eaa420"/><path d="M1521.249,449.794l-8.991,1.312q.194-1.249.386-2.5a.2.2,0,0,0,.2.126c1.437-.116,2.875-.222,4.311-.352,1.127-.1,2.252-.236,3.377-.356A1.67,1.67,0,0,1,1521.249,449.794Z" transform="translate(-1448.594 -337.385)" fill="#b1c1b1"/><path d="M1511.964,443.909a2.657,2.657,0,0,0,.938.128c.445-.105.86-.523,1.28-.512,1.259.033,2.515.208,4.026.353-2.388,1.84-3.612,2.02-5.247.856l-.563,1.034Q1512.18,444.839,1511.964,443.909Z" transform="translate(-1448.488 -335.753)" fill="#f7d37b"/><path d="M1451.382,416.337c.4.288,1.19.743,1.149.838-.572,1.318.686,2.252.66,3.644l-1.6.453A9.424,9.424,0,0,1,1451.382,416.337Z" transform="translate(-1426.434 -325.893)" fill="#f7d37b"/><path d="M1423.972,407.987l-.916-1.082c1.008.087.873-1.633,2.162-1.13l2.012-2.208,1.306.35Z" transform="translate(-1416.242 -321.261)" fill="#f7d37b"/><path d="M1469.809,290.349l-.952-.632c.867-1.639,1.632-3.359,3.365-4.327-.187,1.222-.144,2.486-1.569,3.2C1470.193,288.819,1470.08,289.743,1469.809,290.349Z" transform="translate(-1432.853 -278.4)" fill="#f7d37b"/><path d="M1451.848,425.179l1.283-.225a2.845,2.845,0,0,1-1.264,3.178Q1451.857,426.655,1451.848,425.179Z" transform="translate(-1426.684 -329.018)" fill="#f7d37b"/><path d="M1486.4,444.21c.182-.175.369-.507.544-.5,1.626.064,3.249.185,4.873.291C1490.047,444.949,1488.224,444.558,1486.4,444.21Z" transform="translate(-1439.217 -335.82)" fill="#f7d37b"/><path d="M1460.095,444.789c.049-.048.095-.138.144-.14,1.427-.034,2.855-.06,4.281-.087A4.164,4.164,0,0,1,1460.095,444.789Z" transform="translate(-1429.675 -336.13)" fill="#f7d37b"/><path d="M1503.217,442.451c1.257-.491,2.5-.756,3.7.159Z" transform="translate(-1445.315 -335.201)" fill="#f7d37b"/><path d="M1470.743,444.572l-.488-.4-1.315-.352c.344-.257.723-.758,1.023-.714.469.067.883.5,1.321.783Z" transform="translate(-1432.883 -335.601)" fill="#f7d37b"/><path d="M1463.817,301.075a2.03,2.03,0,0,1,2.059,1.159l-2.131-.431C1463.769,301.56,1463.793,301.318,1463.817,301.075Z" transform="translate(-1430.999 -284.085)" fill="#f7d37b"/><path d="M1500.575,442.791l.817-.154Z" transform="translate(-1444.357 -335.431)" fill="#f7d37b"/><path d="M1494.851,443.968l1.4-.4Z" transform="translate(-1442.281 -335.77)" fill="#f7d37b"/><path d="M1451.465,409.044q0,.547,0,1.094Q1451.463,409.591,1451.465,409.044Z" transform="translate(-1426.544 -323.248)" fill="#f7d37b"/><path d="M1451.545,414.394q0,.217,0,.434a1.958,1.958,0,0,1-.083-.3C1451.455,414.488,1451.515,414.439,1451.545,414.394Z" transform="translate(-1426.543 -325.188)" fill="#f7d37b"/><path d="M1513.021,448.7a.2.2,0,0,1-.2-.126q-.039-.319-.079-.639Q1512.88,448.316,1513.021,448.7Z" transform="translate(-1448.769 -337.352)" fill="#f7d37b"/><path d="M1524.731,409.148c.053,1.691.011,3.291-2.079,3.9-.307.089-.409.88-.829,1.31.115-.757.23-1.512.384-2.527l-1.633-.147.936,2.372-2.672,1.151c-.437-2.32-.806-4.559.118-6.734.412-.972.2-1.544-.4-1.923.08-.864.394-1.664.154-2.232-.438-1.038-.258-1.442.8-1.784,1.6-.519,1.532-.584,1.442-2.162a3.159,3.159,0,0,1,.382-1.653,22.3,22.3,0,0,1,1.635-2.227c1.345.718,2.667,1.628,4.248.753.122.382.227.771.37,1.144a5.119,5.119,0,0,1-.133,4.647,3.834,3.834,0,0,0-.243,1.165c-.141.416-.281.833-.425,1.248s-.289.823-.433,1.234c-1.524-.336-.339-1.224-.375-1.892l-1.955-.98c.1,1.81.167,3.371.279,4.93C1524.3,408.888,1524.579,409.014,1524.731,409.148Zm-4.93.659c-.356.834-.166,1.232.87,1.182Z" transform="translate(-1450.815 -318.695)" fill="#f7d37b"/><path d="M1504.456,322.439a4,4,0,0,1,2.668-4,3.894,3.894,0,0,1,4.069.409,4.164,4.164,0,0,1,1.609,3.749,6.075,6.075,0,0,1-.808,2.5,4.163,4.163,0,0,1-4.786,2.183C1505.326,326.776,1504.311,325.145,1504.456,322.439Zm4.336,1.642c-1.339-2.07-1.339-2.07-2.5-2.568.539,1.225.927,2.211,1.4,3.152a1,1,0,0,0,1.563.393,4.667,4.667,0,0,0,1.035-1.878c.227-.633.613-1.4-.5-2.032Z" transform="translate(-1445.758 -290.243)" fill="#fbf6ee"/><path d="M1494.019,343.667a8.805,8.805,0,0,0-3.862-2.516c-.29-.089-.461-.574-.934-1.207.794.075,1.214.085,1.622.157,2.009.355,4.036,1.12,6.017,1.013,4.644-.252,8.681-1.831,10.617-6.617a17.338,17.338,0,0,1,1.026-1.872c1.235.344,1.1,1.142.682,1.654-1.28,1.554-1.145,3.357-1.244,5.169a2.814,2.814,0,0,1-.857,1.916c-.8.6-1.292-.366-1.858-.8a3.048,3.048,0,0,0-.417-.222,2.3,2.3,0,0,0-2.071,2.3,13.588,13.588,0,0,1-.7,2.28c-1.669-.24-1.869-1.757-2.939-2.554l-2.809.27a5.023,5.023,0,0,1-.5,1.249,4.808,4.808,0,0,1-1.048.825l-.754-1.069c.594.016.906-.254.789-.859-.025-.127-.267-.211-.41-.315-.112.331-.226.662-.334.995A.956.956,0,0,0,1494.019,343.667Zm6.3-1.567,1.282,1.712c.107-1,.161-1.518.235-2.209Zm6.377-1.768v-1.845C1505.6,339.438,1505.6,339.438,1506.694,340.332Z" transform="translate(-1440.239 -295.531)" fill="#fbfbed"/><path d="M1494.577,327.308l-1.016,1.412-1.316,1.159a8.164,8.164,0,0,1-2.557.274c-2.5-.546-3.44-3.586-2.027-5.954a6.824,6.824,0,0,1,2.666-2.108c3.053.389,3.844,1.2,4.083,4.171q.064.513.129,1.027Zm-5.051-1.476c-.164,1.038-.19,2.057.821,2.294a1.714,1.714,0,0,0,1.476-.751c.285-.632,1.189-1.451.01-2.338l-1.058,1.834Z" transform="translate(-1439.434 -291.711)" fill="#fbf6ee"/><path d="M1533.134,351.021l1.174,4.637a37.238,37.238,0,0,0,5.59-5.448,21.825,21.825,0,0,1,1.847-1.874,1.779,1.779,0,0,0,2.358.934c.507-.177,1.188.144,1.79.239l0,.563c-.37.1-.795.358-1.1.257-1.276-.423-1.941.141-2.309,1.38a3.142,3.142,0,0,0-3.117,1.7c-.758,1.2-2.112,2.022-3.181,3.033a11.977,11.977,0,0,0-.914,1.1c-.589-.327-1.143-.881-1.677-.864-.578.018-1.139.571-1.814.951-.2-1.345.809-1.962,1.53-2.8a14.667,14.667,0,0,1-.689-2.414C1532.563,351.978,1532.948,351.487,1533.134,351.021Z" transform="translate(-1455.664 -301.23)" fill="#f7d37b"/><path d="M1480.7,425.371l-1.094-1.2,2.487-.709-3.016-1.753c1.178-1.323,2.357-.154,3.361-.513.9,1.325,2.3.864,3.543.99a5.481,5.481,0,0,1,.7.154c1.234,1.867-.764,2.841-1.031,4.447a1.98,1.98,0,0,0-2.62-.649c.162.519.31.994.525,1.686l-3.433-.57Z" transform="translate(-1436.56 -327.606)" fill="#f7d37b"/><path d="M1500.495,408.641a9.6,9.6,0,0,0-1.7,3.711l-1.176.813c-1.174,1.071-2.252,2.336-4.1,2.046-.009-.139-.017-.278-.024-.417.669-.435,1.452-.774,1.269-1.824a1.077,1.077,0,0,1,.145-.779c.9-1.1,1.868-2.147,2.771-3.246a10.324,10.324,0,0,0,.7-1.23,1.311,1.311,0,0,1,.435-.474c.642-.35.65-.335.7-1.013l3.935-2.044a1.011,1.011,0,0,1-.054.268,4.6,4.6,0,0,1-.589,1.655,3.755,3.755,0,0,0-1.242,2.684c0,.5-.532.492-.659-.136Z" transform="translate(-1441.788 -321.484)" fill="#f7d37b"/><path d="M1499.971,416.392l1.176-.813a3.787,3.787,0,0,0,3.11-1.578,6.908,6.908,0,0,1,1.436-.92c.011.145.021.289.032.433l-1.568,2.649c1.422.372,2.542,1,3.417-.579.2-.368,1.211-.293,1.849-.422l0,0,.34,2.841c-.655.925-1.4.576-2.087.335-.883-.31-1.728-.73-2.612-1.035a1.911,1.911,0,0,0-2.616,1.1c-.685,1.252-.695,1.255-2.222.662l.833-1.315Z" transform="translate(-1444.138 -324.712)" fill="#f7d37b"/><path d="M1507.983,428.569c1.537.187,3.073.393,4.612.551.589.061,1.189.01,2.015.01.065.572.129,1.139.193,1.7a6.437,6.437,0,0,0-1.126.242c-.208.082-.347.339-.517.518.01,1.095-.7,1.166-1.521,1.057-1.2-.159-2.4-.335-3.6-.5Q1508.013,430.359,1507.983,428.569Z" transform="translate(-1447.043 -330.329)" fill="#f7d37b"/><path d="M1522.683,307.2c1.116,3.5,2.254,6.985,3.333,10.492.318,1.036.468,2.122.7,3.186a8.782,8.782,0,0,1-.725-.865,16.278,16.278,0,0,1-1-1.713,10.648,10.648,0,0,1-.5-1.423c-.133-.415-.23-.843-.38-1.251-.065-.178-.352-.356-.32-.475.633-2.368-1.486-2.794-2.729-4.071-.15-.946,2.074-.177,1.613-1.385l-3.11-.871,2.176-1.19.2.155-.156-.2Z" transform="translate(-1451.245 -286.311)" fill="#f7d37b"/><path d="M1496.3,325.506c-.239-2.972-1.031-3.781-4.083-4.171.7-1.213,1.857-1.373,3.265-.353.446-1.433,1.661-.824,2.611-.946.179-.024.632.5.585.609-.123.3-.453.512-.7.76l-.138-.083.14.08-.468,2.241.936.574A1.966,1.966,0,0,1,1496.3,325.506Z" transform="translate(-1441.326 -290.956)" fill="#f7d37b"/><path d="M1465.852,360.467c-1.023.073-2.224.541-2.335-1.113l2.431.467v-2.99l.364-.037.194,1.6,2.135-.719v2.949l-.341.12-.769-1.512c-.2.147-.584.324-.566.433.287,1.706-.53,3.54.649,5.162.228.314.033.934.033,1.862C1465.187,364.839,1466.492,362.522,1465.852,360.467Z" transform="translate(-1430.916 -304.297)" fill="#f7d37b"/><path d="M1549.609,340.274c.883-1.277,1.834-2.512,2.631-3.84,1.009-1.684,1.892-3.443,2.829-5.17.521,1.666-.374,3.111-.887,4.545-.38,1.062-.507,2.637-2.277,2.707a2.238,2.238,0,0,0-.244,1.261c.136,1.007.187,1-.465,1.66Z" transform="translate(-1462.141 -295.038)" fill="#f7d37b"/><path d="M1560.561,322.16q1.535-2.7,3.072-5.41l.658-.306,1.209,1.49a23.788,23.788,0,0,0-2.409,3.081A2.306,2.306,0,0,1,1560.561,322.16Z" transform="translate(-1466.113 -289.663)" fill="#f7d37b"/><path d="M1505.245,431.241c-1.28.286-1.862-.149-2.379-1.468-.449-1.146-1.358-2.108-1.188-3.775h2.138c.1.385.4.847.28,1.142C1503.414,428.835,1504.439,430,1505.245,431.241Z" transform="translate(-1444.749 -329.396)" fill="#f7d37b"/><path d="M1532.6,386.635c-1.066-1.357-1.808-5.117-1.533-7.274C1532.567,380.112,1533.378,383.69,1532.6,386.635Z" transform="translate(-1455.395 -312.482)" fill="#fbfbed"/><path d="M1464.278,334.592c.131,1.932.289,3.863.369,5.8.013.323-.305.659-.885,1.022a7.674,7.674,0,0,1-.495-1.579c-.213-2.32.034-4.482.525-5.264Z" transform="translate(-1430.798 -296.236)" fill="#fbfbed"/><path d="M1457.995,370.106a8.011,8.011,0,0,1,.584,6.406A8.959,8.959,0,0,1,1457.995,370.106Z" transform="translate(-1428.799 -309.125)" fill="#fbfbed"/><path d="M1506.473,430.519c-.8-1.244-1.83-2.407-1.149-4.1.119-.3-.176-.757-.28-1.142l.447-1.268.817.895q.3,1.006.609,2.012.031,1.79.059,3.578Z" transform="translate(-1445.978 -328.675)" fill="#fbfbed"/><path d="M1484.231,408.367c-1.157-.016-1.257-.554-1.284-1.108-.081-1.646-.848-3.259-.247-4.96C1484.159,404.086,1483.927,406.212,1484.231,408.367Z" transform="translate(-1437.791 -320.802)" fill="#fbfbed"/><path d="M1527.936,413.314c-.152-.134-.426-.26-.436-.4-.113-1.559-.183-3.12-.279-4.93l1.955.98c.036.667-1.15,1.556.375,1.892Q1528.743,412.082,1527.936,413.314Z" transform="translate(-1454.021 -322.861)" fill="#fbfbed"/><path d="M1467.044,418.268c-.217-.121-.6-.213-.626-.368a38.837,38.837,0,0,1-.471-6.446c1.646.929,1.024,2.227,1.222,3.224.221,1.109.262,2.253.381,3.382Z" transform="translate(-1431.798 -324.122)" fill="#fbfbed"/><path d="M1478.127,367.348c1.435.932,1.281,2.641,1.72,4.04a1.282,1.282,0,0,1-.854,1.816l-1.478-5.6Z" transform="translate(-1435.994 -308.125)" fill="#fbfbed"/><path d="M1532.223,404.631a3.83,3.83,0,0,1,.243-1.165,5.119,5.119,0,0,0,.133-4.647c-.143-.373-.248-.762-.37-1.144l1.779.882c0,1.437-.068,2.631.017,3.815C1534.135,403.889,1533.9,404.255,1532.223,404.631Z" transform="translate(-1455.835 -319.124)" fill="#f7d37b"/><path d="M1511.495,403.954l3,1.52-1.078,3.008c-1.8-.35-.769-1.689-.912-2.558-.547-.558-1.076-1.1-1.6-1.633Z" transform="translate(-1448.102 -321.401)" fill="#f7d37b"/><path d="M1505.307,364.036c1.984,1.365,1.321,4.666,4.081,5.462l-.217.446c-.376-.018-.973.109-1.093-.075-1.164-1.791-2.248-3.633-3.355-5.461Zm3.085,5.582.118.081.017-.131Z" transform="translate(-1445.861 -306.924)" fill="#fbfbed"/><path d="M1528.079,353.511c-.273-.221-.715-.4-.789-.67a29.482,29.482,0,0,1-.75-3.6c-.04-.284.351-.628.543-.944.26.177.713.321.748.536.252,1.5.417,3.007.611,4.513Z" transform="translate(-1453.773 -301.217)" fill="#fbfbed"/><path d="M1506.466,391.866c-.527.618-1.05,1.239-1.582,1.853a3.641,3.641,0,0,1-.695.726c-.442.283-1.023.7-1.386.028-.145-.27.149-.828.335-1.21a16.171,16.171,0,0,1,.986-1.517l2.2-.548Z" transform="translate(-1445.151 -316.775)" fill="#f7d37b"/><path d="M1515.733,366.41l-2.731.519c-.238-1.233-1.071-2.125-.423-3.26,1.849-.272,1.4,2.449,3.3,1.975Z" transform="translate(-1448.623 -306.784)" fill="#f7d37b"/><path d="M1480.631,377.7a3.963,3.963,0,0,1-.934,4.422,5.07,5.07,0,0,1-.2-3.62C1479.563,378.19,1480.173,378,1480.631,377.7Z" transform="translate(-1436.625 -311.878)" fill="#f7d37b"/><path d="M1458.7,433.028l.652-2.422.853,1.213.275-1.2c.1.092.206.146.24.229.553,1.328,0,2.324-1.063,3.354l-.964-1.178Z" transform="translate(-1429.167 -331.068)" fill="#f7d37b"/><path d="M1508.229,389.054l-.14-.669c0-1.552-.874-3.065-.225-4.94a8.149,8.149,0,0,1,1.245,3.7q-.006.214-.012.428C1508.97,388.162,1509.316,389.029,1508.229,389.054Z" transform="translate(-1446.913 -313.963)" fill="#fbfbed"/><path d="M1520.1,361.114c-1.872-1.3-.695-2.814-.86-4.508A4.036,4.036,0,0,1,1520.1,361.114Z" transform="translate(-1451.049 -304.229)" fill="#f7d37b"/><path d="M1496.463,399.006c.844-.092,1.729-.776,2.626.3l-1.241,1.7C1496.907,400.739,1496.233,400.271,1496.463,399.006Z" transform="translate(-1442.849 -319.499)" fill="#f7d37b"/><path d="M1536.692,367.633c.053-.831.09-1.408.128-2.013.947-.282,1.918-.465,2.022.642C1538.95,367.407,1537.837,367.444,1536.692,367.633Z" transform="translate(-1457.456 -307.42)" fill="#f7d37b"/><path d="M1501.862,331.777l.908,3.642c-.349-.189-.77-.273-.877-.5-.477-1.024-.864-2.09-1.284-3.141q0-.648-.006-1.3l.858.457Q1501.661,331.358,1501.862,331.777Z" transform="translate(-1444.367 -294.753)" fill="#f7d37b"/><path d="M1510.815,402.62l-.593.336-1.195.078a1.031,1.031,0,0,0,.054-.269c1.149-.736,1.962-1.972,3.257-2.491l.294.333Z" transform="translate(-1447.422 -320.067)" fill="#fbfbed"/><path d="M1525.752,368.386a4.382,4.382,0,0,1-1.043-4.226C1525.827,365.519,1525.691,366.976,1525.752,368.386Z" transform="translate(-1453.049 -306.969)" fill="#f7d37b"/><path d="M1532.884,346.049q.164,1.665.328,3.329C1531.813,347.956,1531.724,347.06,1532.884,346.049Z" transform="translate(-1455.784 -300.4)" fill="#f7d37b"/><path d="M1495.229,333.651l1.316-1.159c1.194.287.894,1.064.7,1.8C1496.268,334.789,1495.87,333.877,1495.229,333.651Z" transform="translate(-1442.418 -295.483)" fill="#f7d37b"/><path d="M1468.88,351l-1.321.111c.1-.9-.906-1.913.722-2.494Z" transform="translate(-1432.304 -301.332)" fill="#f7d37b"/><path d="M1506.562,424.013l-.817-.895c.039-.686.138-1.34.963-1.522.621-.137,1.037.057,1.108.748l-.435.772Z" transform="translate(-1446.232 -327.785)" fill="#f7d37b"/><path d="M1480.34,335.118l2.176-1.323a7.641,7.641,0,0,1-.421,1.623c-.168.3-.568.676-.846.661C1480.989,336.065,1480.754,335.582,1480.34,335.118Z" transform="translate(-1437.018 -295.956)" fill="#f7d37b"/><path d="M1492.968,414.316a1.7,1.7,0,0,1-2.245,1.02C1491.507,413.85,1491.507,413.85,1492.968,414.316Z" transform="translate(-1440.784 -325.06)" fill="#f7d37b"/><path d="M1472.092,372.124c-.232-1.315-.416-2.352-.639-3.617C1473.167,370.37,1473.19,370.48,1472.092,372.124Z" transform="translate(-1433.795 -308.545)" fill="#f7d37b"/><path d="M1516.106,432.809c.17-.178.308-.435.517-.518a6.432,6.432,0,0,1,1.126-.242l1.129-.129.893.191,1.05.465-1.837.458-2.09-.222Z" transform="translate(-1449.99 -331.545)" fill="#fbfbed"/><path d="M1462.759,442.118c.634-1.175,1.756-.51,2.67-.628l.114.385L1463,442.6Z" transform="translate(-1430.641 -334.985)" fill="#f7d37b"/><path d="M1558.7,328.451l1.072-2.644C1560.341,327.373,1560.22,327.674,1558.7,328.451Z" transform="translate(-1465.436 -293.059)" fill="#f7d37b"/><path d="M1462.578,314.757c.147-.192.35-.572.433-.547.818.24,1.745.382,1.917,1.473Z" transform="translate(-1430.576 -288.852)" fill="#fbfbed"/><path d="M1500.67,404.425c.22,1.821.219,1.822-1.242,1.438Z" transform="translate(-1443.941 -321.572)" fill="#f7d37b"/><path d="M1517.341,433.321l2.09.222C1518.379,434.733,1518.113,434.705,1517.341,433.321Z" transform="translate(-1450.438 -332.053)" fill="#f7d37b"/><path d="M1514.792,415.482a1.655,1.655,0,0,1,.015-.585,8.7,8.7,0,0,1,.521-.936c.2.131.578.32.559.381a3.778,3.778,0,0,1-.531,1.067c-.077.105-.372.051-.568.069Z" transform="translate(-1449.505 -325.031)" fill="#f7d37b"/><path d="M1515.46,422.792c-.028.75.2,1.638-1.053,1.913-.162-1.027.061-1.674,1.055-1.91Z" transform="translate(-1449.356 -328.234)" fill="#f7d37b"/><path d="M1489.636,432.575h-2.2C1488.128,431.623,1488.247,431.612,1489.636,432.575Z" transform="translate(-1439.591 -331.522)" fill="#f7d37b"/><path d="M1506.034,438.4c1.05-.656,1.05-.656,2.187-.328C1507.543,438.75,1506.894,438.5,1506.034,438.4Z" transform="translate(-1446.337 -333.697)" fill="#f7d37b"/><path d="M1530.811,330.324q.157.727.315,1.453.027.64.055,1.279l-.765.6Z" transform="translate(-1455.18 -294.697)" fill="#f7d37b"/><path d="M1494.8,404.744l.634-1.19.458.216-.488,1.211Z" transform="translate(-1442.264 -321.256)" fill="#f7d37b"/><path d="M1456.188,438.723V440.1l-.417.026-.146-1.407Z" transform="translate(-1428.054 -334.012)" fill="#f7d37b"/><path d="M1465.187,354.3l-.885,1.2c-.481-.981-.1-1.274.4-1.511Z" transform="translate(-1431.121 -303.279)" fill="#f7d37b"/><path d="M1527.047,439.792l1.221-.9c.119.305.283.515.232.627C1528.234,440.1,1527.822,440.3,1527.047,439.792Z" transform="translate(-1453.958 -334.072)" fill="#f7d37b"/><path d="M1457.165,435.687c-.312,1.194-.312,1.194-1.546.593l1.558-.585Z" transform="translate(-1428.052 -332.911)" fill="#f7d37b"/><path d="M1499.959,330.394q0,.648.006,1.3-.549-.713-1.1-1.426l-.039-.02Z" transform="translate(-1443.723 -294.668)" fill="#f7d37b"/><path d="M1455.3,429.389l.7.625-.186.259-.832-.475Z" transform="translate(-1427.824 -330.627)" fill="#f7d37b"/><path d="M1508.987,411.483c.073-.185.1-.463.23-.532a1.875,1.875,0,0,1,.707-.068l-.509.605Z" transform="translate(-1447.408 -323.915)" fill="#f7d37b"/><path d="M1467.118,316.409c.518-.794.918-.671,1.229.157Z" transform="translate(-1432.222 -289.456)" fill="#fbfbed"/><path d="M1465.4,436.456l-.436.388c-.114-.131-.315-.263-.315-.393s.2-.261.319-.391Z" transform="translate(-1431.327 -333.046)" fill="#f7d37b"/><path d="M1495.591,412.724l-.441-.372c.12-.118.233-.319.36-.329s.279.166.419.26Z" transform="translate(-1442.389 -324.328)" fill="#f7d37b"/><path d="M1526.022,324.558c-.25.111-.446.277-.591.241a.677.677,0,0,1-.4-.415c-.026-.089.221-.358.353-.363S1525.654,324.235,1526.022,324.558Z" transform="translate(-1453.225 -292.411)" fill="#f7d37b"/><path d="M1531.9,337.062q.11.626.219,1.254C1531.543,337.986,1531.429,337.575,1531.9,337.062Z" transform="translate(-1455.612 -297.141)" fill="#f7d37b"/><path d="M1464.651,350.785l.4.2a1.789,1.789,0,0,1-.357.4c-.062.038-.227-.089-.345-.141Z" transform="translate(-1431.218 -302.118)" fill="#f7d37b"/><path d="M1451.513,379.043l.789-.8.277.373c-.313.187-.626.373-.938.561Z" transform="translate(-1426.563 -312.076)" fill="#f7d37b"/><path d="M1525.849,432.871l-.132.306c-.1-.045-.259-.067-.289-.14s.071-.2.115-.3Z" transform="translate(-1453.369 -331.841)" fill="#f7d37b"/><path d="M1508.312,423.566l.435-.772C1509.288,423.438,1508.85,423.53,1508.312,423.566Z" transform="translate(-1447.163 -328.234)" fill="#f7d37b"/><path d="M1461.563,437.954c-.2-.062-.4-.12-.591-.194-.02-.007,0-.115,0-.177l.655.077Z" transform="translate(-1429.99 -333.598)" fill="#f7d37b"/><path d="M1496.684,401.454l-.553.643a1.633,1.633,0,0,1,.014-.518C1496.168,401.515,1496.387,401.518,1496.684,401.454Z" transform="translate(-1442.74 -320.495)" fill="#f7d37b"/><path d="M1502.35,332.037q-.2-.421-.4-.841C1502.447,331.3,1502.886,331.438,1502.35,332.037Z" transform="translate(-1444.855 -295.013)" fill="#f7d37b"/><path d="M1492.9,420.832c.007.139.016.278.024.417l-1.062-.152.033-.264Z" transform="translate(-1441.198 -327.523)" fill="#f7d37b"/><path d="M1493.068,427.4l-.3.055a1.46,1.46,0,0,1,.063-.293c.015-.034.1-.036.161-.052C1493.013,427.208,1493.041,427.305,1493.068,427.4Z" transform="translate(-1441.523 -329.801)" fill="#f7d37b"/><path d="M1508.974,411.824l.429.006-.421,1.228c-.011-.145-.021-.289-.032-.433C1508.958,412.357,1508.966,412.091,1508.974,411.824Z" transform="translate(-1447.394 -324.256)" fill="#f7d37b"/><path d="M1502.112,398.251l-.213.234a1.166,1.166,0,0,1-.149-.231c-.01-.026.08-.129.1-.123A1.254,1.254,0,0,1,1502.112,398.251Z" transform="translate(-1444.783 -319.29)" fill="#f7d37b"/><path d="M1457.822,435.225l-.415-.832-.01.011.832,0-.007-.008-.412.823Z" transform="translate(-1428.697 -332.441)" fill="#f7d37b"/><path d="M1531.585,333.883l-.055-1.279q.123.611.246,1.22Z" transform="translate(-1455.584 -295.524)" fill="#f7d37b"/><path d="M1462.931,439.505l-.1.113c-.025-.045-.072-.092-.068-.133s.061-.076.094-.115Z" transform="translate(-1430.643 -334.246)" fill="#f7d37b"/><path d="M1521.348,432.112l-.893-.191Z" transform="translate(-1451.567 -331.545)" fill="#f7d37b"/><path d="M1509.936,389.679q.006-.214.012-.428Q1509.943,389.465,1509.936,389.679Z" transform="translate(-1447.752 -316.069)" fill="#f7d37b"/><path d="M1492.828,406.025l-.076.141.08-.137Z" transform="translate(-1441.519 -322.153)" fill="#f7d37b"/><path d="M1492.875,405.951l.078-.14-.082.136Z" transform="translate(-1441.563 -322.075)" fill="#f7d37b"/><path d="M1504.479,411.178l.408.012Z" transform="translate(-1445.773 -324.021)" fill="#f7d37b"/><path d="M1532.417,340.283a.417.417,0,0,1,.054.392,1.632,1.632,0,0,1-.126-.261C1532.336,340.38,1532.392,340.328,1532.417,340.283Z" transform="translate(-1455.879 -298.309)" fill="#f7d37b"/><path d="M1516.09,422.717l.078-.14-.081.137Z" transform="translate(-1449.983 -328.156)" fill="#f7d37b"/><path d="M1514.692,293.649l.742,1.354-5.132,2.057q.026-.405.052-.811C1512.309,296.229,1513.371,294.724,1514.692,293.649Z" transform="translate(-1447.885 -281.395)" fill="#f7d37b"/><path d="M1467.037,302.869l1.255.061a1.464,1.464,0,0,1,.016.312Z" transform="translate(-1432.193 -284.74)" fill="#f7d37b"/><path d="M1492.689,285.741c-1.407-1.335-1.262-2.937-1.379-4.77A4.972,4.972,0,0,1,1492.689,285.741Z" transform="translate(-1440.997 -276.797)" fill="#fbfbed"/><path d="M1482.249,290.381V295.3c-.848.284-1.183-.345-1.132-.8C1481.264,293.208,1480.743,291.71,1482.249,290.381Z" transform="translate(-1437.298 -280.21)" fill="#fbfbed"/><path d="M1480.64,286.46v1.12l-.327.045-.2-1.093Z" transform="translate(-1436.936 -278.788)" fill="#f7d37b"/><path d="M1520.514,417.384l.87,1.182C1520.348,418.616,1520.158,418.218,1520.514,417.384Z" transform="translate(-1451.528 -326.272)" fill="#f7d37b"/><path d="M1509.847,325.848l1-2.934c1.118.632.732,1.4.5,2.032a4.67,4.67,0,0,1-1.035,1.878,1,1,0,0,1-1.563-.393c-.477-.941-.864-1.927-1.4-3.152C1508.508,323.778,1508.508,323.778,1509.847,325.848Z" transform="translate(-1446.814 -292.009)" fill="#f7d37b"/><path d="M1506.631,347.209l1.516-.5-.234,2.209Z" transform="translate(-1446.553 -300.641)" fill="#f7d37b"/><path d="M1516.171,343.668c-1.091-.894-1.091-.894,0-1.845Z" transform="translate(-1449.717 -298.867)" fill="#f7d37b"/><path d="M1496.735,349.269a.957.957,0,0,1,.021-.2c.108-.333.222-.663.334-.995.142.1.385.188.41.315.117.6-.2.875-.789.859Z" transform="translate(-1442.955 -301.134)" fill="#f7d37b"/><path d="M1490.914,327.508l1.25,1.039,1.058-1.834c1.179.888.275,1.706-.01,2.338a1.714,1.714,0,0,1-1.476.751C1490.724,329.565,1490.75,328.547,1490.914,327.508Z" transform="translate(-1440.822 -293.387)" fill="#f7d37b"/><path d="M1523.026,307.813l.156.2-.2-.155Z" transform="translate(-1452.483 -286.533)" fill="#f7d37b"/><path d="M1501.18,322.149l-.14-.08.138.083Z" transform="translate(-1444.526 -291.703)" fill="#f7d37b"/><path d="M1510.481,372.767l.135-.049-.016.13Z" transform="translate(-1447.949 -310.073)" fill="#f7d37b"/></svg>