<svg xmlns="http://www.w3.org/2000/svg" xmlns:xlink="http://www.w3.org/1999/xlink" width="30.003" height="29.339" viewBox="0 0 30.003 29.339"><defs><clipPath id="a"><rect width="30.003" height="29.339" fill="none"/></clipPath></defs><g transform="translate(0)"><g transform="translate(0)" clip-path="url(#a)"><g transform="translate(0 0)"><path d="M594.791,103.9c-.171-1.638-.416-3.274-.49-4.917-.077-1.748-.222-3.585,1.544-4.928,1.88,1.026,1.834,2.782,2.041,4.323.214,1.618.183,3.268.273,5.16,3.98-.765,5.077-6.4,9.953-5.371-.636,3.854-5.134,4.3-6.491,8.165,3.534.28,6.675.532,9.921.789-1.141,2.815-1.19,2.838-4.7,2.826-1.865-.008-3.73,0-6.015,0,1.526,5.1,6.255,6.766,8.407,10.593-1.6,1.595-2.807,1.184-4.04-.01-2.255-2.181-4.541-4.336-7.281-6.952a22.262,22.262,0,0,0-.367,7.352c.056.795-.57,2.191-1.167,2.367-1.475.439-2.142-.68-2.167-2.084-.036-1.776-.01-3.556-.01-5.559-4.128.176-4.555,6.115-9.75,4.792,2.68-3.024,4.95-5.528,7.146-8.094.55-.642,2.142-1.243.466-2.382-.377-.067-.751-.135-1.129-.2l-9.368-.885c-.011-.321-.018-.642-.026-.963,2.67-1.034,5.622-.364,8.381-.861,2.167-.217,3.985-.97,4.872-3.159" transform="translate(-581.538 -94.059)" fill="#f6d480"/><path d="M597.439,108.35c-.887,2.189-2.7,2.942-4.871,3.159a42.977,42.977,0,0,0-2.5-3.872,16.259,16.259,0,0,1-3.105-4.469c.746.071,1.671-.112,2.208.263a49.377,49.377,0,0,1,5.19,4.135c.96.881,1.786,1.539,3.078.785" transform="translate(-584.186 -98.505)" fill="#f6d480"/><path d="M599.888,124.754c.377.069.752.137,1.129.2-.377-.069-.751-.135-1.129-.2" transform="translate(-590.495 -109.042)" fill="#f6d480"/></g></g></g></svg>