<svg xmlns="http://www.w3.org/2000/svg" xmlns:xlink="http://www.w3.org/1999/xlink" width="71.385" height="67.252" viewBox="0 0 71.385 67.252"><defs><clipPath id="a"><rect width="51.793" height="58.23" fill="none"/></clipPath></defs><g transform="matrix(-0.309, 0.951, -0.951, -0.309, 10.385, -33.006)"><g transform="translate(29.654 -73.774)" clip-path="url(#a)"><path d="M31.955,29.175c.275-3.459-1.532-6.81-3.566-9.913a77.975,77.975,0,0,0-6.682-8.995,43.092,43.092,0,0,0-3.9-3.519,4.966,4.966,0,0,1-2.03-3.236c-.27-2.931,1.3-4.163,4.115-3.18,1.854.648,3.695,1.339,5.553,2A53.594,53.594,0,0,1,36.3,7.594a32.56,32.56,0,0,1,9.149,8.557,41.264,41.264,0,0,1,4.313,6.785,17.876,17.876,0,0,1,2.021,7.025,28.392,28.392,0,0,1-2.2,11.394A25.286,25.286,0,0,1,39.439,54.078a27.454,27.454,0,0,1-10.4,4.017,41.5,41.5,0,0,1-6.068.017c-3.716-.017-7.128-1.223-10.57-2.373a23.321,23.321,0,0,1-6.84-4.171A33.808,33.808,0,0,0,1.877,49.1,4.351,4.351,0,0,1,.268,44.165c.433-.88,2.365-1.455,3.746-1.27,3.5.472,7,.961,10.518,1.266a14.2,14.2,0,0,0,7.579-1.1,14.164,14.164,0,0,0,3.45-2.008c1.266-1.146,2.725-2.056,3.927-3.322,2.18-2.3,2.425-5.115,2.468-8.553" transform="translate(-0.001 0.003)" fill="#f8d17b"/></g></g></svg>