<svg xmlns="http://www.w3.org/2000/svg" xmlns:xlink="http://www.w3.org/1999/xlink" width="102.223" height="126.409" viewBox="0 0 102.223 126.409"><defs><clipPath id="a"><rect width="102.223" height="126.409" fill="none"/></clipPath></defs><g transform="translate(0 0)"><g transform="translate(0 0)"><g clip-path="url(#a)"><g transform="translate(0 0)"><path d="M506.815,299.388c.383.922.771,1.841,1.146,2.766.3.731.578,1.466.866,2.2l-10.009,3.924c-1.365-.332-1.661-1.689-2.411-2.592-1.08-1.3-2-2.731-2.988-4.1-.3-2.28-1.031-3.059-3.242-3.157-3.08-.137-6.185-.427-9.168.755a1.674,1.674,0,0,1-1.014.089c-2.245-.677-4.5-.219-6.755-.137-1.631.059-3.269-.018-4.9.056-1.295.059-1.687.656-1.229,1.871a38.386,38.386,0,0,0,1.733,3.944c.222.433.78.694,1.185,1.034a3.427,3.427,0,0,0-.367.978,6.858,6.858,0,0,0,.174,1.336l-.45.171-2.008-.3-2.1.021-3.843.262-1.126.624c-.838-.1-1.723-.327-2.069.816-.384-.624-.8-1.231-1.145-1.875-.4-.745-.845-1.4-1.784-1.484a1.072,1.072,0,0,0-.02-.391q.151-.408.307-.818l-.287-.379a21.4,21.4,0,0,0-2.88-5.855q-.792-1.88-1.586-3.758l-.224-1.612q-.119-.248-.239-.5a.886.886,0,0,0-.1-.347q-.162-.44-.321-.879-2.19-8.843-4.376-17.686c.469-1.292-.462-2.1-1.043-3.031q.175-.84.35-1.679c1.256-1.458.235-3.262.683-4.864.074-.263-.761-.78-1.176-1.18l-.125-.652c.325-.252.782-.44.943-.772a14.793,14.793,0,0,0,.283-1.486c.349-.993.038-1.569-.962-1.814-.247-1.006.394-2.36-1.124-2.869-2.968-3.063-5.981-6.085-8.893-9.2-3.914-4.189-7.428-8.677-9.452-14.133a75.529,75.529,0,0,1-3.1-9.171,19.54,19.54,0,0,1-.3-9.4,1.52,1.52,0,0,1,1.534-1.327c1.972-.217,3.088.952,4,2.395a146.992,146.992,0,0,1,7.089,13.022,30.058,30.058,0,0,0,7.685,10.088,4.154,4.154,0,0,0,.675.468c.1.053.258-.009.538-.031a3.715,3.715,0,0,0-.2-1.13c-1.816-3.382.877-8.882,4.914-9.454a1.214,1.214,0,0,0,1.187-1.239,1.236,1.236,0,0,0-.016-.173c-.082-1.992-.2-3.982-.307-5.973-.029-.551-.062-1.1-.092-1.652.011-.152.025-.3.038-.45l.009,0,1.222-.849c.63-.505,1.243-1.034,1.9-1.507a14.485,14.485,0,0,1,1.353-.789c2.2.013,4.4.071,6.592.024q3.929-.082,7.854-.317c3.229-.2,6.453-.478,9.679-.724l.414-.022,5.867-.617.708-.056,3.793-.207,1.245-.068.889.095q.152.444.3.886c.341,1.283,1.4,1.479,2.484,1.645a.869.869,0,0,1,.089.379c-.265.187-.746.361-.758.563-.155,2.541-.316,5.088.8,7.511a3.882,3.882,0,0,0,3.538,2.36c4.6.483,7.094,3.319,7.528,7.374a4.552,4.552,0,0,1-1.638,3.811c-1.824,1.66-3.633,3.335-5.449,5a19.422,19.422,0,0,0-4.081.425c-4.314,1.381-8.761.927-13.148,1.09a52.836,52.836,0,0,1-7.612-.759c-.269-.029-.629-.02-.785-.184-.913-.956-1.784-.572-2.934-.345a30.878,30.878,0,0,1-14.526-.23c-1.062-.3-2.138-.541-3.208-.809l-4.243-1.306-.546-.146.541.152c.734,1.449,2.237,1.385,3.507,1.785.367.531.619,1.239,1.119,1.56a13.034,13.034,0,0,0,8.235,2.158c1.371-.108,2.754-.076,4.134-.089,1.327-.013,2.655,0,4.118,0-.271.711-.493,1.21-.652,1.728-.424,1.373-1.074,2.7-.734,4.219.2.907.421,1.754,1.537,1.943a2.53,2.53,0,0,0,2.7-1.093,10.962,10.962,0,0,0,.579-1.229c.679.506,1.265.978,1.887,1.4a3,3,0,0,0,3.5-.1c1.008-.662.9-1.839.7-2.844a10.64,10.64,0,0,0-.962-2.263c-.181-.394-.4-.768-.592-1.121,1.64,0,3.139.029,4.638-.007,2.412-.057,4.831-.056,7.23-.266,3.344-.29,6.766-.389,9.674-2.449a43.926,43.926,0,0,1,4.689,3.7,56.867,56.867,0,0,1,6.9,9c1.455,2.253,3.029,4.438,4.634,6.585a58.311,58.311,0,0,0,5.114,6.363,29.173,29.173,0,0,1,2.972,3.29c2.082,2.841,2.748,2.9.489,6.535-.606.257-1.213.512-1.62.685-1.392-.558-2.655-1.048-3.906-1.574a3.819,3.819,0,0,1-1.049-.635c-3.13-2.771-6.518-5.274-8.956-8.761a7.131,7.131,0,0,0-1.371-1.173c-.513-.853-.918-1.82-2.066-2.03L498.31,259.3c-.277.394-.555.6-.556.816,0,1.916-.32,3.927.152,5.727.885,3.373.54,6.827,1.148,10.2.39,2.154.422,4.382.9,6.515a59.635,59.635,0,0,0,4.633,13.7c.574,1.155.935,2.485,2.233,3.13M479.94,238.552v-.009c3.736,0,7.471.046,11.207-.018a37.465,37.465,0,0,0,5.548-.434,3.769,3.769,0,0,0,3.264-4.809,5.916,5.916,0,0,0-5.711-4.3c-1.032-.027-2.067-.068-3.094-.165-2.119-.2-4.232-.569-6.354-.63s-4.221-.888-6.343-.081c-.114.043-.27-.047-.407-.051-3.422-.078-6.848-.273-10.267-.189-2.809.067-5.608.5-8.416.7a34.749,34.749,0,0,0-10.286,2.03,3.868,3.868,0,0,0-2.466,3.877c.085,1.536,1.776,3.8,3.133,4.009a28.961,28.961,0,0,0,4.715.451c4.066-.054,8.129-.308,12.2-.372,4.426-.07,8.854-.016,13.281-.016m-35.248,1.766.348.152c.05-.114.165-.258.132-.339s-.213-.109-.329-.16c-.05.114-.1.228-.152.346" transform="translate(-421.222 -199.783)" fill="#7c806a"/><path d="M506.524,200.325l-1.246.068c-.379-.16-1.049-.266-1.09-.489-.254-1.389-1.29-.62-1.9-.668-.839-.066-.661.818-.8,1.363l-.708.057c.034-1.47-1.6-.718-1.868-1.493-.823.335-1.531.559-2.174.9a21.193,21.193,0,0,0-1.825,1.208l-.414.022c-.154-.538-.31-1.074-.478-1.663a6.478,6.478,0,0,0-1.631.531,3.325,3.325,0,0,1-2.346.713,18.043,18.043,0,0,1-2.267-.179,10.174,10.174,0,0,0-2.788.149c-1.066.119-2.118.382-3.186.439-1.576.083-3.159.044-4.74.047a8.59,8.59,0,0,1-2.162-.054c-1.726-.464-3.13.2-4.527,1.036a15.028,15.028,0,0,0-1.353.788c-.652.474-1.265,1-1.9,1.507a11.252,11.252,0,0,0-1.214-.165c-1.049-.033-2.294-.394-3.107.041-1.359.725-2.066.483-2.891-.66-.59-.813-1.2-.628-1.957.413-1.169.088-1.721-.83-2.232-1.571a10.4,10.4,0,0,1-1.69-7.817c.223-1.3,1.4-2.43,2.141-3.637.348-.027.815.08,1.024-.106.436-.389.777-.786,1.487-.31.258,1.028-.315,1.9-.724,2.817a25.914,25.914,0,0,0-1.071,2.86c-.048.154.337.442.524.669l.128,2.048c-.776,1.59-.567,1.963,1.074,1.916l2.318.883c-.043.669-.174,1.377.963,1.718l3.089-2.1.443-.373c.139.194.333.577.408.555.685-.2,1.349-.476,2.019-.728l.013-.5L466.52,200c.162-.283.322-.565.484-.847.045-.127.091-.252.135-.379L466.975,196l1.727-1.238c-1.588-1.418-1.588-1.418-3.493-1.223q-.569-.386-1.14-.772l.152-.955c.4-.2,1.172.538,1.228-.5,1.014.6,1.841,1.487,3.224,1.456.91-.022,1.672.6,1.653,1.886a4.367,4.367,0,0,0-1.347,3.535c.713-.763,1.371-1.369,1.908-2.068.8-1.034,1.9-.511,2.863-.693a2.945,2.945,0,0,0,.832-.481l.856-.2a1.948,1.948,0,0,0,2.465-.2l2.51-.233a1.475,1.475,0,0,0,2.05-.121l5.821-.349a.989.989,0,0,0,1.657-.089l4.532-.43c.7.157,1.392.335,2.095.466.835.155,1.673.268,2.471.394.991-.267,2.02-.519,3.03-.837.279-.089.5-.376.744-.569l.8.016c.6.645,1.17,1.325,1.815,1.924.446.414.974.46,1.555-.289-.819-1.016-.289-1.888.519-2.777.168-.187-.124-.793-.2-1.206l.476-.8c.368-.16.752-.293,1.1-.486,1.733-.951,3.409-1.934,5.565-1.277a44.719,44.719,0,0,0,4.586.918l1.166.971a5.971,5.971,0,0,0,1.927,4.041q.124,2.072.251,4.144l-.914.694c-.1-.387-.177-.672-.31-1.181l-1.638,2.752c.455.584.8,1.027,1.14,1.471l-.818.826-.417.465-.1.083-.131-.017c-.179-.458-.633-1.044-.489-1.349.431-.918,0-1.693-.132-2.521q-.2-.427-.4-.856l-.185-1.051a10.8,10.8,0,0,0,.268-1.835,3.912,3.912,0,0,0-2.145-3.757,4.562,4.562,0,0,0-4.185-.038,5.152,5.152,0,0,0-1.73,7.078l.066.107a1.34,1.34,0,0,0,.882,1.417c.806.437,1.55.984,2.6,1.661-.61.46-1,.745-1.379,1.045-.283.222-.551.461-.826.692l-1.229-.309a.883.883,0,0,0-.09-.379c.474-1.1.361-1.485-.483-1.553-.664-.053-1.333-.064-2-.093l-.3-.886c.493-1.5.178-2.67-.8-2.56l-.67.7c.171.6,1.505.849.577,1.763m-34.46-3.218c-.055.061-.107.123-.162.185l.183-.166c.028-.062.056-.123.084-.184l-.1.165m15.567-.481c-1.2.512-2.614-.444-3.842.619,2.984.908,2.984.908,3.842-.619m10.5-.965.09.666,1.744-.449c-.027-.143-.053-.285-.08-.429l-1.754.211m-28.092,4.424c.007-.152.017-.3.025-.452-.387-.041-.775-.091-1.163-.1a4.707,4.707,0,0,0-.071.551Zm10.343-2.611c-.01-.134-.018-.269-.027-.4l-1.469.257c.033.152.065.3.1.458l1.4-.311m2.339-.467c-.118-.049-.259-.163-.341-.129s-.114.213-.166.329c.118.048.258.162.341.128s.114-.212.165-.328m24.3-.014.005-.169-.613-.028c0,.066,0,.132,0,.2Zm-26.062-.586c.05-.014.14-.027.141-.045a.537.537,0,0,0-.042-.176c-.049.015-.142.027-.143.045a.608.608,0,0,0,.044.175" transform="translate(-438.384 -186.586)" fill="#7c806a"/><path d="M482.9,275.143c1.07.268,2.146.51,3.208.809a30.86,30.86,0,0,0,14.526.23c1.149-.228,2.022-.611,2.934.346.156.163.515.154.784.184a52.871,52.871,0,0,0,7.612.758c4.386-.161,8.834.292,13.149-1.089a19.437,19.437,0,0,1,4.081-.424q.04.6.083,1.21c-2.907,2.06-6.329,2.159-9.673,2.449-2.4.208-4.819.208-7.229.266-1.5.036-3,.007-4.639.007.19.354.411.728.592,1.121a10.7,10.7,0,0,1,.962,2.264c.2,1,.3,2.18-.7,2.842a3,3,0,0,1-3.5.1c-.622-.417-1.206-.89-1.886-1.4a11.14,11.14,0,0,1-.579,1.227,2.53,2.53,0,0,1-2.7,1.093c-1.118-.19-1.333-1.037-1.538-1.943-.341-1.514.31-2.844.733-4.218.16-.519.381-1.018.652-1.728-1.464,0-2.792-.01-4.119,0-1.378.014-2.761-.019-4.134.089a13.03,13.03,0,0,1-8.236-2.158c-.5-.321-.753-1.03-1.119-1.56l.745-.483m20.274,4.022a9.032,9.032,0,0,0,1.967,5.473c.252.352,1.311.4,1.843.19a1.754,1.754,0,0,0,.778-1.449c-.159-1.79-2.541-3.952-4.589-4.213m-3.243,7.312c2.157-1.836,2.579-4.282,1.372-6.36-1.332,1.839-1.6,3.815-1.372,6.36" transform="translate(-453.265 -232.586)" fill="#7c806a"/><path d="M502.218,415.331l1.127-.622c.28,2.394.3,2.374,2.63,1.966a12.748,12.748,0,0,1,2.287,0q.036.291.069.583l-2.462.8a5.155,5.155,0,0,0,.6,1.732c.5.581,1.094.854.936,1.913-.129.862,1.8,2.212,2.269,1.807,1.072-.926,2.4-1.073,3.834-1.436-.59-1.278-1.274-2.456-.312-3.683a30.423,30.423,0,0,1,1.943,8.785c.1,1.787-1.639,4.548-3.328,5.012-2,.55-4.213.046-3.51-2.69.478-1.858-.223-3.271-1.4-4.692-2.086-2.528-4.006-5.192-6-7.8a3.4,3.4,0,0,0,.948.175,1.689,1.689,0,0,0,.973-.368c.114-.111-.057-.569-.17-.844a3.491,3.491,0,0,0-.445-.641m3.278,4.909-1.3-1.193c-.089,1.138-.089,1.138,1.3,1.193" transform="translate(-463.128 -305.978)" fill="#262729"/><path d="M584.878,409.858l10.009-3.924,1.36,1.021q-.032.631-.066,1.261l.012-.015q-.009.41-.018.822l.026.032c.665.925,2,1.375,1.977,2.788-.352.152-.706.3-1.059.45.082.134.164.266.245.4l.944-.7,1.117-.192c.294.087.692.086.861.281a11.866,11.866,0,0,1,.967,1.482c-.147.624.2.816.736.835a2.3,2.3,0,0,1,.114.3.434.434,0,0,1-.032.166l-2.626,1.161-2.276,1.135c-.641-.528-1.437-1.145-2.187-1.812-.607-.54-1.086-1.479-1.755-1.628a4.829,4.829,0,0,1-2.378-1.035c-.971-.859-2.063-1.582-3.012-2.293l-2.188.395-.772-.94m6.395,1.046c0,.186,0,.371,0,.558a6.3,6.3,0,0,0,1.87.269c.521-.079,1.441-.145,1.281-1.014-.087-.481-.633-.877-.848-1.153l-2.306,1.339" transform="translate(-507.281 -301.364)" fill="#262729"/><path d="M586.505,415.752l2.184-.4c.948.713,2.04,1.434,3.012,2.293a4.816,4.816,0,0,0,2.376,1.035c.671.148,1.148,1.089,1.756,1.628.751.667,1.545,1.284,2.187,1.812l2.278-1.135c.569.816,1.111,1.622,2.351,1.068.181-.081.607.383.916.6.564,2.563-.214,4.255-2.579,5.6-1.6-.436-2.206-1.715-2.586-3.139a3.068,3.068,0,0,0-1.888-2.247,30.674,30.674,0,0,1-7.326-4.875c-.907-.731-1.79-1.491-2.685-2.237" transform="translate(-508.137 -306.318)" fill="#262729"/><path d="M515.9,418.078c-.961,1.228-.277,2.405.313,3.684-1.433.361-2.761.511-3.834,1.435-.469.406-2.4-.945-2.269-1.807.159-1.058-.44-1.331-.936-1.913a5.208,5.208,0,0,1-.607-1.732c.8-.259,1.631-.531,2.465-.8q-.037-.292-.069-.583a12.713,12.713,0,0,0-2.288,0c-2.334.408-2.351.428-2.63-1.966l3.843-.263a1.616,1.616,0,0,0,2.1-.02l2.01.3c-.214.77-.429,1.542-.645,2.328l1.037,1.392c.458-.222.872-.423,1.29-.623.076.192.147.383.221.575m-2.255,1.216c-.1.056-.257.095-.278.171-.025.092.07.214.114.323.127-.081.254-.163.383-.244l-.219-.25" transform="translate(-465.826 -305.663)" fill="#262729"/><path d="M472.352,192.026q-.075.478-.149.955l-2.369-.238a4.978,4.978,0,0,1,.016-4.41,7.97,7.97,0,0,1,6.978,1.483,6.873,6.873,0,0,1,2.947,5.347h2.939a2.933,2.933,0,0,1-.832.481c-.964.183-2.065-.341-2.862.693-.539.7-1.2,1.3-1.908,2.068a4.36,4.36,0,0,1,1.348-3.535c.018-1.29-.746-1.907-1.656-1.886-1.382.032-2.209-.851-3.224-1.456l-2.206-2.4c-.2,1.13-.341,1.9-.487,2.7l1.465.192m4.277.057.252-.141-.376-.664-.239.134q.183.336.364.672" transform="translate(-446.518 -186.802)" fill="#7c806a"/><path d="M574.047,215.759c.274-.232.543-.471.825-.693.379-.3.77-.584,1.379-1.044-1.046-.678-1.79-1.226-2.594-1.661a1.343,1.343,0,0,1-.883-1.418,6.109,6.109,0,0,0,4.115,1.305c1.341-.114,2.191-.97,3.239-1.537a2.094,2.094,0,0,1-.5,2.218c-1.127,1.2-1.073,1.952-.214,3.283a7.371,7.371,0,0,1-5.364-.452m4.4-2.257c-.046-.114-.063-.29-.143-.328s-.222.071-.337.113c.047.114.063.288.146.327s.219-.07.334-.114" transform="translate(-500.911 -198.704)" fill="#7c806a"/><path d="M464.279,188.618a4.979,4.979,0,0,0-.015,4.41c-2.553.493-3.679,2.313-4.291,4.614-.185-.228-.572-.514-.525-.669a26.026,26.026,0,0,1,1.072-2.86c.409-.922.982-1.788.724-2.817-.711-.476-1.051-.079-1.487.31-.207.185-.674.08-1.024.106a8.57,8.57,0,0,1,5.546-3.094" transform="translate(-440.947 -187.086)" fill="#7c806a"/><path d="M578.819,187.6a44.991,44.991,0,0,1-4.585-.919c-2.156-.656-3.831.327-5.565,1.278-.351.192-.734.325-1.1.485,1.266-2.769,7.672-4.043,10.061-2.169a10,10,0,0,1,1.192,1.325" transform="translate(-498.178 -185.387)" fill="#7c806a"/><path d="M462.489,221.593c.754-1.04,1.365-1.227,1.957-.413.826,1.141,1.532,1.385,2.891.66.813-.434,2.057-.073,3.108-.041a11.233,11.233,0,0,1,1.213.165l-1.222.849-.565-.2.556.2c-.013.152-.025.3-.038.45-1.13-.045-2.261-.073-3.39-.137a7.844,7.844,0,0,1-4.509-1.538" transform="translate(-442.923 -203.943)" fill="#7c806a"/><path d="M586.079,214.743c-.86-1.331-.914-2.082.214-3.282a2.093,2.093,0,0,0,.5-2.218q.187-.662.372-1.324.092.526.186,1.052l.4.854c.132.829.563,1.6.131,2.522-.143.305.31.89.49,1.349l-2.3,1.046" transform="translate(-507.577 -197.236)" fill="#7c806a"/><path d="M562.476,193.526c.08.413.372,1.018.2,1.2-.806.889-1.337,1.763-.518,2.778-.581.749-1.109.7-1.555.289-.644-.6-1.213-1.278-1.814-1.925l1.938-.213c.592-.723,1.169-1.428,1.744-2.134" transform="translate(-493.564 -189.667)" fill="#7c806a"/><path d="M547.853,198.441c-.247.2-.464.483-.744.569-1.009.319-2.038.569-3.029.837-.8-.125-1.639-.239-2.472-.394-.7-.131-1.4-.308-2.095-.466l8.34-.546" transform="translate(-483.426 -192.252)" fill="#7c806a"/><path d="M593.459,212.559l-1.141-1.472,1.638-2.752c.134.509.21.793.312,1.182l.913-.695c-.275,1.024-.5,2.064-.853,3.06-.1.291-.569.455-.867.677" transform="translate(-511.194 -197.455)" fill="#7c806a"/><path d="M618.867,427.612c-.312-.212-.735-.676-.917-.6-1.24.554-1.782-.252-2.351-1.066l2.626-1.162a2.629,2.629,0,0,1,.642,2.824" transform="translate(-523.437 -311.278)" fill="#262729"/><path d="M523.778,417.641l-1.289.624-1.036-1.392c.217-.786.431-1.558.644-2.328l.451-.171,1.232,3.268" transform="translate(-473.929 -305.801)" fill="#262729"/><path d="M611.983,414.791l-1.117.193-.131-.157c.023-1.412-1.31-1.863-1.976-2.787l1.369-.43a3.746,3.746,0,0,1,1.854,3.18" transform="translate(-519.841 -304.349)" fill="#262729"/><path d="M501.369,415.92a3.555,3.555,0,0,1,.445.641c.114.273.284.733.17.844a1.7,1.7,0,0,1-.975.369,3.418,3.418,0,0,1-.948-.175l-.763-.861c.347-1.143,1.231-.92,2.069-.816" transform="translate(-462.279 -306.568)" fill="#262729"/><path d="M595.688,196.142a5.969,5.969,0,0,1-1.925-4.04c.815,1.266,1.856,2.422,1.927,4.042" transform="translate(-511.954 -188.918)" fill="#7c806a"/><path d="M501.831,202.176a1.948,1.948,0,0,1-2.466.2l2.466-.2" transform="translate(-462.314 -194.216)" fill="#7c806a"/><path d="M511.911,201.43a1.473,1.473,0,0,1-2.048.12l2.048-.12" transform="translate(-467.835 -193.824)" fill="#7c806a"/><path d="M528.118,200.5a.989.989,0,0,1-1.657.089q.829-.042,1.657-.089" transform="translate(-476.563 -193.337)" fill="#7c806a"/><path d="M608.718,409.348q.032-.63.067-1.261l1.116,1.252-1.183.01" transform="translate(-519.818 -302.496)" fill="#262729"/><path d="M608.716,410.729l1.183-.01.207.417-1.369.43-.026-.032q.009-.411.018-.822Z" transform="translate(-519.815 -303.876)" fill="#262729"/><path d="M620.113,422.873c-.542-.016-.885-.207-.737-.834l.737.834" transform="translate(-525.405 -309.833)" fill="#262729"/><path d="M492.268,410.194l.387-.357a1.078,1.078,0,0,1,.02.39l-.407-.033" transform="translate(-458.582 -303.416)" fill="#7c806a"/><path d="M592.119,219.449l.417-.465-.417.465" transform="translate(-511.09 -203.054)" fill="#7c806a"/><path d="M508.094,255.183c-4.428,0-8.855-.054-13.282.017-4.066.064-8.13.317-12.2.372a28.858,28.858,0,0,1-4.715-.451c-1.357-.207-3.048-2.472-3.133-4.009a3.868,3.868,0,0,1,2.466-3.877,34.776,34.776,0,0,1,10.285-2.03c2.806-.2,5.606-.636,8.416-.7,3.419-.082,6.844.114,10.267.19.137,0,.294.093.407.05,2.124-.807,4.234.022,6.343.082s4.234.43,6.354.63c1.027.1,2.062.138,3.094.165a5.918,5.918,0,0,1,5.712,4.3,3.769,3.769,0,0,1-3.265,4.808,37.208,37.208,0,0,1-5.547.434c-3.735.064-7.471.019-11.206.019Zm-17.008-3.771a10.63,10.63,0,0,1,6.775-.426c.422,1-.276,2.378,1.213,3.282.129-1.281.24-2.39.366-3.634,1.362,0,2.576.047,3.783-.012,1.521-.073,1.957.4,1.675,1.978-.06.337-.247.7-.164,1s.437.477.926.964c.171-1.362.294-2.346.434-3.451,1.6-.067,3.1-.219,4.6-.17,1.888.062,1.879.134,2.369,2.059.032.123.291.19.512.323.177-.8.335-1.5.526-2.357,1.075,0,2.039-.022,3,.006.931.028,1.859.11,2.715.162.177.881.3,1.514.476,2.366,1.045-2.291,1.047-2.272,3.613-2.5a8.673,8.673,0,0,0,1.552-.428c-.034-.158-.066-.316-.1-.473H521.6c-.7-1.128.1-2.46-1.062-3.683-.2,1.454-.341,2.507-.509,3.724-2,.023-4.117.35-6.08-.658-.3-1.014-.127-2.116-1.247-3.03a8.524,8.524,0,0,1,.182,1.6c-.164,1.635-.717,2.113-2.407,2.135-1.436.019-2.871,0-4.337,0-.363-1.465-.669-2.7-.976-3.938l-.424.091c.082,1.225.164,2.449.246,3.679l-5.825-.395c-.79-1.306.436-2.98-1.308-3.982v3.9c-1.239.223-2.308.491-3.392.588s-2.166.021-3.169.021c-.7-1.355.089-2.769-.886-3.85a8.453,8.453,0,0,0-.278,2.375c0,.893-.349,1.423-1.311,1.517a11.545,11.545,0,0,0-1.687.417c2.586-.155,2.92,1.728,3.641,3.5q.161-1.353.322-2.7m-5.37-.251c.007-.127.013-.252.021-.379l-2.142-.391c-.257-.953-.493-1.827-.835-3.1a7.191,7.191,0,0,0-.352,1.509c.079,1.67.051,1.733-1.569,1.8-.623.025-1.246,0-1.868,0v.339c1.185.133,2.369.266,3.579.4.076.93.146,1.788.216,2.644a1.811,1.811,0,0,0,.7-1.182c.1-.525.119-1.062.178-1.645Z" transform="translate(-449.376 -216.414)" fill="#e9e3d7"/><path d="M488.682,215.58c1.4-.831,2.8-1.5,4.527-1.036a8.48,8.48,0,0,0,2.162.054c1.58,0,3.164.038,4.74-.047,1.066-.057,2.119-.32,3.186-.439a10.206,10.206,0,0,1,2.788-.149,17.94,17.94,0,0,0,2.266.179,3.321,3.321,0,0,0,2.346-.713,6.6,6.6,0,0,1,1.633-.531c.168.588.323,1.127.477,1.663-3.226.245-6.449.524-9.678.724q-3.922.24-7.854.317c-2.2.046-4.4-.011-6.593-.024" transform="translate(-456.697 -199.854)" fill="#7c806a"/><path d="M540.437,214.026a21.327,21.327,0,0,1,1.825-1.208c.644-.341,1.351-.567,2.174-.9.265.774,1.9.023,1.868,1.492l-5.868.617" transform="translate(-483.912 -199.338)" fill="#7c806a"/><path d="M470.615,326.066c-.149-1.128-.337-2.251-.435-3.383-.075-.883-.042-1.775-.057-2.663.414.4,1.248.918,1.175,1.182-.448,1.6.574,3.405-.682,4.864" transform="translate(-446.937 -256.186)" fill="#7c806a"/><path d="M554.3,213.247c.137-.545-.04-1.429.8-1.362.613.048,1.649-.721,1.9.668.041.222.712.329,1.091.489l-3.793.205" transform="translate(-491.204 -199.232)" fill="#7c806a"/><path d="M469.858,314.133q.131-2.035.266-4.071c1,.244,1.31.82.962,1.814a14.706,14.706,0,0,1-.284,1.487c-.159.331-.617.519-.942.771" transform="translate(-446.798 -250.949)" fill="#7c806a"/><path d="M567.45,216.433c.667.029,1.336.04,2,.093.843.067.957.449.483,1.553-1.081-.166-2.142-.363-2.484-1.645" transform="translate(-498.117 -201.713)" fill="#7c806a"/><path d="M564.293,211.623c.928-.913-.406-1.164-.577-1.762.266-.277.495-.52.67-.7.973-.109,1.289,1.057.795,2.559-.3-.03-.593-.062-.889-.094" transform="translate(-496.154 -197.884)" fill="#7c806a"/><path d="M479.013,273.694l-.745.483c-1.268-.4-2.773-.336-3.508-1.785l.006-.005,4.247,1.307" transform="translate(-449.376 -231.137)" fill="#e9e3d7"/><path d="M516.245,414.109a1.617,1.617,0,0,1-2.1.021l2.1-.021" transform="translate(-470.087 -305.663)" fill="#262729"/><path d="M470.72,270.492l.152-.346c.114.051.294.076.329.16s-.082.224-.132.339l-.348-.152" transform="translate(-447.251 -229.958)" fill="#e9e3d7"/><path d="M482.171,380.882,481.85,380l.321.879" transform="translate(-453.104 -287.728)" fill="#7c806a"/><path d="M474.16,272.23l-.54-.152.545.146Z" transform="translate(-448.776 -230.974)" fill="#e9e3d7"/><path d="M482.971,383.089c-.079-.166-.159-.33-.239-.5q.12.247.239.5" transform="translate(-453.568 -289.09)" fill="#7c806a"/><path d="M493.411,407.689l-.285-.379.285.379" transform="translate(-459.034 -302.087)" fill="#7c806a"/><path d="M461.348,202.533c.611-2.3,1.738-4.12,4.291-4.614l2.368.239q.569.386,1.141.772.883,1.23,1.765,2.462l.164,2.779-.137.376-.482.848-1.095,1.23c-.148.123-.3.248-.443.372-1.349.146-2.6,1.314-4.054.383l-2.319-.882-1.072-1.916q-.064-1.024-.128-2.048m1.3-.2c1.064,1.956,1.588,2.275,3.077,1.877a2.215,2.215,0,0,0,1.681-2.451,2.535,2.535,0,0,0-1.95-2.118c-1.209-.166-2.082.671-2.806,2.693" transform="translate(-442.323 -191.977)" fill="#e9e3d7"/><path d="M579.609,201.125q-.186.662-.372,1.323c-1.048.567-1.9,1.424-3.238,1.537a6.114,6.114,0,0,1-4.115-1.3,5.152,5.152,0,0,1,1.556-7.117l.107-.067a4.564,4.564,0,0,1,4.185.036,3.914,3.914,0,0,1,2.145,3.758,10.8,10.8,0,0,1-.269,1.835m-5,.033a2.217,2.217,0,0,0,2.225-2.4,1.98,1.98,0,0,0-2.048-1.846c-1.16.008-2.4.932-2.431,1.812a2.534,2.534,0,0,0,2.253,2.435" transform="translate(-500.021 -190.443)" fill="#e9e3d7"/><path d="M479.564,202.413q-.882-1.232-1.766-2.462c1.9-.194,1.9-.194,3.493,1.224-.6.427-1.161.834-1.727,1.237" transform="translate(-450.973 -192.998)" fill="#7c806a"/><path d="M474.085,193.2l-1.467-.19c.146-.8.284-1.573.487-2.7.941,1.021,1.574,1.706,2.206,2.4-.054,1.036-.832.3-1.227.5" transform="translate(-448.249 -187.975)" fill="#7c806a"/><path d="M520.83,206.558c-.858,1.527-.858,1.527-3.842.619,1.228-1.062,2.642-.107,3.842-.619" transform="translate(-471.582 -196.52)" fill="#7c806a"/><path d="M468.74,217.452c1.451.932,2.7-.237,4.053-.382l-3.089,2.1c-1.137-.341-1.007-1.049-.964-1.718" transform="translate(-446.195 -202.048)" fill="#7c806a"/><path d="M478.255,214.919l1.095-1.23,1.346.559-.014.5c-.669.252-1.334.525-2.019.728-.076.022-.269-.36-.408-.555" transform="translate(-451.213 -200.27)" fill="#7c806a"/><path d="M461.136,211.971l1.073,1.917c-1.64.046-1.848-.328-1.073-1.917" transform="translate(-441.983 -199.367)" fill="#7c806a"/><path d="M547.245,204.289l1.752-.211c.026.143.054.285.082.429l-1.745.449-.09-.666" transform="translate(-487.492 -195.216)" fill="#7c806a"/><path d="M486.656,213.243h-1.209a4.592,4.592,0,0,1,.071-.551c.389.009.777.058,1.164.1-.008.152-.018.3-.027.452" transform="translate(-454.995 -199.746)" fill="#7c806a"/><path d="M508.155,207.9l-1.4.31c-.032-.152-.064-.3-.1-.455l1.468-.257c.008.135.017.268.026.4" transform="translate(-466.151 -197.017)" fill="#7c806a"/><path d="M514.182,207.214c-.053.114-.08.294-.166.328s-.228-.08-.341-.128c.053-.114.08-.294.166-.329s.228.08.341.129" transform="translate(-469.839 -196.794)" fill="#7c806a"/><path d="M565.307,207.115H564.7c0-.066,0-.132,0-.2l.613.027-.005.171" transform="translate(-496.669 -196.709)" fill="#7c806a"/><path d="M510.968,205.853a.605.605,0,0,1-.044-.176c0-.017.093-.03.143-.045a.537.537,0,0,1,.042.175c0,.018-.091.03-.141.045" transform="translate(-468.393 -196.034)" fill="#7c806a"/><path d="M589.874,210.991l-.4-.855q.2.427.4.855" transform="translate(-509.697 -198.402)" fill="#7c806a"/><path d="M481.581,211.481l.137-.376-.137.376" transform="translate(-452.962 -198.911)" fill="#7c806a"/><path d="M492.1,207.594l-.182.165.161-.184Z" transform="translate(-458.399 -197.054)" fill="#7c806a"/><path d="M492.26,207.391l.1-.165-.084.185-.021-.02" transform="translate(-458.578 -196.871)" fill="#7c806a"/><path d="M526.489,283.625c2.048.261,4.429,2.423,4.589,4.214a1.756,1.756,0,0,1-.778,1.449c-.531.21-1.593.163-1.844-.19a9.037,9.037,0,0,1-1.966-5.473" transform="translate(-476.577 -237.046)" fill="#7c806a"/><path d="M519.571,292c-.23-2.544.04-4.519,1.372-6.359,1.2,2.077.783,4.522-1.372,6.359" transform="translate(-472.901 -238.104)" fill="#7c806a"/><path d="M509.1,425.053C507.7,425,507.7,425,507.792,423.86l1.305,1.193" transform="translate(-466.729 -310.79)" fill="#262729"/><path d="M598.37,414.931l2.306-1.339c.216.275.761.672.848,1.153.159.87-.76.935-1.281,1.014a6.321,6.321,0,0,1-1.869-.269c0-.187,0-.372,0-.558" transform="translate(-514.377 -305.391)" fill="#262729"/><path d="M611.885,418.553l-.944.7-.244-.4c.353-.152.706-.3,1.058-.45l.13.156" transform="translate(-520.859 -307.917)" fill="#262729"/><path d="M608.724,410.716c0,.274-.011.548-.016.822,0-.274.012-.548.016-.822" transform="translate(-519.813 -303.878)" fill="#262729"/><path d="M521.756,425.042c.073.084.146.166.217.25l-.381.244c-.043-.109-.137-.232-.114-.323.02-.076.179-.114.278-.171" transform="translate(-473.941 -311.412)" fill="#262729"/><path d="M484.325,195.639l-.364-.672.239-.134q.19.332.376.664l-.252.141" transform="translate(-454.214 -190.354)" fill="#7c806a"/><path d="M584.225,216.228c-.114.044-.258.152-.335.114s-.1-.212-.145-.326c.114-.044.258-.152.336-.114s.1.212.144.328" transform="translate(-506.686 -201.43)" fill="#7c806a"/><path d="M478.617,224.969l-.556-.2.565.2-.009,0" transform="translate(-451.111 -206.094)" fill="#7c806a"/><path d="M504.8,252.814q-.161,1.35-.323,2.7c-.721-1.767-1.055-3.65-3.641-3.5a11.741,11.741,0,0,1,1.687-.417c.962-.1,1.306-.625,1.31-1.517a8.489,8.489,0,0,1,.279-2.376c.976,1.082.184,2.495.886,3.85,1,0,2.094.076,3.169-.022s2.153-.365,3.392-.587v-3.9c1.744,1,.519,2.676,1.308,3.982l5.826.4c-.082-1.231-.164-2.455-.246-3.678l.424-.091c.306,1.236.613,2.472.975,3.936,1.465,0,2.9.016,4.336,0,1.691-.022,2.243-.5,2.408-2.135a8.555,8.555,0,0,0-.182-1.6c1.12.914.95,2.016,1.246,3.03,1.964,1.008,4.081.681,6.08.658.166-1.218.31-2.271.508-3.725,1.166,1.223.368,2.554,1.062,3.683h3.758q.05.236.1.473a8.632,8.632,0,0,1-1.552.427c-2.567.228-2.568.208-3.612,2.5-.172-.853-.3-1.485-.477-2.366-.854-.053-1.782-.134-2.714-.162-.962-.029-1.924-.006-3-.006-.19.853-.349,1.56-.526,2.357-.219-.133-.479-.2-.51-.323-.49-1.925-.481-2-2.369-2.058-1.495-.048-3,.1-4.6.169-.139,1.107-.263,2.09-.434,3.451-.489-.487-.847-.686-.927-.963-.084-.293.1-.661.163-1,.281-1.577-.154-2.051-1.674-1.977-1.209.059-2.422.011-3.783.011-.126,1.245-.238,2.354-.366,3.634-1.489-.9-.79-2.283-1.214-3.282a10.625,10.625,0,0,0-6.77.426" transform="translate(-463.086 -217.816)" fill="#7c806a"/><path d="M490.389,254.382h-2.071c-.059.582-.082,1.12-.178,1.645a1.813,1.813,0,0,1-.7,1.182c-.07-.857-.139-1.715-.216-2.645l-3.579-.4v-.339c.622,0,1.246.021,1.868,0,1.62-.063,1.648-.125,1.569-1.8a7.155,7.155,0,0,1,.352-1.509c.341,1.269.577,2.144.835,3.1l2.142.392c-.007.127-.013.252-.021.379" transform="translate(-454.048 -219.635)" fill="#7c806a"/><path d="M464.092,204.229c.725-2.019,1.6-2.857,2.807-2.693a2.535,2.535,0,0,1,1.95,2.118,2.215,2.215,0,0,1-1.679,2.451c-1.489.4-2.013.079-3.077-1.878" transform="translate(-443.766 -193.869)" fill="#262729"/><path d="M576.04,203.279a2.534,2.534,0,0,1-2.253-2.435c.031-.88,1.271-1.8,2.431-1.812a1.98,1.98,0,0,1,2.048,1.846,2.217,2.217,0,0,1-2.225,2.4" transform="translate(-501.45 -192.562)" fill="#262729"/></g></g></g></g></svg>