<svg xmlns="http://www.w3.org/2000/svg" xmlns:xlink="http://www.w3.org/1999/xlink" width="39.629" height="35.751" viewBox="0 0 39.629 35.751"><defs><clipPath id="a"><rect width="39.629" height="35.751" fill="none"/></clipPath></defs><g clip-path="url(#a)"><path d="M12.88,10.07c1.056-2.937,1.956-5.943,3.224-8.783.776-1.741,2.515-1.706,3.252.056A47.309,47.309,0,0,1,21.567,8.6c.844,3.563,1.107,3.886,4.833,3.888,2.9,0,5.813-.152,8.716-.076a8.206,8.206,0,0,1,2.483.928,8.041,8.041,0,0,1-1.258,2.334c-1.846,1.68-3.841,3.2-5.778,4.776-.506.877-1.34,1.719-1.443,2.639-.179,1.671.134,3.392.119,5.091a12.6,12.6,0,0,1-.492,2.406l-6.276-.646c-.463-.3-.92-.605-1.381-.906-.076-1.052-.177-2.085-1.659-1.943q-.593.04-1.194.076c-2.225-.908-2.225-.908-2.375,1.972a2.817,2.817,0,0,1-.64.124c-1.2-.848-2.41-.784-3.086.517-.953,1.836-2.487,1.641-4.068,1.56q-.056-.685-.115-1.371c.453-.595,1.159-1.134,1.309-1.8.5-2.213-.708-4.094-1.305-6.126-.51-1.737-1.293-2.4-2.974-2.347-.955.033-1.912-.029-2.869-.047a2.631,2.631,0,0,1-.161-.615c-.247-1.744.848-2.359,2.262-2.425l-1.4-2.524q2.121.025,4.242.047c.655.368,1.33,1.075,1.962,1.04a16.956,16.956,0,0,0,3.436-.881c.146-1.445.286-2.832.426-4.22m5.743,14.868a.842.842,0,0,0-.1-.3c-.021-.029-.167.041-.257.066a.8.8,0,0,0,.1.3c.023.029.167-.041.255-.066" transform="translate(2.029 0)" fill="#f6d481"/><path d="M11.9,19.421l6.276.646a12.444,12.444,0,0,0,.492-2.406c.014-1.7-.3-3.417-.117-5.089.1-.922.937-1.762,1.443-2.639-.027,3.732-.039,7.466-.091,11.2a9.917,9.917,0,0,1-.28,2.849c-.342,1.054-1.562,1.694-2.27.906-1.725-1.925-4.8-2.505-5.453-5.465" transform="translate(12.597 10.514)" fill="#f6d481"/><path d="M2.011,9.545c.957.019,1.914.078,2.872.047,1.68-.056,2.462.607,2.972,2.347.6,2.032,1.809,3.913,1.305,6.124-.15.665-.856,1.2-1.307,1.8a11.985,11.985,0,0,1-.066-2.184c.338-2.233-.745-3.652-2.419-4.928A39.072,39.072,0,0,1,2.011,9.545" transform="translate(2.129 10.102)" fill="#f6d481"/><path d="M5.425,16.58c1.581.08,3.114.276,4.068-1.56.675-1.3,1.881-1.365,3.086-.517-1.962,2.485-3.769,5.22-8.164,4.938.428-1.214.72-2.038,1.011-2.861" transform="translate(4.672 14.755)" fill="#f6d481"/><path d="M4.3,6.842,5.7,9.366c-1.414.066-2.509.681-2.262,2.425A3.54,3.54,0,0,1,.511,8.853q.806-.818,1.612-1.632,1.09-.191,2.18-.379" transform="translate(0.541 7.241)" fill="#f6d481"/><path d="M10.238,4.892c-.14,1.387-.28,2.775-.426,4.22a16.821,16.821,0,0,1-3.436.881c-.632.037-1.307-.671-1.964-1.04,1.054-.138,2.106-.28,2.7-.36l3.127-3.7" transform="translate(4.671 5.177)" fill="#f6d481"/><path d="M8.691,15.443c.15-2.878.15-2.878,2.375-1.972q-1.186.988-2.375,1.972" transform="translate(9.199 13.692)" fill="#f6d481"/><path d="M10.425,13.166c1.484-.142,1.581.891,1.659,1.943l-1.659-1.943" transform="translate(11.034 13.921)" fill="#f6d481"/><path d="M2.123,7.026Q1.317,7.841.511,8.658L.517,8.65c.01-.513.019-1.023.029-1.536l1.577-.089" transform="translate(0.541 7.436)" fill="#f6d481"/><path d="M1.087,7.069,1.056,8.6,0,7.641l1.087-.572" transform="translate(0 7.482)" fill="#f6d481"/><path d="M10.217,12.271c-.089.025-.233.095-.255.066a.8.8,0,0,1-.1-.3c.091-.025.237-.095.257-.066a.842.842,0,0,1,.1.3" transform="translate(10.435 12.667)" fill="#f6d481"/></g></svg>