<svg xmlns="http://www.w3.org/2000/svg" xmlns:xlink="http://www.w3.org/1999/xlink" width="113.339" height="131.87" viewBox="0 0 113.339 131.87"><defs><clipPath id="a"><rect width="113.339" height="131.87" fill="none"/></clipPath></defs><g transform="translate(0)"><g transform="translate(0)" clip-path="url(#a)"><path d="M75.436,79.052a.546.546,0,0,1,.39.284c.4,1.6,1.634,1.879,3.024,1.911l-.056.158.073-.151q.213.639.427,1.276s3.8,4.344,4.056,4.2a35.511,35.511,0,0,1,7.772,5.945c1-2.937.748-3.6-1.774-4.73a4.131,4.131,0,0,1-1.2-.711c-1.39-1.345-3.08-2.537-4.013-4.158a26.325,26.325,0,0,1-2.125-6.242,44.468,44.468,0,0,1-.235-5.444c-.012-.527-1.389-4.408,2.085-3.228l3.879,2.54.673.413v0c.292,1.294.532,2.514,2.052,3.124,1.274.512,3.082,1.212,3.389,2.216.346,1.132.948,1.143,1.61,1.561a19.6,19.6,0,0,1,2.067,1.767l.337.787c-.36,2.539,2.328,1.889,3.219,2.9l2.461-1.82c-.2-.781-.46-1.8-.722-2.824,3.176-.387,3.644-.314,6.142.439a5.875,5.875,0,0,0,1.853-.007c1.1-.045,2.2-.108,3.548-.176,1.13-1.871,1.542-2.873.995-3.951-.845-1.663-.28-3.018.44-4.5a14.649,14.649,0,0,0,.755-2.868h0l1.247-.889a.774.774,0,0,1,.437-.227c1.42.015,1.78-.9,1.823-2.085a.513.513,0,0,1,.362-.22l.693-.536-.017.008,3.534-1.44,4,2.521h-.008c.319,2.766.875,5.532-.078,8.286q-.849,2.456-1.69,4.915a.579.579,0,0,1-.277.437l-.829,1.258.007-.008c-.775-.036-1.192.305-1.17,1.11l.01-.014c-2.207,1.63-2.329,2.293-.726,3.955.089,1.183.981,1.088,1.79,1.124l.1.548c-1.362.355-2.079,1.327-1.254,2.475,2.233,3.11-.748,6.188.164,9.238-1.78,1.946-1.62,4.633-2.627,6.862-.971,2.147-1.943,4.371-4.13,5.449l1.525,1.429c-2.6,2.264-2.791,3.1-10.936,2.891.18,1.02.267,2.016.534,2.96,2.19,7.743,4.421,15.475,6.62,23.215.406,1.429.727,2.881,1.088,4.324-.375,3.876-5.423,4.4-5.847.119l.008-.008-.46-.644-.18-.49c-.1-1.214-.127-2.435-.271-3.643-.126-1.06-.347-2.11-.442-2.67-.843-1.429-1.48-2.474-2.085-3.54-1.511-2.661-1.26-5.852-3.022-8.6-1.267-1.975-.967-4.955-1.4-7.722l-2.263-.506-.219-.123.22.123c-.087,1-.755,1.163-1.589,1.137a8.861,8.861,0,0,0-4.238.89c-1.647.773-3.488,2.023-5.642,1.144l-1.3-2.107c-.333.755-.775,1.262-.691,1.659.282,1.338,1.429,1.685,3.117,1.644L87.7,125.785l2.328,2.085,1.582-2.1c1.176,1.452.508,2.619-.209,3.7-.567.858-1.225,1.617-.177,2.872l1.024-2.223c.49,2.159.843,3.839,1.276,5.5.076.291.5.491.756.733q.074.539.149,1.078c-.305.386,1.723,9.954.187,12.538-1.128,1.959-2.5,1.626-4.037-.22-1.952-5.177-3.942-10.34-5.825-15.542-.821-2.269-1.4-4.625-2.09-6.942-.017-.224-.035-.448-.052-.671l-.751-2.15-1.444-3.4-.009-.017-.579-4.214a13.075,13.075,0,0,0-2.854.042,2.353,2.353,0,0,1-2.747-.7,4.507,4.507,0,0,0-1.365-.792c-.723-.4-1.87-.653-2.089-1.245-.681-1.842-2.25-1.254-3.471-1.61-.7-.2-1.4-.382-2.107-.571-.189-.2-.428-.616-.559-.584-1.542.376-3.069.818-4.6,1.243l-3.789-2.2a5.9,5.9,0,0,0-.261-2.112c-1.593-2.865-2.316-5.737-.667-8.832.112-.211,0-.546-.022-.821-.114-1.2-.235-2.4-.353-3.606L54.958,95l.4-.765a.534.534,0,0,1,.176-.373q.3-.774.6-1.547.1-.356.2-.712l.287-.558.01-.019.472-.705,2.757-3.9.935-1.591.642-.265L65.362,85.6c1.307-4.174,4.52-5.542,8.068-6.332l.888,1.241,1.119-1.454m47.425-.47q-.1.367-.207.733l.2-.735.565-.567c1.781-.28,2.107-1.7,2.767-3.188l-4.219,1.369-.872,1.6,2.329.222-.567.566M67.39,109.143c.6,1.024.6,1.024,1.7.36l-1.716-.345c-.275-2.092-1.818-1.834-3.5-2.012.726,1.97,2.194,1.846,3.515,2m41.151-10.054.044-.018.124-1.241c1.7.052,3.652-.566,4.523,1.7q.046.97.092,1.939l.574.86.481.566.691.551.221-.034.209.079-.571,1.553.423.265,1.274-1.752c3.405-1.105,5.7-3.221,6.148-6.925.47-3.842-1.455-5.774-5.418-5.509-1.448-.273-2.672-.779-2.837-2.858,1.857.71,2.007-.417,2.193-1.654.166-1.106,1.009-2.207-.045-3.3-2.1,1.838-3.951,3.67-2.91,6.715-1.024,1.29.344,2.557.037,3.84l-.561.559h-2.26l-.562-.557q0-.568,0-1.136l.735-.282-.739-.274q-.278.009-.556.027a8.622,8.622,0,0,0,.909-4.423c-.028-.4-.6-.759-.862-1.073-.863,2.1-1.537,3.9-2.354,5.634a11.246,11.246,0,0,1-1.5,1.953l-.737-.365-.218-1.412a15.579,15.579,0,0,0-2.511-.093c-.242.028-.419.631-.626.971-2.986,2.271-3.785,4.774-2.245,7.81a7.026,7.026,0,0,0,5.279,3.876c3.195.494,4.061.444,4.187-2.952-.478-2.148,1.765-1.778,3.256-3.038ZM83.691,97.876c-.106-1.418-.328-2.721-2.07-3.15a2.707,2.707,0,0,1-1.077-.837,21.671,21.671,0,0,0-2.03-2.163,3.1,3.1,0,0,1-1.545-2.746c.039-1.542-.91-1.493-1.715-1.111.14,2.166.264,4.05.385,5.916a2.584,2.584,0,0,1,1.181.236c1.508,1.1,2.994,2.24,4.4,3.47.772.678,1.425,1.232,2.477.386M63.81,93.435c1.189-.587,2.054-1,2.9-1.445.2-.109.511-.389.481-.525-.558-2.494,1.65-1.927,2.775-2.434.152-3.312.152-3.312-1.587-4.258v3.062c-2.222-1.884-2.68-1.72-3.268.847-.2.886-.756,1.688-1.016,2.567a13.584,13.584,0,0,0-.283,2.187m30.672,14.848-.571-.162c-.58,1.138-1.488,2.233-1.648,3.427s.434,2.472.664,3.557L89.8,116.216q.067.379.133.757c.947,0,2.467.357,2.732-.067.757-1.215,1.748-.845,2.712-.97.658-.085,1.3-.258,2.394-.482-.784-.877-1.161-1.7-1.621-1.745-1.829-.2-1.894-1.432-1.871-2.759.016-.89.132-1.778.2-2.667M127.115,70.34a3.4,3.4,0,0,0-1.1-.217c-1.645.268-3.173,1.1-4.991.459-.619-.22-1.255.685-.534,1.739,2.272-.921,3.93.665,5.584,1.9a3.394,3.394,0,0,0,1.038-3.88M93.223,133.948l-2.519-.967c.061.85.1,1.408.162,2.26l2.357-1.294M85.6,127.491l.41-.189c-.142-.319-.278-.642-.444-.948a4.215,4.215,0,0,0-.43.179l.464.958M105.095,89.75c-.157-.068-.348-.224-.461-.18s-.147.288-.216.445c.156.068.348.224.459.18s.149-.288.218-.446m11.157-9.908.4.283a1.941,1.941,0,0,0,.078-.43c0-.053-.173-.161-.2-.145a1.957,1.957,0,0,0-.288.292M78.559,89.954c-.069-.144-.1-.354-.216-.412s-.286.066-.435.109c.078.143.125.335.246.41.082.051.266-.063.406-.106m13.559,46.237L91.7,135.9a2.042,2.042,0,0,0-.082.443c0,.054.178.164.2.147a2.08,2.08,0,0,0,.3-.3m-8.723-14.366-.244-.084.169.294.075-.21" transform="translate(-16.941 -19.429)" fill="#c5ab96"/><path d="M44.5,79.336c-.256.16-.512.32-.769.479q-.4.688-.808,1.377l-2.757,3.9c-.157.235-.313.47-.472.7l-.01.018-.288.559q-.1.356-.2.711-.3.774-.595,1.548a.527.527,0,0,0-.177.374c-.135.255-.27.509-.406.764L38,89.8a19.246,19.246,0,0,0-.973,2.256c-.445,1.515-.786,3.06-1.17,4.593-.98-.682-.776-1.657-.542-2.56.441-1.7,1.074-3.347,1.452-5.056.79-3.573,2.759-6.546,4.669-9.555a19.856,19.856,0,0,1,7.735-7.217c.715-.369,1.8-.331,2.236-1.557a3.769,3.769,0,0,0-1.26.018c-3.5,1.621-6.841,3.319-9.209,6.685-5.2,7.391-7.967,15.35-6.94,24.47.151,1.343.834,1.513,1.891,1.415.938.742.045,1.115-.321,1.595l-4.386,1.812-2.961,1.19-7.071,2.487c-.442.135-.894.249-1.329.41q-3.748,1.393-7.489,2.8c-1.321-.01-2.641,0-3.96-.036-2.483-.07-3.024-1.08-1.867-3.429a1.843,1.843,0,0,0,.113-.446c-1.057-1.053-2.382-1.913-3.03-3.133-.847-1.6.984-2.638,1.723-4.054-.881-.823-1.718-1.539-2.477-2.33A3.235,3.235,0,0,1,2.471,95.6c1.465-2.232,1.46-3.362-.379-5.167-1.228-1.206-1.856-2.314-.72-3.9.578-.806.276-1.515-.29-2.3-1.48-2.046-1.44-2.9.108-4.965.786-1.049,1.343-2.067.484-3.321-.711-1.036-.265-1.947.243-2.9.93-1.738,1.939-3.381,3.82-4.272a1.74,1.74,0,0,0,.98-2.358c-1.353-3.493.187-5.584,3.25-6.87a6.319,6.319,0,0,0,.245-.923c.3-3.244,1.775-4.338,5.116-3.663.834.169,1.493.343,1.705-.739.318-.181.781-.281.932-.554,1.028-1.855,2.308-3.208,4.688-2.838A7.024,7.024,0,0,0,23,49.752c1.235-1.218,2.353-2.643,4.371-2.481.761.132,1.842.649,2.225.328,1.5-1.248,2.919-.874,4.433-.269.471.837,1.02,1.429,1.963.555.55-.511,1.036-1.1,1.617-1.57a3.286,3.286,0,0,1,3.9-.2c2.432,2.016,2.432,2.016,4.681.3,2.963.129,4.377,1.649,4.933,4.618,1.031,5.5,2.477,10.928,3.635,16.411a29.533,29.533,0,0,1,.275,4.486c-1.352.595-2.74,1.117-4.044,1.8a20.812,20.812,0,0,0-6.484,5.6M15.551,62.867c1.451,1.7,2.935,3.515,4.511,5.246.48.527,1.244,1.21,1.82,1.159,1.819-.161,2.684.983,3.7,2.1a9.62,9.62,0,0,0,1.973,1.572q4.377,2.788,8.809,5.491a7.076,7.076,0,0,0,1.9.375,4.907,4.907,0,0,0-2.8-2.734c-4.523-2.2-8.106-5.714-12.113-8.63-2.557-1.86-5.038-3.782-7.8-4.578M33.683,83.88c-7.883-2.362-15.528-4.03-23.52-3.871a6.294,6.294,0,0,0,2.7,1.238c1.274.258,2.6.27,3.863.563,1.885.438,3.712,1.136,5.6,1.53,2.889.6,5.819,1,8.716,1.569.9.176,1.774.68,2.641-1.029M33.4,90.535a2.229,2.229,0,0,0-3.07-1.225A8.425,8.425,0,0,1,24.3,88.9c-.481-.186-1.438-.284-1.562-.068-.814,1.408-2.108.83-3.22.928-2.514.222-5.032.39-7.545.6-.753.064-1.257.368-.85,1.332,7.316-.671,14.719.485,22.273-1.157M30.091,56.381c.624.907,1.226,1.831,1.877,2.719q3.557,4.846,7.144,9.67A10.758,10.758,0,0,0,43.433,72.7c-1.783-4.775-9.927-15.131-13.342-16.318M12.2,101.318c.056.293.11.587.166.88.739-.153,1.5-.25,2.214-.472,1.069-.331,2.084-.878,3.17-1.11,4-.855,8.022-1.609,12.031-2.423,1.112-.226,1.564-.85,1-2.26-6.327,1.576-12.721,2.554-18.584,5.385m36.557-31.73.582-.189q-1.445-6.892-2.9-13.784a2.448,2.448,0,0,0-.456-.989c-.141-.176-.468-.2-1.16-.47.4,2.5.654,4.735,1.119,6.926.538,2.53,1.231,5.029,1.924,7.523.106.381.582.658.887.983" transform="translate(0 -14.195)" fill="#f1d2c0"/><path d="M44.843,33.137c-1.514-.607-2.935-.98-4.433.269-.384.319-1.464-.2-2.225-.329-.388-2.969-.607-5.973-1.2-8.9A135.626,135.626,0,0,1,34.767,4.323c-.078-1.539-.175-3.25,1.369-4.324,1.843.032,2.443,1.274,2.781,2.73.8,3.474,1.679,6.937,2.344,10.439,1.261,6.643,2.395,13.311,3.582,19.969" transform="translate(-10.819 0)" fill="#c5ab96"/><path d="M25.513,40.738a6.87,6.87,0,0,1-.342,1.089c-2.38-.37-3.66.983-4.687,2.838-.151.273-.614.373-.933.554-2.921-5.453-6.031-10.816-8.685-16.4a47.955,47.955,0,0,1-2.712-9.1,10.158,10.158,0,0,1,.255-3.095,5.723,5.723,0,0,1,3.949,2.894c2.96,4.335,5.74,8.8,8.513,13.256,1.621,2.607,3.1,5.3,4.643,7.958" transform="translate(-2.518 -5.18)" fill="#c5ab96"/><path d="M17.368,158.487c-2.952,9.587-8.024,5.975-5.79-1.467,1.055-3.747,2.1-7.5,3.175-11.24.281-.975.673-1.917,1.015-2.875q3.746-1.4,7.49-2.8c.434-.162.887-.276,1.329-.41a18.16,18.16,0,0,1-.669,2.99c-2.143,5.285-4.359,10.541-6.55,15.806" transform="translate(-3.435 -43.514)" fill="#c5ab96"/><path d="M109.18,161.366c-.261-.242-.68-.443-.756-.733-.434-1.659-.786-3.338-1.276-5.5-.459,1-.691,1.5-1.024,2.224-1.048-1.256-.39-2.015.177-2.873.717-1.085,1.385-2.251.209-3.7l-1.583,2.1-2.327-2.086,2.742-3.776c-1.688.041-2.835-.306-3.118-1.644-.083-.4.359-.9.692-1.659l1.3,2.107c2.154.879,3.995-.372,5.642-1.144a8.85,8.85,0,0,1,4.238-.89c.834.025,1.5-.138,1.589-1.138h0l2.263.505c.437,2.767.136,5.748,1.4,7.722,1.762,2.747,1.511,5.939,3.022,8.6.6,1.064,1.241,2.11,2.085,3.539.1.56.316,1.61.442,2.671.131,1.1.169,2.2.246,3.309-.9-2.152-1.8-4.3-2.687-6.46-1.352-3.285-2.713-6.567-4.029-9.866-.59-1.478-1.039-3.013-1.632-4.49-.446-1.109-1.021-2.167-1.476-3.118l-8.137,1.977c.656,4.708,1.327,9.518,2,14.328" transform="translate(-31.84 -44.436)" fill="#c5ab96"/><path d="M45.428,148.967c-2.238,10.078-7.045,10.566-6.315-1.32q.355-3.744.708-7.487c.175,1.882.35,3.765.534,5.74l4.69-.418-1.28-.938a19.166,19.166,0,0,1,.3-3.018c.607-2.276-.046-4.917,1.963-6.809a1.482,1.482,0,0,0,.2-1.13c-.154-.972-.406-1.928-.615-2.877.479,0,1.047.1,1.1-.016a38.367,38.367,0,0,0,1.67-4.384c.11-.378-.417-.942-.651-1.42.366-.479,1.259-.853.319-1.594q-.015-3.32-.03-6.642c.384-1.533.725-3.078,1.17-4.593a19.361,19.361,0,0,1,.973-2.256c.118,1.2.24,2.4.353,3.606.026.275.134.611.022.821-1.65,3.095-.926,5.966.666,8.832a5.884,5.884,0,0,1,.261,2.112l3.79,2.2-.707.6-5.1-1.9c-.326,1.586-.692,3.084-.936,4.6-.893,5.552-1.741,11.112-2.624,16.666a13.48,13.48,0,0,1-.463,1.623" transform="translate(-12.161 -34.205)" fill="#c5ab96"/><path d="M136.225,70.2a14.649,14.649,0,0,1-.755,2.868c-.72,1.479-1.285,2.833-.44,4.5.547,1.077.134,2.079-.995,3.951-1.348.067-2.448.129-3.548.175a5.9,5.9,0,0,1-1.854.008c-2.5-.753-2.966-.826-6.142-.439l.723,2.824-2.462,1.82c-.931-1.05-3.818-.3-3.154-3.248,3.392-2.34,7.264-2.626,11.206-2.615,1.374,0,2.749,0,4.326,0,.03-3.725-.024-7.328,3.1-9.841" transform="translate(-36.602 -21.868)" fill="#c5ab96"/><path d="M148.188,122.873l-1.525-1.429c2.187-1.078,3.16-3.3,4.13-5.449,1.007-2.229.847-4.916,2.627-6.862-.911-3.049,2.069-6.128-.164-9.237-.823-1.148-.107-2.121,1.254-2.475,1.237,2.384,1.009,4.943.768,7.457a32.155,32.155,0,0,1-7.091,18" transform="translate(-45.687 -30.347)" fill="#c5ab96"/><path d="M70.052,134.367c.7.19,1.407.368,2.105.571,1.222.356,2.791-.232,3.472,1.61.219.592,1.365.841,2.089,1.245a4.506,4.506,0,0,1,1.365.791,2.354,2.354,0,0,0,2.747.7,13.029,13.029,0,0,1,2.854-.043l.579,4.214a2.919,2.919,0,0,0-2.2-1.469c-1.548-.377-3.051-.936-4.572-1.418-.6-1.812-2.147-.849-3.276-1.113l-1.838-.618-2.832-2.7-.573-.6.083-1.174m11.79,5.843c-.059.039-.148.067-.167.121s.057.114.091.173l.269-.206-.193-.088" transform="translate(-21.796 -41.856)" fill="#c5ab96"/><path d="M64.632,91.265a20.8,20.8,0,0,1,6.484-5.6c1.3-.685,2.692-1.208,4.043-1.8,1.344.284,2.756.441,3.47,1.883L77.51,87.2l-.888-1.241c-3.548.79-6.761,2.158-8.068,6.332l-3.922-1.027" transform="translate(-20.133 -26.124)" fill="#c5ab96"/><path d="M112.824,83.642a16.776,16.776,0,0,0-1.957-1.672c-.662-.418-1.263-.429-1.61-1.561-.306-1-2.114-1.7-3.389-2.216-1.52-.61-1.76-1.83-2.052-3.124,4.175,1.626,7.544,4.1,9.007,8.572" transform="translate(-32.34 -23.385)" fill="#c5ab96"/><path d="M67.925,135.873l2.832,2.7-9.189-3.213.707-.6c1.531-.424,3.057-.867,4.6-1.243.131-.032.37.379.559.585q-.04.587-.082,1.173l.573.6" transform="translate(-19.179 -41.591)" fill="#c5ab96"/><path d="M159.658,79.231q.845-2.458,1.69-4.914c.952-2.754.4-5.521.078-8.287,1.93,3.838,2.46,7.689-.034,11.494a11.279,11.279,0,0,1-1.734,1.707" transform="translate(-49.735 -20.569)" fill="#c5ab96"/><path d="M158.828,64.072l-4-2.521-3.534,1.44c1.04-.921,2.035-1.9,3.132-2.746a1.768,1.768,0,0,1,2.861.557,35.281,35.281,0,0,1,1.542,3.27" transform="translate(-47.129 -18.61)" fill="#c5ab96"/><path d="M154.832,93.2c-1.6-1.661-1.481-2.324.726-3.955-.719,1.455.509,2.576.67,3.88l-1.4.075" transform="translate(-47.894 -27.801)" fill="#c5ab96"/><path d="M88.552,88.925c-1.39-.032-2.626-.31-3.024-1.911l3.024,1.911" transform="translate(-26.643 -27.106)" fill="#c5ab96"/><path d="M92.983,149.18,94.09,152.1a2.882,2.882,0,0,1-1.107-2.921" transform="translate(-28.957 -46.471)" fill="#c5ab96"/><path d="M148.96,65.549c-.043,1.189-.4,2.1-1.822,2.085l1.822-2.085" transform="translate(-45.834 -20.419)" fill="#c5ab96"/><path d="M77.583,141.751c1.128.264,2.673-.7,3.275,1.113l-3.275-1.113" transform="translate(-24.168 -44.149)" fill="#c5ab96"/><path d="M155.322,94.957l1.4-.075c.13.4.262.8.394,1.2-.809-.037-1.7.059-1.79-1.124" transform="translate(-48.384 -29.556)" fill="#c5ab96"/><path d="M156.362,88.764c-.022-.8.4-1.146,1.17-1.11l-1.17,1.11" transform="translate(-48.707 -27.304)" fill="#c5ab96"/><path d="M158.053,87.1l.829-1.259-.829,1.259" transform="translate(-49.235 -26.739)" fill="#c5ab96"/><path d="M145.938,68.907l-1.246.889,1.246-.889" transform="translate(-45.073 -21.465)" fill="#c5ab96"/><path d="M103.512,74.888l-.673-.413.673.413" transform="translate(-32.035 -23.2)" fill="#c5ab96"/><path d="M151,64.45l-.693.536L151,64.45" transform="translate(-46.823 -20.077)" fill="#c5ab96"/><path d="M95.384,155.66q.026.336.052.671-.027-.336-.052-.671" transform="translate(-29.713 -48.489)" fill="#c5ab96"/><path d="M135.816,182.112q.231.321.46.643-.229-.321-.46-.643" transform="translate(-42.308 -56.729)" fill="#c5ab96"/><path d="M143.982,104.12c3.963-.264,5.887,1.668,5.418,5.509-.452,3.7-2.742,5.82-6.148,6.926l-1.126-.067-.209-.079-.221.034-.691-.551-.481-.566-.574-.86q-.046-.971-.092-1.94c.4-3.279,1.1-6.411,4.125-8.406m-.18,7.788c.3-.023.769-.176.859-.052.97,1.338,1.555.5,1.935-.4a4.815,4.815,0,0,0,.038-1.752l-.54-.258-2.317,2.187-1.279-.422c-.149.787-.3,1.574-.456,2.412,1.895.222,1.814-.758,1.76-1.718" transform="translate(-43.566 -32.427)" fill="#f7f3ec"/><path d="M125.467,107.963l.738.365.025,0q.136.345.273.69l.553.733-.023.06,1.71,3.293-.041.017q.316,1.519.631,3.039c-.127,3.395-.993,3.446-4.187,2.951a7.022,7.022,0,0,1-5.278-3.875c-1.54-3.036-.741-5.54,2.244-7.81l3.355.534m2.552,7.223-2.27-1.992c-.246.339-.774.86-.692.986a11.977,11.977,0,0,0,1.686,1.979,12.1,12.1,0,0,0,1.276-.972m-4.575-1.361-.832-.061c-.081.515-.364,1.111-.2,1.527.295.735.737,1.66,2.008.73l-.978-2.2" transform="translate(-37.101 -33.465)" fill="#f7f3ec"/><path d="M141.924,100.6c-3.02,1.995-3.722,5.127-4.125,8.406-.87-2.264-2.822-1.646-4.523-1.7q-.013-.557-.026-1.113l.047-.048c.368-.413.984-.788,1.055-1.248a21.782,21.782,0,0,0,.065-3.219c.185-.012.37-.021.556-.028,0,.186,0,.371,0,.557q0,.568,0,1.135l.562.558,2.26,0,.561-.558c.306-1.283-1.061-2.551-.037-3.841-1.041-3.045.8-4.877,2.91-6.714,1.053,1.1.211,2.2.045,3.3-.186,1.237-.336,2.364-2.192,1.654.164,2.079,1.388,2.585,2.836,2.858" transform="translate(-41.508 -28.902)" fill="#c5ab96"/><path d="M93.134,109.312c-1.053.847-1.7.293-2.478-.386-1.4-1.23-2.886-2.372-4.395-3.47a2.584,2.584,0,0,0-1.181-.236c-.121-1.865-.244-3.75-.386-5.916.806-.382,1.754-.43,1.716,1.111a3.1,3.1,0,0,0,1.545,2.747,21.67,21.67,0,0,1,2.03,2.163,2.707,2.707,0,0,0,1.077.837c1.742.429,1.964,1.732,2.07,3.15" transform="translate(-26.383 -30.864)" fill="#c5ab96"/><path d="M68.075,103.571a13.517,13.517,0,0,1,.283-2.187c.26-.88.812-1.681,1.015-2.567.587-2.566,1.047-2.731,3.268-.847V94.908c1.738.947,1.738.947,1.587,4.258-1.125.507-3.332-.059-2.775,2.434.031.136-.275.416-.481.525-.843.449-1.708.858-2.9,1.446" transform="translate(-21.206 -29.565)" fill="#c5ab96"/><path d="M110.506,128.983c-.072.889-.188,1.777-.2,2.667-.023,1.327.042,2.56,1.871,2.759.461.05.838.868,1.621,1.745-1.09.224-1.736.4-2.394.483-.964.125-1.955-.245-2.713.969-.264.425-1.785.068-2.731.068q-.066-.379-.133-.757l3.128-1.111c-.23-1.085-.823-2.372-.664-3.557s1.068-2.289,1.648-3.427l.571.162" transform="translate(-32.965 -40.129)" fill="#c5ab96"/><path d="M132.056,107.727q.013.557.026,1.113-.062.621-.124,1.241-.856-1.645-1.711-3.292c.342-.353,1.038-.832.965-1.035-.309-.862-1.009-.943-1.767-.448l-.025,0a11.242,11.242,0,0,0,1.5-1.953c.818-1.736,1.491-3.54,2.355-5.634.265.313.834.675.861,1.073a8.615,8.615,0,0,1-.909,4.423,21.793,21.793,0,0,1-.065,3.219c-.071.459-.686.834-1.055,1.248-.087-.071-.173-.143-.259-.215l.211.263" transform="translate(-40.315 -30.439)" fill="#c5ab96"/><path d="M156.881,73.844a3.394,3.394,0,0,1-1.038,3.88c-1.654-1.234-3.312-2.819-5.584-1.9-.721-1.054-.085-1.959.534-1.739,1.818.645,3.346-.191,4.992-.458a3.4,3.4,0,0,1,1.1.216" transform="translate(-46.707 -22.933)" fill="#c5ab96"/><path d="M153.615,83.653l-2.33-.222.873-1.6,4.218-1.369c-.66,1.49-.985,2.908-2.766,3.188Z" transform="translate(-47.126 -25.064)" fill="#c5ab96"/><path d="M71.684,129.4c-1.321-.151-2.79-.026-3.516-2,1.683.178,3.226-.081,3.5,2.012Z" transform="translate(-21.235 -39.688)" fill="#c5ab96"/><path d="M133.676,118.741q-.314-1.52-.631-3.04h3.887c-1.491,1.261-3.734.89-3.256,3.039" transform="translate(-41.444 -36.042)" fill="#c5ab96"/><path d="M109.656,165.9,107.3,167.19c-.061-.852-.1-1.411-.162-2.26l2.519.967" transform="translate(-33.374 -51.377)" fill="#c5ab96"/><path d="M126.83,107.511l-3.355-.535c.207-.339.383-.943.627-.97a15.57,15.57,0,0,1,2.51.093l.218,1.412" transform="translate(-38.463 -33.012)" fill="#c5ab96"/><path d="M142.894,122.094l1.126.067-1.274,1.752-.423-.266.571-1.553" transform="translate(-44.335 -38.033)" fill="#c5ab96"/><path d="M73.254,130.32l1.716.345c-1.105.664-1.105.664-1.7-.36Z" transform="translate(-22.819 -40.591)" fill="#c5ab96"/><path d="M99.517,156.44l-.463-.958a4.226,4.226,0,0,1,.429-.179c.166.306.3.629.445.948l-.41.189" transform="translate(-30.856 -48.378)" fill="#c5ab96"/><path d="M127.733,102.054c-.07.157-.1.4-.218.445s-.3-.112-.459-.18c.069-.157.1-.4.216-.445s.3.112.461.18" transform="translate(-39.579 -31.732)" fill="#c5ab96"/><path d="M62.342,96.687q.4-.689.808-1.376l-.808,1.376" transform="translate(-19.42 -29.69)" fill="#c5ab96"/><path d="M144.243,87.613a2.093,2.093,0,0,1,.288-.291c.023-.017.195.092.2.145a2.023,2.023,0,0,1-.078.43l-.406-.284" transform="translate(-44.933 -27.201)" fill="#c5ab96"/><path d="M89.2,102.243c-.138.041-.323.156-.4.105-.12-.074-.167-.267-.246-.41.148-.043.335-.16.435-.109s.147.269.215.413" transform="translate(-27.585 -31.717)" fill="#c5ab96"/><path d="M56.062,107.413q.3-.775.6-1.548-.3.775-.6,1.548" transform="translate(-17.464 -32.978)" fill="#c5ab96"/><path d="M108.965,169.462a2.111,2.111,0,0,1-.3.3c-.024.017-.2-.093-.2-.147a2.044,2.044,0,0,1,.083-.443l.417.289" transform="translate(-33.788 -52.699)" fill="#c5ab96"/><path d="M135.756,106.216c0-.185,0-.371,0-.556l.739.273-.735.283" transform="translate(-42.288 -32.914)" fill="#c5ab96"/><path d="M96.411,148.688l-.075.21-.169-.294.244.084" transform="translate(-29.957 -46.291)" fill="#c5ab96"/><path d="M153.748,85.914l-.2.735.207-.733,0,0" transform="translate(-47.83 -26.763)" fill="#c5ab96"/><path d="M139.991,119.157l.574.86-.574-.86" transform="translate(-43.608 -37.118)" fill="#c5ab96"/><path d="M141.522,121.228l.691.551-.691-.551" transform="translate(-44.085 -37.763)" fill="#c5ab96"/><path d="M138.217,182.013l.129-.218-.123.224Z" transform="translate(-43.056 -56.631)" fill="#c5ab96"/><path d="M57.652,103.675l.472-.705-.472.705" transform="translate(-17.959 -32.076)" fill="#c5ab96"/><path d="M121.677,142.594l-.22-.123Z" transform="translate(-37.835 -44.381)" fill="#c5ab96"/><path d="M57.22,104.579l.288-.559-.288.559" transform="translate(-17.824 -32.403)" fill="#c5ab96"/><path d="M136.324,108.675l-.562-.557.563.557" transform="translate(-42.291 -33.68)" fill="#c5ab96"/><path d="M140.422,108.112l-.561.558.561-.558" transform="translate(-43.568 -33.678)" fill="#c5ab96"/><path d="M55.218,109.42l.4-.764-.4.764" transform="translate(-17.201 -33.847)" fill="#c5ab96"/><path d="M154.406,85.09l-.565.568,0,0,.568-.565Z" transform="translate(-47.923 -26.506)" fill="#c5ab96"/><path d="M48.084,131.717c.234.479.761,1.042.651,1.42a38.328,38.328,0,0,1-1.67,4.385c-.051.119-.619.016-1.1.016.209.948.461,1.9.615,2.877a1.483,1.483,0,0,1-.2,1.13c-2.009,1.891-1.356,4.532-1.963,6.809a19.176,19.176,0,0,0-.3,3.018l1.28.938-4.69.418c-.184-1.975-.359-3.858-.534-5.74,0-.245,0-.49,0-.735,0-.333,0-.665,0-1q0-.443,0-.885l.7-1.163,2.178.436c.048-1.418,2.105-2.353.521-4.052a.759.759,0,0,1,.048-.739c1.427-1.357.863-2.647.01-4.019-.188-.3.039-.861.074-1.3l4.386-1.812" transform="translate(-12.513 -41.031)" fill="#c5ab96"/><path d="M51.149,107.994q.014,3.321.03,6.642c-1.055.1-1.738-.073-1.889-1.416-1.027-9.12,1.738-17.079,6.94-24.47,2.369-3.365,5.707-5.063,9.209-6.685a3.766,3.766,0,0,1,1.259-.018c-.44,1.226-1.52,1.188-2.236,1.557a19.86,19.86,0,0,0-7.735,7.217c-1.909,3.009-3.879,5.982-4.669,9.555-.378,1.709-1.011,3.359-1.451,5.056-.234.9-.438,1.878.541,2.561" transform="translate(-15.288 -25.544)" fill="#f8e8de"/><path d="M22.587,70.695c2.763.8,5.244,2.718,7.8,4.578C34.395,78.189,37.977,81.7,42.5,83.9a4.913,4.913,0,0,1,2.8,2.735,7.116,7.116,0,0,1-1.9-.375q-4.436-2.694-8.809-5.491A9.6,9.6,0,0,1,32.616,79.2c-1.014-1.117-1.88-2.262-3.7-2.1-.576.051-1.34-.632-1.82-1.159-1.576-1.731-3.06-3.544-4.511-5.246" transform="translate(-7.036 -22.022)" fill="#f8e8de"/><path d="M38.28,99.458c-.867,1.709-1.736,1.206-2.64,1.029-2.9-.566-5.827-.967-8.716-1.569-1.891-.394-3.718-1.092-5.6-1.53-1.263-.293-2.589-.3-3.863-.563a6.286,6.286,0,0,1-2.7-1.238c7.992-.159,15.636,1.509,23.52,3.871" transform="translate(-4.598 -29.773)" fill="#f8e8de"/><path d="M38.368,110.053c-7.554,1.641-14.957.486-22.273,1.157-.407-.964.1-1.268.85-1.331,2.514-.213,5.032-.381,7.545-.6,1.113-.1,2.406.479,3.22-.929.125-.216,1.082-.118,1.563.069a8.421,8.421,0,0,0,6.025.412,2.229,2.229,0,0,1,3.07,1.225" transform="translate(-4.969 -33.713)" fill="#f8e8de"/><path d="M43.706,61.273c3.414,1.187,11.56,11.543,13.342,16.318a10.758,10.758,0,0,1-4.322-3.929q-3.583-4.827-7.144-9.67c-.651-.887-1.252-1.811-1.877-2.719" transform="translate(-13.615 -19.087)" fill="#f8e8de"/><path d="M17.718,124.105c5.864-2.831,12.258-3.809,18.584-5.385.56,1.409.107,2.034-1,2.26-4.009.814-8.031,1.568-12.031,2.423-1.086.232-2.1.779-3.17,1.11-.718.222-1.475.319-2.214.472q-.084-.44-.166-.88" transform="translate(-5.519 -36.982)" fill="#f8e8de"/><path d="M43.739,134.349c-.036.441-.262,1-.074,1.3.853,1.372,1.417,2.662-.01,4.019a.757.757,0,0,0-.048.739c1.584,1.7-.474,2.634-.521,4.052l-2.178-.436.014.012-.4-.452-.219-.158.475-7.889,2.962-1.19" transform="translate(-12.554 -41.851)" fill="#c5ab96"/><path d="M69.035,73.474c-.3-.325-.781-.6-.887-.983C67.455,70,66.761,67.5,66.223,64.968c-.465-2.19-.724-4.424-1.119-6.926.692.267,1.019.294,1.16.47a2.448,2.448,0,0,1,.456.989q1.464,6.888,2.9,13.784l-.582.189" transform="translate(-20.28 -18.081)" fill="#f8e8de"/><path d="M40.866,148.135l-.7,1.164q.045-.881.092-1.761l.218.157.4.453Z" transform="translate(-12.513 -45.959)" fill="#c5ab96"/><path d="M40.169,151.38c0,.333,0,.664,0,1,0-.332,0-.665,0-1" transform="translate(-12.513 -47.156)" fill="#c5ab96"/><path d="M87.137,142.854l.193.088-.269.206c-.034-.059-.106-.132-.091-.173s.108-.082.167-.121" transform="translate(-27.091 -44.5)" fill="#c5ab96"/><path d="M70.542,136.669l-.573-.6.573.6" transform="translate(-21.796 -42.387)" fill="#c5ab96"/><path d="M145.534,114.057l2.317-2.187.54.257a4.8,4.8,0,0,1-.039,1.752c-.379.894-.965,1.736-1.934.4-.09-.125-.564.028-.859.051a.216.216,0,0,1-.025-.272" transform="translate(-45.323 -34.848)" fill="#47484a"/><path d="M144.766,114.855a.216.216,0,0,0,.025.272c.054.96.134,1.94-1.76,1.719l.456-2.413,1.279.422" transform="translate(-44.555 -35.647)" fill="#363639"/><path d="M130.71,117.794a12.18,12.18,0,0,1-1.276.972,11.981,11.981,0,0,1-1.687-1.979c-.081-.126.446-.647.693-.986l2.27,1.992" transform="translate(-39.792 -36.073)" fill="#47484a"/><path d="M124.919,116.692l.978,2.2c-1.272.93-1.714.006-2.008-.73-.167-.416.117-1.012.2-1.527l.832.061" transform="translate(-38.576 -36.331)" fill="#47484a"/><path d="M129.456,108.6c.758-.5,1.458-.414,1.767.448.073.2-.622.682-.965,1.035l.024-.061-.554-.732q-.137-.345-.273-.69" transform="translate(-40.326 -33.735)" fill="#c5ab96"/><path d="M129.853,109.742l.554.732-.554-.732" transform="translate(-40.45 -34.185)" fill="#c5ab96"/><path d="M133.153,112.138l-.211-.263c.086.072.172.144.259.215l-.048.048" transform="translate(-41.412 -34.85)" fill="#c5ab96"/><path d="M41.022,148.217l-.4-.453.4.453" transform="translate(-12.653 -46.03)" fill="#c5ab96"/></g></g></svg>