<?xml version="1.0" encoding="UTF-8"?><svg id="C_0_M_0_Y_10_K_95" xmlns="http://www.w3.org/2000/svg" viewBox="0 0 286.66 76.31"><path d="m49.44.63v.38l2.15.62v10.32c0,3.39-2.48,5.68-6.93,5.68-3.53,0-6.78-2.01-6.78-5.4V1.63l2.77-.62v-.38h-10.6v.38l2.77.62v9.94c0,4.78,3.68,7.31,10.7,7.31,6.16,0,9.17-2.53,9.17-7.21V1.64l2.15-.62v-.38h-5.4Z" fill="#fff"/><polygon points="281.07 .63 280.93 1.01 282.89 1.63 276.49 9.56 269.61 1.63 272.23 1.01 272.09 .63 261.25 .63 261.25 1.01 264.31 1.77 272 10.61 272 17.25 269.22 17.92 269.22 18.3 279.93 18.3 279.93 17.92 277.16 17.25 277.16 10.37 284.27 1.63 286.66 1.01 286.66 .63 281.07 .63" fill="#fff"/><path d="m262.44,17.15L252.65.62h-7.83v.38l3.06.77.48.86-9.22,14.71-2.29.62v.38h5.54l.14-.38-1.91-.62,2.29-3.63h12.09l2.15,3.63-2.63.62.14.38h10.94v-.43l-3.15-.76h-.01Zm-19.01-4.44l5.64-9.03,5.3,9.03s-10.94,0-10.94,0Z" fill="#fff"/><polygon points="26.03 1.01 26.03 .63 15.67 .63 15.67 1.01 18.44 1.63 18.44 8.56 7.64 8.56 7.64 1.63 10.41 1.01 10.41 .63 0 .63 0 1.01 2.82 1.63 2.82 17.25 0 17.92 0 18.3 10.41 18.3 10.41 17.92 7.64 17.25 7.64 9.46 18.44 9.46 18.44 17.25 15.67 17.92 15.67 18.3 26.03 18.3 26.03 17.92 23.26 17.25 23.26 1.63 26.03 1.01" fill="#fff"/><path d="m71.37.63h-13.61v.38l2.77.62v15.62l-2.77.62v.38h13.76c6.83,0,11.32-3.49,11.32-8.84.09-4.2-3.82-8.79-11.47-8.79m.19,17.01h-4.25l-1.62-.14V1.25h6.07c3.39,0,5.83,3.01,5.83,8.17-.05,2.82-1.62,8.22-6.02,8.22" fill="#fff"/><polygon points="159.98 .63 159.98 1.01 162.17 1.63 162.17 12.38 148.08 .63 139.53 .63 139.53 1.01 142.3 1.68 142.3 17.25 140.15 17.92 140.15 18.3 145.7 18.3 145.7 17.92 143.54 17.25 143.54 2.63 162.17 18.87 163.37 18.87 163.37 1.63 165.52 1.01 165.52 .63 159.98 .63" fill="#fff"/><polygon points="170.3 .63 173.07 .63 169.48 5.31 168.29 5.31 170.3 .63" fill="#fff"/><path d="m192.79,8.17c-2.1-.72-5.4-1.1-9.55-1.38-3.15-.24-4.54-1.39-4.54-3.01,0-1.91,2.39-3.06,6.02-3.06,5.64,0,8.22,3.49,8.93,6.02h.29V2.06S189.3.05,184.63.05c-5.64,0-8.93,2.29-8.93,6.4,0,2.53,2.01,4.63,9.17,5.06,6.02.48,7.83,1.53,7.83,3.92,0,1.86-2.39,2.86-6.07,2.86-5.06,0-9.41-2.53-10.41-6.26h-.29v4.92s5.45,2.01,10.46,2.01c5.3,0,10.08-1.48,10.08-6.64.1-1.72-1.43-3.49-3.68-4.16" fill="#fff"/><path d="m105.04,8.17c-2.1-.72-5.4-1.1-9.55-1.38-3.25-.24-4.63-1.39-4.63-3.01,0-1.91,2.39-3.06,6.02-3.06,5.64,0,8.22,3.49,8.93,6.02h.29V2.06S101.47.05,96.79.05c-5.64,0-8.93,2.29-8.93,6.4,0,2.53,2.01,4.63,9.17,5.06,6.02.48,7.93,1.53,7.93,3.92,0,1.86-2.39,2.86-6.07,2.86-5.06,0-9.41-2.53-10.41-6.26h-.29v4.92s5.45,2.01,10.46,2.01c5.3,0,10.08-1.48,10.08-6.64.1-1.72-1.48-3.49-3.68-4.16" fill="#fff"/><path d="m137.05,9.46c0-1.67-.48-3.3-1.24-4.54-1.86-3.01-6.02-4.92-10.8-4.92-7.02,0-11.7,3.77-11.7,9.46s4.78,9.41,11.85,9.41,11.89-3.73,11.89-9.41m-6.4,5.3c-.91,2.39-2.77,3.53-5.54,3.53-4.06,0-6.4-3.06-6.4-8.6,0-1.86.29-3.53.86-5.16.91-2.63,2.77-3.92,5.68-3.92,1.39,0,2.53.29,3.39.86,1.86,1.24,2.91,4.16,2.91,7.83.1,2.01-.29,3.77-.91,5.45" fill="#fff"/><path d="m235.69,13.62c0-3.25-3.92-4.87-8.31-4.87,3.68,0,6.64-1.39,6.64-4.01,0-2.77-3.54-4.15-8.17-4.15h-14.33v.38l2.77.62v15.62l-2.77.62v.38h16c5.4.1,8.17-2.2,8.17-4.59m-16.43-12.37h4.87c3.39,0,5.4.76,5.4,3.63s-2.01,3.63-4.44,3.63h-5.69V1.3h-.14v-.05h0Zm1.72,16.43l-1.67-.14v-8.31h5.54c3.39,0,5.92.48,5.92,4.25,0,3.15-2.91,4.15-5.78,4.15h-4.01v.05Z" fill="#fff"/><path d="m19.09,75.69l-8.35-13.1h-6.62v13.1H.02v-32.97h13.25c6.03,0,10.38,3.85,10.38,9.94s-4.1,9.19-8.6,9.59l8.9,13.45h-4.86Zm.3-23.04c0-3.76-2.72-6.28-6.62-6.28H4.12v12.6h8.65c3.91,0,6.62-2.62,6.62-6.33" fill="#fff"/><polygon points="41.89 75.69 41.89 42.72 63.49 42.72 63.49 46.38 45.99 46.38 45.99 57.01 63.14 57.01 63.14 60.67 45.99 60.67 45.99 72.03 63.49 72.03 63.49 75.69 41.89 75.69" fill="#fff"/><polygon points="106.99 75.69 99.73 49.1 92.46 75.69 88.01 75.69 78.62 42.72 83.17 42.72 90.49 70.21 98.05 42.72 101.46 42.72 109.02 70.21 116.29 42.72 120.89 42.72 111.44 75.69 106.99 75.69" fill="#fff"/><path d="m157.61,75.69l-2.92-7.37h-16.41l-2.92,7.37h-4.7l13.3-32.97h5.09l13.25,32.97h-4.7,0Zm-11.12-28.77l-6.97,17.79h13.99s-7.02-17.79-7.02-17.79Z" fill="#fff"/><path d="m196.35,75.69l-8.35-13.1h-6.62v13.1h-4.1v-32.97h13.25c6.03,0,10.38,3.85,10.38,9.94s-4.1,9.19-8.6,9.59l8.9,13.45h-4.86Zm.3-23.04c0-3.76-2.72-6.28-6.62-6.28h-8.65v12.6h8.65c3.9,0,6.62-2.62,6.62-6.33" fill="#fff"/><path d="m219.15,75.69v-32.97h11.27c10.28,0,16.91,7.17,16.91,16.51s-6.62,16.46-16.91,16.46h-11.27,0Zm23.93-16.46c0-7.12-4.5-12.85-12.65-12.85h-7.17v25.65h7.17c8.01,0,12.65-5.73,12.65-12.8" fill="#fff"/><path d="m261.84,71.05l2.47-3.16c2.12,2.47,5.68,4.75,10.33,4.75,5.88,0,7.76-3.16,7.76-5.73,0-8.5-19.52-3.76-19.52-15.52,0-5.44,4.84-9.19,11.37-9.19,4.99,0,8.9,1.73,11.67,4.65l-2.47,3.01c-2.47-2.77-5.93-3.95-9.54-3.95-3.91,0-6.77,2.12-6.77,5.24,0,7.41,19.52,3.16,19.52,15.47,0,4.75-3.26,9.69-12.16,9.69-5.68,0-9.93-2.17-12.65-5.24" fill="#fff"/></svg>